<svg xmlns="http://www.w3.org/2000/svg" width="97.856" height="97.856" viewBox="95.322 -39.928 97.856 97.856"><g data-name="Mask Group 58" transform="translate(0 -40.25)" clip-path="url(&quot;#a&quot;)"><g data-name="Group 471"><g data-name="Group 310" transform="rotate(-73 98.473 -26.475)" clip-path="url(&quot;#b&quot;)"><path d="M73.973 39.684h4.895c-.004 21.642-17.542 39.18-39.184 39.184C18.04 78.864.504 61.326.5 39.684.503 18.04 18.041.504 39.684.5c21.642.003 39.18 17.541 39.184 39.184h-9.789c-.03-16.233-13.162-29.366-29.395-29.396-16.233.03-29.366 13.163-29.396 29.396.03 16.233 13.163 29.366 29.396 29.395 16.233-.03 29.366-13.162 29.395-29.395h4.894Z" fill-rule="evenodd" fill="url(&quot;#c&quot;)" transform="translate(-.242 -.242)" data-name="Path 978"/></g></g></g><defs><clipPath id="b"><path d="M0 0h78.883v78.883H0V0z" data-name="Rectangle 247"/></clipPath><clipPath id="a"><path d="M10 0h136a10 10 0 0 1 10 10v136a10 10 0 0 1-10 10H10a10 10 0 0 1-10-10V10A10 10 0 0 1 10 0z" data-name="Rectangle 350" transform="translate(0 40.25)"/></clipPath><linearGradient x1="1" y1="0" x2=".003" y2="1.003" id="c"><stop stop-color="#ffc76e" offset="0"/><stop stop-color="#c00" offset="1"/></linearGradient></defs></svg>