<svg xmlns="http://www.w3.org/2000/svg" width="116.655" height="111.97" viewBox="-18.163 57.857 116.655 111.97"><g data-name="Group 331"><g data-name="Group 177"><g data-name="Group 176" transform="translate(5.92 77.952)" clip-path="url(&quot;#a&quot;)"><path d="M16.338 10.253c-1.679.55-3.371 1.105-5.047 1.714a36.567 36.567 0 0 0-3.432 4.46c2.988-1.393 6.203-2.447 9.36-3.48 1.118-.366 2.233-.731 3.335-1.109C26.224 9.895 34.026 6.586 38.03.001a36.218 36.218 0 0 0-3.57.197c-2.195 2.77-6.299 6.036-14.824 8.959-1.09.374-2.192.734-3.297 1.096" fill-rule="evenodd" fill="url(&quot;#b&quot;)" transform="translate(-2.402)" data-name="Path 164"/><path d="M42.592 3.091c-1.57 3.16-5.01 7.824-16.69 11.829-1.09.373-2.192.735-3.297 1.096-5.964 1.951-12.132 3.97-16.934 8.225C-1.34 30.454-.283 37.912.741 45.124c.07.49.14.98.207 1.472.725 2.538 1.726 5.001 2.994 7.339.095-3.096-.338-6.166-.763-9.156-1.018-7.17-1.897-13.36 4.125-18.696 4.42-3.917 10.34-5.854 16.067-7.727 1.116-.366 2.229-.73 3.33-1.107 6.004-2.06 14.413-5.654 18.095-13.062.398-.8.72-1.617.994-2.444a35.772 35.772 0 0 0-2.39-.596c-.227.659-.492 1.308-.808 1.944" fill-rule="evenodd" fill="url(&quot;#c&quot;)" transform="translate(0 -.35)" data-name="Path 165"/><path d="M38.8.115c-1.563 3.145-4.989 7.788-16.636 11.781-1.091.374-2.194.735-3.299 1.097-4.997 1.636-10.135 3.323-14.501 6.329a36.183 36.183 0 0 0-2.414 5.65 16.181 16.181 0 0 1 1.707-1.754c4.405-3.904 10.315-5.838 16.032-7.708 1.117-.366 2.232-.73 3.334-1.108 6.02-2.065 14.45-5.669 18.148-13.108.147-.296.282-.595.411-.894a36.093 36.093 0 0 0-2.78-.29L38.8.115" fill-rule="evenodd" fill="url(&quot;#d&quot;)" transform="translate(-.596 -.034)" data-name="Path 166"/><path d="M55.24 9.903c-1.585 3.189-5.05 7.894-16.796 11.922-1.093.374-2.197.735-3.303 1.097-5.945 1.946-12.093 3.957-16.866 8.187-6.938 6.147-5.885 13.554-4.868 20.718.531 3.743 1.081 7.614.515 11.342-.02.137-.046.267-.068.402.575.583 1.171 1.15 1.791 1.696.132-.573.249-1.166.342-1.785.613-4.031.04-8.056-.512-11.95-1.026-7.22-1.912-13.458 4.186-18.86 4.448-3.942 10.387-5.885 16.13-7.765 1.115-.365 2.228-.73 3.33-1.107 5.974-2.048 14.337-5.62 17.99-12.968a18.888 18.888 0 0 0 1.37-3.736 36.577 36.577 0 0 0-1.885-1.067 17.186 17.186 0 0 1-1.356 3.874" fill-rule="evenodd" fill="url(&quot;#e&quot;)" transform="translate(-3.872 -1.843)" data-name="Path 167"/><path d="M48.916 6.354c-1.578 3.174-5.03 7.86-16.743 11.875-1.091.374-2.195.736-3.301 1.097-5.955 1.949-12.112 3.964-16.898 8.205-6.976 6.181-5.92 13.614-4.9 20.801.437 3.078.885 6.243.715 9.338a36.1 36.1 0 0 0 1.993 2.651c.018-.111.04-.219.057-.331.615-4.046.042-8.078-.512-11.978-1.022-7.195-1.904-13.408 4.156-18.778 4.434-3.929 10.363-5.869 16.096-7.746 1.117-.365 2.23-.73 3.332-1.107 5.99-2.053 14.375-5.637 18.042-13.015.55-1.104.963-2.24 1.281-3.396a35.88 35.88 0 0 0-2.122-.851 16.779 16.779 0 0 1-1.196 3.235" fill-rule="evenodd" fill="url(&quot;#f&quot;)" transform="translate(-1.936 -.953)" data-name="Path 168"/><path d="M61.564 13.76c-1.593 3.204-5.072 7.93-16.85 11.969-1.09.374-2.195.735-3.3 1.098-5.938 1.942-12.077 3.951-16.836 8.167-6.9 6.115-5.852 13.497-4.838 20.635.533 3.751 1.083 7.629.516 11.37a22.5 22.5 0 0 1-.265 1.415c.544.404 1.102.795 1.675 1.172.188-.73.348-1.493.47-2.302.61-4.017.04-8.036-.512-11.922-.987-6.946-1.919-13.508 4.216-18.944 4.464-3.955 10.412-5.902 16.165-7.784 1.114-.364 2.227-.728 3.327-1.105 5.957-2.043 14.3-5.605 17.936-12.922.55-1.105.962-2.243 1.278-3.402a36.268 36.268 0 0 0-1.635-1.257 17.25 17.25 0 0 1-1.347 3.813" fill-rule="evenodd" fill="url(&quot;#g&quot;)" transform="translate(-5.809 -3.04)" data-name="Path 169"/><path d="M67.888 17.97c-1.6 3.218-5.093 7.966-16.903 12.014-1.092.375-2.197.736-3.304 1.099-5.927 1.94-12.057 3.945-16.8 8.149-6.863 6.08-5.818 13.438-4.808 20.553.533 3.756 1.085 7.641.515 11.396a21.49 21.49 0 0 1-.3 1.567c.52.283 1.046.552 1.575.807.167-.674.31-1.377.421-2.116.609-4.005.039-8.017-.512-11.896-.99-6.972-1.925-13.558 4.247-19.027 4.477-3.967 10.435-5.917 16.196-7.802 1.115-.365 2.227-.73 3.327-1.106 5.942-2.037 14.261-5.589 17.883-12.875.375-.754.682-1.525.944-2.307-.437-.479-.888-.949-1.355-1.408a16.91 16.91 0 0 1-1.126 2.952" fill-rule="evenodd" fill="url(&quot;#h&quot;)" transform="translate(-7.745 -4.59)" data-name="Path 170"/><path d="M18.406 9.6c4.67-1.602 10.78-4.128 15.043-8.645a36.211 36.211 0 0 0-18.637 9.838l.257-.084c1.118-.366 2.234-.731 3.337-1.11" fill-rule="evenodd" fill="url(&quot;#i&quot;)" transform="translate(-4.527 -.292)" data-name="Path 171"/><path d="M85.289 60.645c-5.874 1.922-11.946 3.91-16.603 8.036-6.638 5.882-5.66 12.767-4.625 20.055l.082.577c.194-.049.388-.1.581-.152l-.072-.509c-1.012-7.125-1.967-13.855 4.43-19.524 4.564-4.044 10.577-6.012 16.392-7.915 1.113-.364 2.223-.727 3.32-1.104.73-.25 1.495-.522 2.282-.822.033-.229.064-.457.092-.685-.812.318-1.662.633-2.566.942-1.096.376-2.203.738-3.313 1.101" fill-rule="evenodd" fill="url(&quot;#j&quot;)" transform="translate(-19.354 -17.912)" data-name="Path 172"/><path d="M66.489 45.82c-5.9 1.932-12.001 3.928-16.702 8.093-6.75 5.981-5.715 13.262-4.716 20.303.437 3.076.886 6.237.727 9.355.384.037.768.067 1.153.093.17-3.234-.288-6.465-.735-9.61-1-7.049-1.947-13.706 4.339-19.275 4.52-4.006 10.506-5.965 16.294-7.86 1.113-.364 2.225-.727 3.323-1.104 4.387-1.504 10.077-3.839 14.176-7.898a37.248 37.248 0 0 0-.364-1.249c-2.465 2.59-6.645 5.467-14.187 8.053-1.093.375-2.2.737-3.308 1.1" fill-rule="evenodd" fill="url(&quot;#k&quot;)" transform="translate(-13.554 -11.208)" data-name="Path 173"/><path d="M72.75 50.894c-5.891 1.927-11.983 3.92-16.669 8.073-6.713 5.948-5.728 12.881-4.686 20.221.323 2.274.65 4.594.737 6.91.324-.007.647-.02.97-.037-.088-2.36-.42-4.708-.746-7.01-1.005-7.074-1.954-13.756 4.368-19.358 4.536-4.019 10.53-5.98 16.328-7.878a248.38 248.38 0 0 0 3.322-1.104c3.314-1.136 7.373-2.747 10.923-5.218a33.647 33.647 0 0 0-.15-1.085c-2.533 1.812-6.067 3.664-11.088 5.385-1.094.376-2.2.738-3.31 1.1" fill-rule="evenodd" fill="url(&quot;#l&quot;)" transform="translate(-15.481 -13.574)" data-name="Path 174"/><path d="M63.527 39.6c-1.093.376-2.198.737-3.306 1.1-5.91 1.934-12.02 3.933-16.735 8.111-6.788 6.014-5.75 13.321-4.747 20.387.524 3.69 1.063 7.503.547 11.21.438.102.877.193 1.318.277.563-3.923.006-7.864-.536-11.676-.997-7.023-1.94-13.657 4.308-19.192 4.507-3.994 10.483-5.95 16.263-7.841 1.113-.364 2.225-.728 3.324-1.105 5.31-1.82 12.526-4.857 16.541-10.693a35.76 35.76 0 0 0-.67-1.409c-1.915 3.15-5.906 7.266-16.307 10.832" fill-rule="evenodd" fill="url(&quot;#m&quot;)" transform="translate(-11.618 -8.794)" data-name="Path 175"/><path d="M74.212 22.564c-1.608 3.233-5.113 8-16.956 12.062-1.093.374-2.198.736-3.305 1.098-5.92 1.937-12.04 3.94-16.768 8.13-6.826 6.048-5.784 13.38-4.777 20.47.534 3.763 1.087 7.655.515 11.423-.052.342-.111.675-.176 1.001.483.182.967.353 1.455.513a24.9 24.9 0 0 0 .233-1.284c.606-3.99.037-7.996-.513-11.868-.994-6.998-1.933-13.608 4.277-19.11 4.492-3.98 10.459-5.933 16.229-7.82 1.115-.366 2.227-.73 3.326-1.107 5.927-2.032 14.223-5.573 17.83-12.827.069-.14.128-.281.193-.422-.33-.499-.67-.991-1.026-1.475-.164.408-.338.815-.537 1.216" fill-rule="evenodd" fill="url(&quot;#n&quot;)" transform="translate(-9.681 -6.525)" data-name="Path 176"/><path d="M79.022 55.838c-5.883 1.924-11.966 3.915-16.638 8.055-6.676 5.915-5.694 12.824-4.655 20.138a117.3 117.3 0 0 1 .515 3.966c.26-.036.518-.077.776-.118-.143-1.33-.33-2.652-.515-3.958-1.009-7.1-1.961-13.806 4.398-19.442 4.55-4.032 10.556-5.997 16.363-7.896 1.112-.365 2.222-.727 3.319-1.104 2.109-.723 4.52-1.64 6.91-2.847.003-.301.004-.601 0-.902-1.975 1.024-4.332 2.037-7.164 3.008-1.094.375-2.2.737-3.309 1.1" fill-rule="evenodd" fill="url(&quot;#o&quot;)" transform="translate(-17.418 -15.812)" data-name="Path 177"/><path d="m69.959 90.08.396-.151c-.688-5.906-.515-11.458 4.907-16.262 4.578-4.057 10.6-6.028 16.425-7.934l.445-.146c.042-.158.086-.316.126-.474l-.699.23c-5.864 1.919-11.928 3.903-16.57 8.017-5.606 4.968-5.747 10.665-5.03 16.72" fill-rule="evenodd" fill="url(&quot;#p&quot;)" transform="translate(-21.29 -19.902)" data-name="Path 178"/><path d="m75.991 90.303.226-.12c.024-4.272 1.153-8.292 5.224-11.899 3.187-2.823 7.066-4.637 11.091-6.122l.113-.279c-4.113 1.505-8.088 3.341-11.353 6.234-4.178 3.701-5.3 7.817-5.301 12.186" fill-rule="evenodd" fill="url(&quot;#q&quot;)" transform="translate(-23.227 -21.972)" data-name="Path 179"/><path d="M84.438 88.064c-.245.475-.458.962-.648 1.462l.058-.044c.183-.479.388-.946.623-1.4.853-1.653 2.029-3.13 3.596-4.518a25.19 25.19 0 0 1 3.658-2.674l.05-.075a25.342 25.342 0 0 0-3.734 2.72c-1.57 1.391-2.748 2.873-3.603 4.529" fill-rule="evenodd" fill="url(&quot;#r&quot;)" transform="translate(-25.611 -24.702)" data-name="Path 180"/></g></g><g data-name="Group 179"><g data-name="Group 178" transform="translate(11.377 77.952)" clip-path="url(&quot;#s&quot;)"><path d="M0 0h30.186v34.253H0V0z" fill-rule="evenodd" fill="url(&quot;#t&quot;)" transform="rotate(-57.078 6.894 12.677)" data-name="Rectangle 181"/></g></g><g data-name="Group 181"><g data-name="Group 180" transform="translate(5.92 78.747)" clip-path="url(&quot;#u&quot;)"><path d="M0 0h69.198v67.127H0V0z" fill-rule="evenodd" fill="url(&quot;#v&quot;)" transform="rotate(-57.078 22.156 40.74)" data-name="Rectangle 182"/></g></g><g data-name="Group 183"><g data-name="Group 182" transform="translate(7.274 78.027)" clip-path="url(&quot;#w&quot;)"><path d="M0 0h42.41v46.78H0V0z" fill-rule="evenodd" fill="url(&quot;#x&quot;)" transform="rotate(-57.078 10.435 19.187)" data-name="Rectangle 183"/></g></g><g data-name="Group 185"><g data-name="Group 184" transform="translate(14.717 82.138)" clip-path="url(&quot;#y&quot;)"><path d="M0 0h75.347v71.768H0V0z" fill-rule="evenodd" fill="url(&quot;#z&quot;)" transform="rotate(-57.078 24.197 46.941)" data-name="Rectangle 184"/></g></g><g data-name="Group 187"><g data-name="Group 186" transform="translate(10.319 80.117)" clip-path="url(&quot;#A&quot;)"><path d="M0 0h73.689v70.74H0V0z" fill-rule="evenodd" fill="url(&quot;#B&quot;)" transform="rotate(-57.078 23.34 45.375)" data-name="Rectangle 185"/></g></g><g data-name="Group 189"><g data-name="Group 188" transform="translate(19.116 84.858)" clip-path="url(&quot;#C&quot;)"><path d="M0 0h75.534v71.755H0V0z" fill-rule="evenodd" fill="url(&quot;#D&quot;)" transform="rotate(-57.077 24.368 47.246)" data-name="Rectangle 186"/></g></g><g data-name="Group 191"><g data-name="Group 190" transform="translate(23.514 88.38)" clip-path="url(&quot;#E&quot;)"><path d="M0 0h74.329v70.723H0V0z" fill-rule="evenodd" fill="url(&quot;#F&quot;)" transform="rotate(-57.077 23.908 46.39)" data-name="Rectangle 187"/></g></g><g data-name="Group 193"><g data-name="Group 192" transform="translate(16.204 78.615)" clip-path="url(&quot;#G&quot;)"><path d="M0 0h18.387v20.99H0V0z" fill-rule="evenodd" fill="url(&quot;#H&quot;)" transform="rotate(-57.078 4.129 7.592)" data-name="Rectangle 188"/></g></g><g data-name="Group 195"><g data-name="Group 194" transform="translate(49.884 118.641)" clip-path="url(&quot;#I&quot;)"><path d="M0 0h41.606v41.135H0V0z" fill-rule="evenodd" fill="url(&quot;#J&quot;)" transform="rotate(-57.077 12.255 24.87)" data-name="Rectangle 189"/></g></g><g data-name="Group 197"><g data-name="Group 196" transform="translate(36.71 103.411)" clip-path="url(&quot;#K&quot;)"><path d="M0 0h61.901v60.219H0V0z" fill-rule="evenodd" fill="url(&quot;#L&quot;)" transform="rotate(-57.077 19.072 37.47)" data-name="Rectangle 190"/></g></g><g data-name="Group 199"><g data-name="Group 198" transform="translate(41.087 108.785)" clip-path="url(&quot;#M&quot;)"><path d="M0 0h55.61v54.497H0V0z" fill-rule="evenodd" fill="url(&quot;#N&quot;)" transform="rotate(-57.077 16.858 33.352)" data-name="Rectangle 191"/></g></g><g data-name="Group 201"><g data-name="Group 200" transform="translate(32.31 97.926)" clip-path="url(&quot;#O&quot;)"><path d="M0 0h67.387v64.988H0V0z" fill-rule="evenodd" fill="url(&quot;#P&quot;)" transform="rotate(-57.077 21.134 41.271)" data-name="Rectangle 192"/></g></g><g data-name="Group 203"><g data-name="Group 202" transform="translate(27.912 92.774)" clip-path="url(&quot;#Q&quot;)"><path d="M0 0h71.619v68.513H0V0z" fill-rule="evenodd" fill="url(&quot;#R&quot;)" transform="rotate(-57.077 22.809 44.362)" data-name="Rectangle 193"/></g></g><g data-name="Group 205"><g data-name="Group 204" transform="translate(45.486 113.87)" clip-path="url(&quot;#S&quot;)"><path d="M0 0h48.807v48.074H0V0z" fill-rule="evenodd" fill="url(&quot;#T&quot;)" transform="rotate(-57.077 14.584 29.16)" data-name="Rectangle 194"/></g></g><g data-name="Group 207"><g data-name="Group 206" transform="translate(54.284 123.162)" clip-path="url(&quot;#U&quot;)"><path d="M0 0h33.467v32.89H0V0z" fill-rule="evenodd" fill="url(&quot;#V&quot;)" transform="rotate(-57.077 10.273 19.647)" data-name="Rectangle 195"/></g></g><g data-name="Group 209"><g data-name="Group 208" transform="translate(58.683 127.863)" clip-path="url(&quot;#W&quot;)"><path d="M0 0h24.514v23.991H0V0z" fill-rule="evenodd" fill="url(&quot;#X&quot;)" transform="rotate(-57.077 7.731 14.216)" data-name="Rectangle 196"/></g></g><g data-name="Group 211"><g data-name="Group 210" transform="translate(64.1 134.065)" clip-path="url(&quot;#Y&quot;)"><path d="M0 0h11.651v11.436H0V0z" fill-rule="evenodd" fill="url(&quot;#Z&quot;)" transform="rotate(-57.078 3.656 6.722)" data-name="Rectangle 197"/></g></g></g><defs><linearGradient x1="2.02" y1="1" x2=".298" y2="3.55" id="b"><stop stop-color="rgba(255,147,0,0.34 )" offset="0"/><stop stop-color="rgba(255,72,72,0 )" offset="1"/></linearGradient><linearGradient x1="2.02" y1="1" x2=".298" y2="3.55" id="c"><stop stop-color="rgba(255,147,0,0.34 )" offset="0"/><stop stop-color="rgba(255,72,72,0 )" offset="1"/></linearGradient><linearGradient x1="2.02" y1="1" x2=".298" y2="3.55" id="d"><stop stop-color="rgba(255,147,0,0.34 )" offset="0"/><stop stop-color="rgba(255,72,72,0 )" offset="1"/></linearGradient><linearGradient x1="2.02" y1="1" x2=".298" y2="3.55" id="e"><stop stop-color="rgba(255,147,0,0.34 )" offset="0"/><stop stop-color="rgba(255,72,72,0 )" offset="1"/></linearGradient><linearGradient x1="2.02" y1="1" x2=".298" y2="3.55" id="f"><stop stop-color="rgba(255,147,0,0.34 )" offset="0"/><stop stop-color="rgba(255,72,72,0 )" offset="1"/></linearGradient><linearGradient x1="2.02" y1="1" x2=".298" y2="3.55" id="g"><stop stop-color="rgba(255,147,0,0.34 )" offset="0"/><stop stop-color="rgba(255,72,72,0 )" offset="1"/></linearGradient><linearGradient x1="2.02" y1="1" x2=".298" y2="3.55" id="h"><stop stop-color="rgba(255,147,0,0.34 )" offset="0"/><stop stop-color="rgba(255,72,72,0 )" offset="1"/></linearGradient><linearGradient x1="2.02" y1="1" x2=".298" y2="3.55" id="i"><stop stop-color="rgba(255,147,0,0.34 )" offset="0"/><stop stop-color="rgba(255,72,72,0 )" offset="1"/></linearGradient><linearGradient x1="2.02" y1="1" x2=".298" y2="3.55" id="j"><stop stop-color="rgba(255,147,0,0.34 )" offset="0"/><stop stop-color="rgba(255,72,72,0 )" offset="1"/></linearGradient><linearGradient x1="2.02" y1="1" x2=".298" y2="3.55" id="k"><stop stop-color="rgba(255,147,0,0.34 )" offset="0"/><stop stop-color="rgba(255,72,72,0 )" offset="1"/></linearGradient><linearGradient x1="2.02" y1="1" x2=".298" y2="3.55" id="l"><stop stop-color="rgba(255,147,0,0.34 )" offset="0"/><stop stop-color="rgba(255,72,72,0 )" offset="1"/></linearGradient><linearGradient x1="2.02" y1="1" x2=".298" y2="3.55" id="m"><stop stop-color="rgba(255,147,0,0.34 )" offset="0"/><stop stop-color="rgba(255,72,72,0 )" offset="1"/></linearGradient><linearGradient x1="2.02" y1="1" x2=".298" y2="3.55" id="n"><stop stop-color="rgba(255,147,0,0.34 )" offset="0"/><stop stop-color="rgba(255,72,72,0 )" offset="1"/></linearGradient><linearGradient x1="2.02" y1="1" x2=".298" y2="3.55" id="o"><stop stop-color="rgba(255,147,0,0.34 )" offset="0"/><stop stop-color="rgba(255,72,72,0 )" offset="1"/></linearGradient><linearGradient x1="2.02" y1="1" x2=".298" y2="3.55" id="p"><stop stop-color="rgba(255,147,0,0.34 )" offset="0"/><stop stop-color="rgba(255,72,72,0 )" offset="1"/></linearGradient><linearGradient x1="2.02" y1="1" x2=".298" y2="3.55" id="q"><stop stop-color="rgba(255,147,0,0.34 )" offset="0"/><stop stop-color="rgba(255,72,72,0 )" offset="1"/></linearGradient><linearGradient x1="2.02" y1="1" x2=".298" y2="3.55" id="r"><stop stop-color="rgba(255,147,0,0.34 )" offset="0"/><stop stop-color="rgba(255,72,72,0 )" offset="1"/></linearGradient><linearGradient x1="2.02" y1="1" x2=".298" y2="3.55" id="t"><stop stop-color="rgba(255,147,0,0.34 )" offset="0"/><stop stop-color="rgba(255,72,72,0 )" offset="1"/></linearGradient><linearGradient x1="2.02" y1="1" x2=".298" y2="3.55" id="v"><stop stop-color="rgba(255,147,0,0.34 )" offset="0"/><stop stop-color="rgba(255,72,72,0 )" offset="1"/></linearGradient><linearGradient x1="2.02" y1="1" x2=".298" y2="3.55" id="x"><stop stop-color="rgba(255,147,0,0.34 )" offset="0"/><stop stop-color="rgba(255,72,72,0 )" offset="1"/></linearGradient><linearGradient x1="2.02" y1="1" x2=".298" y2="3.55" id="z"><stop stop-color="rgba(255,147,0,0.34 )" offset="0"/><stop stop-color="rgba(255,72,72,0 )" offset="1"/></linearGradient><linearGradient x1="2.02" y1="1" x2=".298" y2="3.55" id="B"><stop stop-color="rgba(255,147,0,0.34 )" offset="0"/><stop stop-color="rgba(255,72,72,0 )" offset="1"/></linearGradient><linearGradient x1="2.02" y1="1" x2=".298" y2="3.55" id="D"><stop stop-color="rgba(255,147,0,0.34 )" offset="0"/><stop stop-color="rgba(255,72,72,0 )" offset="1"/></linearGradient><linearGradient x1="2.02" y1="1" x2=".298" y2="3.55" id="F"><stop stop-color="rgba(255,147,0,0.34 )" offset="0"/><stop stop-color="rgba(255,72,72,0 )" offset="1"/></linearGradient><linearGradient x1="2.02" y1="1" x2=".298" y2="3.55" id="H"><stop stop-color="rgba(255,147,0,0.34 )" offset="0"/><stop stop-color="rgba(255,72,72,0 )" offset="1"/></linearGradient><linearGradient x1="2.02" y1="1" x2=".298" y2="3.55" id="J"><stop stop-color="rgba(255,147,0,0.34 )" offset="0"/><stop stop-color="rgba(255,72,72,0 )" offset="1"/></linearGradient><linearGradient x1="2.02" y1="1" x2=".298" y2="3.55" id="L"><stop stop-color="rgba(255,147,0,0.34 )" offset="0"/><stop stop-color="rgba(255,72,72,0 )" offset="1"/></linearGradient><linearGradient x1="2.02" y1="1" x2=".298" y2="3.55" id="N"><stop stop-color="rgba(255,147,0,0.34 )" offset="0"/><stop stop-color="rgba(255,72,72,0 )" offset="1"/></linearGradient><linearGradient x1="2.02" y1="1" x2=".298" y2="3.55" id="P"><stop stop-color="rgba(255,147,0,0.34 )" offset="0"/><stop stop-color="rgba(255,72,72,0 )" offset="1"/></linearGradient><linearGradient x1="2.02" y1="1" x2=".298" y2="3.55" id="R"><stop stop-color="rgba(255,147,0,0.34 )" offset="0"/><stop stop-color="rgba(255,72,72,0 )" offset="1"/></linearGradient><linearGradient x1="2.02" y1="1" x2=".298" y2="3.55" id="T"><stop stop-color="rgba(255,147,0,0.34 )" offset="0"/><stop stop-color="rgba(255,72,72,0 )" offset="1"/></linearGradient><linearGradient x1="2.02" y1="1" x2=".298" y2="3.55" id="V"><stop stop-color="rgba(255,147,0,0.34 )" offset="0"/><stop stop-color="rgba(255,72,72,0 )" offset="1"/></linearGradient><linearGradient x1="2.02" y1="1" x2=".298" y2="3.55" id="X"><stop stop-color="rgba(255,147,0,0.34 )" offset="0"/><stop stop-color="rgba(255,72,72,0 )" offset="1"/></linearGradient><linearGradient x1="2.02" y1="1" x2=".298" y2="3.55" id="Z"><stop stop-color="rgba(255,147,0,0.34 )" offset="0"/><stop stop-color="rgba(255,72,72,0 )" offset="1"/></linearGradient><clipPath id="a"><path d="M0 0h72.08v72.524H0V0z" data-name="Rectangle 180"/></clipPath><clipPath id="s"><path d="M34.46.197c-2.196 2.77-6.3 6.036-14.825 8.96-1.09.374-2.192.734-3.297 1.095a169.39 169.39 0 0 0-5.047 1.714 36.5 36.5 0 0 0-3.431 4.46c2.987-1.392 6.203-2.446 9.36-3.48 1.118-.366 2.233-.73 3.335-1.109C26.225 9.894 34.026 6.586 38.03 0a36.418 36.418 0 0 0-3.57.197" data-name="Path 181" transform="translate(-7.86)"/></clipPath><clipPath id="u"><path d="M42.592 3.09c-1.57 3.16-5.01 7.824-16.69 11.829-1.09.374-2.192.735-3.296 1.096-5.965 1.952-12.133 3.97-16.935 8.225C1.195 28.206.007 32.68 0 37.272v.086c.004 2.574.375 5.186.742 7.766l.206 1.472c.725 2.538 1.726 5 2.994 7.339.096-3.097-.34-6.166-.763-9.157-1.018-7.169-1.897-13.36 4.124-18.695 4.42-3.917 10.342-5.854 16.068-7.728a246.02 246.02 0 0 0 3.33-1.107c6.004-2.059 14.413-5.654 18.095-13.061.398-.8.72-1.618.994-2.444a35.884 35.884 0 0 0-2.391-.597c-.227.66-.49 1.309-.807 1.945" data-name="Path 182" transform="translate(0 -1.146)"/></clipPath><clipPath id="w"><path d="M38.8.115c-1.563 3.144-4.988 7.787-16.636 11.78-1.09.375-2.193.736-3.299 1.097-4.997 1.636-10.135 3.323-14.501 6.33a36.183 36.183 0 0 0-2.414 5.65c.496-.596 1.06-1.18 1.707-1.755 4.405-3.904 10.315-5.837 16.032-7.708 1.117-.365 2.232-.73 3.334-1.108 6.02-2.064 14.45-5.668 18.149-13.108.146-.296.282-.595.41-.894a36.442 36.442 0 0 0-2.78-.29L38.8.115" data-name="Path 183" transform="translate(-1.95 -.109)"/></clipPath><clipPath id="y"><path d="M55.24 9.903c-1.585 3.189-5.05 7.894-16.796 11.922-1.092.374-2.196.735-3.303 1.097-5.945 1.946-12.093 3.957-16.865 8.186-6.938 6.148-5.886 13.555-4.869 20.719.532 3.743 1.081 7.614.516 11.342-.02.137-.046.267-.07.403a35.784 35.784 0 0 0 1.793 1.695c.132-.573.248-1.165.342-1.785.612-4.031.04-8.056-.513-11.95-1.026-7.22-1.91-13.457 4.186-18.86 4.449-3.942 10.387-5.885 16.13-7.765 1.116-.365 2.23-.73 3.33-1.107 5.974-2.048 14.338-5.621 17.99-12.968a18.876 18.876 0 0 0 1.37-3.736c-.621-.378-1.25-.732-1.884-1.067a17.188 17.188 0 0 1-1.357 3.874" data-name="Path 184" transform="translate(-12.67 -6.029)"/></clipPath><clipPath id="A"><path d="M48.916 6.353c-1.577 3.174-5.03 7.86-16.743 11.875-1.091.374-2.194.736-3.301 1.098-5.955 1.948-12.112 3.963-16.898 8.205-6.976 6.181-5.92 13.613-4.9 20.801.438 3.077.885 6.242.715 9.338.62.91 1.286 1.794 1.993 2.65.02-.11.04-.218.057-.331.615-4.046.042-8.078-.512-11.977-1.021-7.195-1.904-13.41 4.155-18.779 4.435-3.928 10.364-5.869 16.097-7.745 1.117-.365 2.231-.73 3.332-1.107 5.99-2.054 14.375-5.637 18.042-13.015.55-1.105.963-2.24 1.281-3.397a36.561 36.561 0 0 0-2.122-.851 16.762 16.762 0 0 1-1.196 3.235" data-name="Path 185" transform="translate(-6.335 -3.118)"/></clipPath><clipPath id="C"><path d="M61.564 13.76c-1.592 3.204-5.072 7.93-16.85 11.969-1.09.373-2.195.734-3.301 1.097-5.936 1.943-12.076 3.951-16.835 8.167-6.9 6.115-5.852 13.497-4.837 20.636.532 3.75 1.082 7.629.514 11.37-.074.49-.164.957-.263 1.414a36.71 36.71 0 0 0 1.674 1.173c.187-.73.348-1.494.47-2.302.61-4.018.04-8.036-.513-11.922-.986-6.947-1.918-13.508 4.217-18.945 4.463-3.955 10.412-5.9 16.165-7.783 1.114-.365 2.227-.729 3.326-1.106 5.959-2.043 14.3-5.605 17.937-12.921.55-1.106.961-2.244 1.278-3.403a35.9 35.9 0 0 0-1.636-1.257 17.223 17.223 0 0 1-1.346 3.813" data-name="Path 186" transform="translate(-19.005 -9.947)"/></clipPath><clipPath id="E"><path d="M67.888 17.97c-1.6 3.219-5.092 7.966-16.903 12.014-1.092.375-2.197.736-3.304 1.098-5.927 1.94-12.056 3.946-16.8 8.15-6.863 6.08-5.818 13.438-4.808 20.552.534 3.757 1.085 7.642.516 11.397a21.89 21.89 0 0 1-.3 1.568c.52.282 1.045.55 1.574.806.167-.674.31-1.377.421-2.117.609-4.004.039-8.016-.513-11.895-.99-6.972-1.925-13.557 4.248-19.027 4.477-3.967 10.435-5.917 16.196-7.802 1.115-.365 2.227-.73 3.327-1.107 5.942-2.037 14.261-5.588 17.883-12.874.375-.755.683-1.525.945-2.306a35.96 35.96 0 0 0-1.356-1.409 16.91 16.91 0 0 1-1.126 2.952" data-name="Path 187" transform="translate(-25.339 -15.018)"/></clipPath><clipPath id="G"><path d="M14.812 10.793c.086-.027.171-.056.257-.084 1.118-.366 2.234-.73 3.337-1.11C23.076 8 29.188 5.473 33.449.957a36.205 36.205 0 0 0-18.637 9.837" data-name="Path 188" transform="translate(-14.812 -.956)"/></clipPath><clipPath id="I"><path d="M88.602 59.544c-1.096.376-2.203.738-3.312 1.101-5.874 1.923-11.947 3.91-16.603 8.036-6.638 5.882-5.661 12.766-4.625 20.055.026.192.054.385.082.578.193-.05.387-.1.58-.153l-.071-.509c-1.013-7.124-1.968-13.855 4.429-19.524 4.564-4.044 10.578-6.012 16.393-7.915 1.112-.363 2.222-.727 3.32-1.104.729-.25 1.495-.522 2.282-.822.032-.229.063-.457.091-.685-.81.318-1.662.633-2.566.942" data-name="Path 189" transform="translate(-63.318 -58.602)"/></clipPath><clipPath id="K"><path d="M69.798 44.72c-1.093.376-2.2.738-3.309 1.1-5.9 1.931-12.001 3.928-16.701 8.093-6.75 5.982-5.716 13.262-4.717 20.304.437 3.075.886 6.236.727 9.353.384.038.768.068 1.153.093.17-3.233-.288-6.465-.735-9.609-1-7.049-1.946-13.707 4.339-19.276 4.521-4.006 10.506-5.964 16.294-7.858 1.113-.365 2.225-.729 3.324-1.105 4.387-1.505 10.076-3.84 14.175-7.898a35.667 35.667 0 0 0-.364-1.25c-2.465 2.592-6.645 5.468-14.186 8.054" data-name="Path 190" transform="translate(-44.343 -36.667)"/></clipPath><clipPath id="M"><path d="M76.06 49.794c-1.095.375-2.2.736-3.31 1.1-5.891 1.927-11.983 3.92-16.669 8.073-6.712 5.948-5.728 12.88-4.685 20.22.322 2.274.65 4.595.737 6.91.323-.007.646-.02.97-.036-.088-2.36-.42-4.708-.747-7.01-1.004-7.074-1.954-13.756 4.37-19.358 4.534-4.019 10.529-5.981 16.326-7.878 1.113-.365 2.224-.728 3.323-1.104 3.313-1.136 7.372-2.747 10.923-5.218a38.442 38.442 0 0 0-.15-1.086c-2.534 1.812-6.067 3.664-11.088 5.387" data-name="Path 191" transform="translate(-50.649 -44.407)"/></clipPath><clipPath id="O"><path d="M63.527 39.6c-1.093.375-2.198.736-3.306 1.099-5.91 1.934-12.02 3.933-16.736 8.111-6.787 6.014-5.75 13.321-4.746 20.387.524 3.69 1.063 7.504.547 11.212.438.1.877.191 1.318.275.563-3.923.006-7.863-.536-11.676-.997-7.023-1.94-13.657 4.308-19.192 4.507-3.994 10.483-5.95 16.263-7.84 1.113-.365 2.224-.729 3.324-1.106 5.31-1.82 12.526-4.857 16.541-10.692a36.267 36.267 0 0 0-.67-1.41c-1.915 3.15-5.906 7.266-16.307 10.832" data-name="Path 192" transform="translate(-38.008 -28.768)"/></clipPath><clipPath id="Q"><path d="M74.213 22.564c-1.608 3.233-5.113 8.001-16.956 12.062-1.093.374-2.198.736-3.306 1.098-5.918 1.938-12.038 3.94-16.768 8.13-6.826 6.048-5.784 13.38-4.777 20.47.534 3.763 1.087 7.655.515 11.423-.052.343-.11.675-.176 1.001.484.182.968.354 1.455.514.087-.418.167-.843.233-1.285.606-3.99.037-7.996-.513-11.868-.993-6.998-1.932-13.608 4.278-19.11 4.492-3.98 10.459-5.933 16.229-7.821 1.114-.365 2.226-.728 3.325-1.106 5.927-2.031 14.223-5.573 17.83-12.827.069-.14.128-.28.193-.422-.329-.499-.67-.991-1.026-1.475-.164.409-.337.815-.536 1.216" data-name="Path 193" transform="translate(-31.674 -21.348)"/></clipPath><clipPath id="S"><path d="M82.33 54.738c-1.093.375-2.199.737-3.308 1.1-5.883 1.924-11.966 3.915-16.638 8.055-6.675 5.915-5.694 12.823-4.656 20.138.187 1.31.374 2.634.516 3.965.26-.036.518-.076.776-.118a119.66 119.66 0 0 0-.515-3.957c-1.01-7.1-1.961-13.806 4.398-19.44 4.55-4.034 10.556-5.999 16.363-7.899 1.112-.364 2.221-.726 3.319-1.103 2.109-.722 4.52-1.64 6.909-2.847.004-.301.004-.602.002-.902-1.977 1.023-4.333 2.037-7.165 3.008" data-name="Path 194" transform="translate(-56.984 -51.73)"/></clipPath><clipPath id="U"><path d="M91.558 65.343c-5.863 1.918-11.927 3.903-16.57 8.016-5.605 4.968-5.746 10.666-5.03 16.721.133-.05.265-.1.397-.152-.688-5.906-.516-11.457 4.906-16.261 4.579-4.057 10.601-6.028 16.425-7.934l.446-.146c.042-.158.086-.316.126-.474l-.7.23" data-name="Path 195" transform="translate(-69.654 -65.113)"/></clipPath><clipPath id="W"><path d="M81.292 78.117c-4.178 3.701-5.3 7.817-5.301 12.186l.226-.12c.025-4.27 1.153-8.291 5.224-11.899 3.187-2.823 7.066-4.637 11.091-6.121l.113-.28c-4.114 1.505-8.089 3.341-11.353 6.234" data-name="Path 196" transform="translate(-75.991 -71.883)"/></clipPath><clipPath id="Y"><path d="M88.042 83.535c-1.57 1.39-2.75 2.872-3.604 4.528-.245.475-.458.963-.647 1.462l.058-.044c.182-.478.388-.945.623-1.4.852-1.652 2.028-3.13 3.595-4.518a25.21 25.21 0 0 1 3.659-2.674l.05-.074a25.28 25.28 0 0 0-3.734 2.72" data-name="Path 197" transform="translate(-83.791 -80.815)"/></clipPath></defs></svg>