<svg xmlns="http://www.w3.org/2000/svg" width="323" height="323" viewBox="736.5 1488 323 323"><g data-name="Group 290"><g data-name="Group 249"><g data-name="Group 248" transform="translate(736.5 1488)" clip-path="url(&quot;#a&quot;)"><path d="M174.319 169.997a4.33 4.33 0 0 0-4.324 4.324 4.329 4.329 0 0 0 4.324 4.323 4.329 4.329 0 0 0 4.324-4.323 4.33 4.33 0 0 0-4.324-4.324m0 13.094c-4.837 0-8.772-3.934-8.772-8.77 0-4.838 3.935-8.773 8.772-8.773s8.771 3.935 8.771 8.773c0 4.836-3.934 8.77-8.771 8.77" fill-rule="evenodd" fill="url(&quot;#b&quot;)" transform="translate(-12.82 -12.82)" data-name="Path 942"/><path d="M173.517 159.377a14.063 14.063 0 0 0-7.919 2.425 14.266 14.266 0 0 0-3.797 3.797 14.062 14.062 0 0 0-2.425 7.92 14.062 14.062 0 0 0 2.425 7.919 14.265 14.265 0 0 0 3.797 3.797 14.063 14.063 0 0 0 7.92 2.425 14.062 14.062 0 0 0 7.919-2.425 14.321 14.321 0 0 0 2.08-1.718 14.318 14.318 0 0 0 1.717-2.08 14.063 14.063 0 0 0 2.425-7.92 14.063 14.063 0 0 0-2.425-7.918 14.258 14.258 0 0 0-6.188-5.1 14.062 14.062 0 0 0-5.529-1.122m0-4.176a18.216 18.216 0 0 1 10.23 3.124 18.433 18.433 0 0 1 4.924 4.904c.66.972 1.23 2.01 1.693 3.093a18.206 18.206 0 0 1 1.471 7.196 18.216 18.216 0 0 1-3.124 10.23 18.438 18.438 0 0 1-4.904 4.924c-.972.66-2.01 1.23-3.093 1.693a18.205 18.205 0 0 1-7.197 1.47 18.214 18.214 0 0 1-10.229-3.123 18.442 18.442 0 0 1-6.617-7.997 18.205 18.205 0 0 1-1.471-7.197 18.214 18.214 0 0 1 3.125-10.229 18.376 18.376 0 0 1 4.904-4.924 18.205 18.205 0 0 1 10.288-3.164" fill-rule="evenodd" fill="url(&quot;#c&quot;)" transform="translate(-12.018 -12.019)" data-name="Path 943"/><path d="M172.716 148.757c-3.255 0-6.402.643-9.348 1.894a23.963 23.963 0 0 0-7.593 5.125 23.963 23.963 0 0 0-5.125 7.592 23.82 23.82 0 0 0-1.894 9.35c0 3.254.644 6.402 1.894 9.348a23.974 23.974 0 0 0 5.125 7.592 23.967 23.967 0 0 0 7.593 5.125 23.813 23.813 0 0 0 9.348 1.894 23.82 23.82 0 0 0 13.408-4.102 24.203 24.203 0 0 0 3.533-2.917 23.968 23.968 0 0 0 5.125-7.593 23.813 23.813 0 0 0 1.894-9.348 23.82 23.82 0 0 0-4.102-13.407 24.16 24.16 0 0 0-2.917-3.534 23.991 23.991 0 0 0-7.592-5.125 23.803 23.803 0 0 0-9.349-1.894m0-3.903c3.785 0 7.439.75 10.846 2.192a27.778 27.778 0 0 1 4.722 2.563 28.055 28.055 0 0 1 7.503 7.486 27.798 27.798 0 0 1 2.574 4.715 27.688 27.688 0 0 1 2.218 10.907 27.69 27.69 0 0 1-4.754 15.567 28.109 28.109 0 0 1-3.385 4.11 28.12 28.12 0 0 1-4.101 3.394 27.866 27.866 0 0 1-4.715 2.574 27.688 27.688 0 0 1-10.908 2.218 27.707 27.707 0 0 1-15.567-4.754 28.113 28.113 0 0 1-4.11-3.385 28.164 28.164 0 0 1-3.393-4.101 27.862 27.862 0 0 1-2.574-4.715 27.688 27.688 0 0 1-2.219-10.908 27.702 27.702 0 0 1 4.755-15.567 28.054 28.054 0 0 1 7.486-7.503 27.8 27.8 0 0 1 4.715-2.574 27.687 27.687 0 0 1 10.907-2.219" fill-rule="evenodd" fill="url(&quot;#d&quot;)" transform="translate(-11.217 -11.217)" data-name="Path 944"/><path d="M171.915 138.138a33.57 33.57 0 0 0-13.169 2.666 33.82 33.82 0 0 0-10.714 7.23 33.797 33.797 0 0 0-7.23 10.714 33.574 33.574 0 0 0-2.665 13.169 33.576 33.576 0 0 0 5.778 18.896 34.083 34.083 0 0 0 4.117 4.987 34.043 34.043 0 0 0 4.987 4.117 33.758 33.758 0 0 0 5.727 3.112 33.57 33.57 0 0 0 13.169 2.665 33.57 33.57 0 0 0 13.169-2.665c2-.846 3.925-1.895 5.727-3.112a34.044 34.044 0 0 0 4.987-4.117 34.084 34.084 0 0 0 4.117-4.987 33.576 33.576 0 0 0 5.778-18.896 33.574 33.574 0 0 0-5.778-18.897 34.026 34.026 0 0 0-9.104-9.104 33.82 33.82 0 0 0-5.727-3.112 33.57 33.57 0 0 0-13.169-2.666m0-3.63c5.071 0 9.975 1.001 14.56 2.942a37.388 37.388 0 0 1 6.345 3.443 37.667 37.667 0 0 1 10.084 10.067 37.409 37.409 0 0 1 3.453 6.338 37.176 37.176 0 0 1 2.967 14.619c0 5.071-1.001 9.975-2.942 14.56a37.352 37.352 0 0 1-3.444 6.344 37.665 37.665 0 0 1-10.066 10.084 37.193 37.193 0 0 1-20.957 6.42 37.192 37.192 0 0 1-20.905-6.385 37.664 37.664 0 0 1-10.083-10.067 37.413 37.413 0 0 1-3.454-6.338 37.173 37.173 0 0 1-2.966-14.618 37.176 37.176 0 0 1 6.385-20.905 37.67 37.67 0 0 1 10.067-10.084 37.193 37.193 0 0 1 20.956-6.42" fill-rule="evenodd" fill="url(&quot;#e&quot;)" transform="translate(-10.416 -10.416)" data-name="Path 945"/><path d="M171.114 127.52a43.328 43.328 0 0 0-16.99 3.435 43.52 43.52 0 0 0-7.394 4.018 43.875 43.875 0 0 0-11.758 11.758 43.524 43.524 0 0 0-4.018 7.395 43.328 43.328 0 0 0-3.436 16.989c0 5.902 1.162 11.62 3.436 16.989a43.523 43.523 0 0 0 4.018 7.395 43.878 43.878 0 0 0 11.758 11.758 43.344 43.344 0 0 0 24.384 7.453 43.343 43.343 0 0 0 24.384-7.453 43.88 43.88 0 0 0 11.758-11.758 43.58 43.58 0 0 0 4.018-7.395 43.328 43.328 0 0 0 3.435-16.99c0-5.902-1.161-11.62-3.435-16.988a43.58 43.58 0 0 0-4.018-7.395 43.873 43.873 0 0 0-11.758-11.757 43.515 43.515 0 0 0-7.395-4.02 43.327 43.327 0 0 0-16.99-3.435m0-3.358a46.669 46.669 0 0 1 18.278 3.691 46.903 46.903 0 0 1 7.966 4.325 47.216 47.216 0 0 1 12.663 12.648 47.023 47.023 0 0 1 4.333 7.96 46.66 46.66 0 0 1 3.715 18.33 46.67 46.67 0 0 1-3.692 18.277 46.973 46.973 0 0 1-10.043 14.902 47.293 47.293 0 0 1-6.929 5.727 46.93 46.93 0 0 1-7.96 4.333 46.66 46.66 0 0 1-18.33 3.715 46.67 46.67 0 0 1-18.277-3.692 47.002 47.002 0 0 1-14.902-10.043 47.019 47.019 0 0 1-10.06-14.89 46.68 46.68 0 0 1-3.715-18.33 46.663 46.663 0 0 1 3.691-18.275 47.042 47.042 0 0 1 10.043-14.903 47.03 47.03 0 0 1 14.89-10.06 46.677 46.677 0 0 1 18.33-3.715" fill-rule="evenodd" fill="url(&quot;#f&quot;)" transform="translate(-9.615 -9.615)" data-name="Path 946"/><path d="M170.313 116.9c-7.227 0-14.23 1.42-20.809 4.206a53.376 53.376 0 0 0-9.064 4.924 53.771 53.771 0 0 0-14.411 14.41 53.482 53.482 0 0 0-4.924 9.065c-2.786 6.579-4.206 13.582-4.206 20.809 0 7.226 1.42 14.23 4.206 20.808a53.439 53.439 0 0 0 11.44 16.96 53.766 53.766 0 0 0 7.895 6.515 53.372 53.372 0 0 0 9.064 4.924c6.579 2.786 13.582 4.206 20.809 4.206 7.226 0 14.23-1.42 20.808-4.206a53.418 53.418 0 0 0 9.065-4.924 53.817 53.817 0 0 0 7.895-6.516 53.826 53.826 0 0 0 6.515-7.895 53.374 53.374 0 0 0 4.924-9.064c2.786-6.579 4.206-13.582 4.206-20.808 0-7.227-1.42-14.23-4.206-20.809a53.416 53.416 0 0 0-4.924-9.065 53.866 53.866 0 0 0-6.515-7.894 53.422 53.422 0 0 0-16.96-11.44c-6.579-2.786-13.582-4.206-20.808-4.206m0-3.086c7.645 0 15.047 1.504 21.992 4.441a56.52 56.52 0 0 1 9.589 5.205 56.951 56.951 0 0 1 8.35 6.885 56.58 56.58 0 0 1 12.106 17.927c2.95 6.958 4.462 14.378 4.462 22.042 0 7.645-1.504 15.047-4.441 21.992a56.52 56.52 0 0 1-5.205 9.589 56.891 56.891 0 0 1-15.229 15.242 56.58 56.58 0 0 1-9.584 5.214c-6.957 2.95-14.376 4.462-22.04 4.462-7.646 0-15.048-1.504-21.993-4.442a56.471 56.471 0 0 1-9.588-5.204 56.85 56.85 0 0 1-15.243-15.229 56.575 56.575 0 0 1-5.214-9.584c-2.95-6.957-4.462-14.377-4.462-22.04 0-7.646 1.504-15.048 4.442-21.992a56.519 56.519 0 0 1 12.09-17.939 56.581 56.581 0 0 1 17.926-12.107c6.958-2.95 14.377-4.462 22.042-4.462" fill-rule="evenodd" fill="url(&quot;#g&quot;)" transform="translate(-8.814 -8.814)" data-name="Path 947"/><path d="M169.511 106.28c-8.55 0-16.838 1.68-24.628 4.977a63.161 63.161 0 0 0-10.733 5.83 63.654 63.654 0 0 0-9.349 7.714 63.71 63.71 0 0 0-7.715 9.35 63.204 63.204 0 0 0-5.829 10.733c-3.298 7.79-4.977 16.077-4.977 24.628 0 8.55 1.679 16.839 4.977 24.629a63.238 63.238 0 0 0 5.829 10.733 63.658 63.658 0 0 0 17.064 17.064 63.16 63.16 0 0 0 10.733 5.828c7.79 3.299 16.078 4.978 24.628 4.978s16.839-1.68 24.629-4.978a63.206 63.206 0 0 0 10.733-5.828 63.715 63.715 0 0 0 9.35-7.716 63.313 63.313 0 0 0 13.544-20.081c3.297-7.79 4.976-16.078 4.976-24.629 0-8.551-1.68-16.838-4.977-24.628a63.279 63.279 0 0 0-5.83-10.734 63.764 63.764 0 0 0-7.714-9.349 63.705 63.705 0 0 0-9.349-7.714 63.206 63.206 0 0 0-10.733-5.83c-7.79-3.297-16.078-4.976-24.629-4.976m0-2.814c8.933 0 17.585 1.756 25.708 5.191a66.122 66.122 0 0 1 20.975 14.138 66.568 66.568 0 0 1 8.058 9.758 66.09 66.09 0 0 1 6.094 11.206c3.448 8.134 5.21 16.803 5.21 25.752 0 8.932-1.755 17.585-5.19 25.707a66.037 66.037 0 0 1-6.087 11.211 66.453 66.453 0 0 1-17.81 17.823 66.083 66.083 0 0 1-11.205 6.094c-8.135 3.447-16.803 5.21-25.753 5.21-8.932 0-17.585-1.755-25.707-5.192a65.965 65.965 0 0 1-11.21-6.085 66.515 66.515 0 0 1-9.765-8.052 66.511 66.511 0 0 1-8.059-9.758 65.994 65.994 0 0 1-6.092-11.206c-3.449-8.135-5.211-16.803-5.211-25.752 0-8.932 1.755-17.585 5.191-25.708a66.067 66.067 0 0 1 6.085-11.21 66.552 66.552 0 0 1 8.053-9.764 66.562 66.562 0 0 1 9.758-8.059 66.026 66.026 0 0 1 11.205-6.093c8.135-3.449 16.803-5.211 25.752-5.211" fill-rule="evenodd" fill="url(&quot;#h&quot;)" transform="translate(-8.012 -8.012)" data-name="Path 948"/><path d="M168.71 95.662c-9.874 0-19.447 1.938-28.448 5.747a73.001 73.001 0 0 0-12.402 6.735 73.54 73.54 0 0 0-19.717 19.718 73.029 73.029 0 0 0-6.735 12.401c-3.81 9-5.747 18.574-5.747 28.448 0 9.875 1.937 19.448 5.747 28.45a73.03 73.03 0 0 0 6.735 12.4 73.542 73.542 0 0 0 8.915 10.803 73.546 73.546 0 0 0 10.802 8.915 72.997 72.997 0 0 0 12.402 6.734c9 3.81 18.574 5.748 28.448 5.748 9.875 0 19.448-1.938 28.45-5.748a73.026 73.026 0 0 0 12.4-6.734 73.604 73.604 0 0 0 10.803-8.915 73.596 73.596 0 0 0 8.914-10.803 73.03 73.03 0 0 0 6.735-12.4c3.81-9.002 5.747-18.575 5.747-28.45 0-9.874-1.937-19.448-5.747-28.448a73.029 73.029 0 0 0-6.735-12.401 73.495 73.495 0 0 0-19.717-19.718 73.03 73.03 0 0 0-12.4-6.735c-9.002-3.809-18.575-5.747-28.45-5.747m0-2.541c10.22 0 20.122 2.007 29.423 5.941a75.577 75.577 0 0 1 12.833 6.967c4 2.702 7.76 5.802 11.178 9.219a75.702 75.702 0 0 1 16.198 24c3.945 9.313 5.958 19.23 5.958 29.463 0 10.22-2.006 20.122-5.941 29.423a75.612 75.612 0 0 1-6.965 12.833c-2.703 4-5.803 7.76-9.22 11.178a76.127 76.127 0 0 1-11.172 9.226 75.61 75.61 0 0 1-12.829 6.972c-9.312 3.946-19.228 5.96-29.463 5.96-10.22 0-20.122-2.007-29.423-5.942a75.58 75.58 0 0 1-12.833-6.966c-4-2.703-7.76-5.803-11.178-9.22a76.127 76.127 0 0 1-9.224-11.172 75.573 75.573 0 0 1-6.973-12.828c-3.946-9.312-5.959-19.229-5.959-29.464 0-10.22 2.007-20.121 5.941-29.423a75.64 75.64 0 0 1 6.966-12.833c2.702-4 5.803-7.76 9.219-11.178a76.191 76.191 0 0 1 11.173-9.224 75.499 75.499 0 0 1 12.828-6.973c9.312-3.946 19.228-5.959 29.463-5.959" fill-rule="evenodd" fill="url(&quot;#i&quot;)" transform="translate(-7.211 -7.211)" data-name="Path 949"/><path d="M167.909 85.043c-11.198 0-22.057 2.196-32.269 6.518a82.759 82.759 0 0 0-14.07 7.64 83.422 83.422 0 0 0-12.256 10.113A83.492 83.492 0 0 0 99.2 121.571a82.856 82.856 0 0 0-7.639 14.07c-4.322 10.212-6.518 21.07-6.518 32.269 0 11.199 2.196 22.056 6.518 32.268a82.82 82.82 0 0 0 7.64 14.07 83.49 83.49 0 0 0 10.114 12.257 83.49 83.49 0 0 0 12.256 10.114 82.887 82.887 0 0 0 14.07 7.64c10.212 4.321 21.07 6.518 32.269 6.518 11.199 0 22.056-2.197 32.268-6.518a82.885 82.885 0 0 0 14.07-7.64 83.55 83.55 0 0 0 12.257-10.114 83.546 83.546 0 0 0 10.114-12.257 82.885 82.885 0 0 0 7.64-14.07c4.321-10.212 6.518-21.07 6.518-32.268 0-11.2-2.197-22.057-6.518-32.269a82.922 82.922 0 0 0-7.64-14.07 83.548 83.548 0 0 0-10.114-12.257 83.481 83.481 0 0 0-12.257-10.113 82.757 82.757 0 0 0-14.07-7.64c-10.212-4.322-21.07-6.518-32.268-6.518m0-2.269c11.506 0 22.658 2.258 33.138 6.691a85.125 85.125 0 0 1 14.456 7.847 85.694 85.694 0 0 1 22.983 22.972 85.15 85.15 0 0 1 7.853 14.451c4.442 10.49 6.706 21.655 6.706 33.175 0 11.506-2.259 22.659-6.692 33.138a85.072 85.072 0 0 1-7.846 14.456 85.744 85.744 0 0 1-10.385 12.591 85.698 85.698 0 0 1-12.588 10.392 85.118 85.118 0 0 1-14.45 7.853c-10.49 4.442-21.655 6.706-33.175 6.706-11.506 0-22.658-2.259-33.139-6.692a85.092 85.092 0 0 1-14.455-7.846 85.791 85.791 0 0 1-12.591-10.385 85.814 85.814 0 0 1-10.392-12.588 85.178 85.178 0 0 1-7.852-14.45c-4.443-10.49-6.707-21.655-6.707-33.175 0-11.506 2.258-22.658 6.692-33.139a85.153 85.153 0 0 1 7.846-14.455 85.687 85.687 0 0 1 22.972-22.983 85.147 85.147 0 0 1 14.451-7.852c10.49-4.443 21.655-6.707 33.175-6.707" fill-rule="evenodd" fill="url(&quot;#j&quot;)" transform="translate(-6.41 -6.41)" data-name="Path 950"/><path d="M167.108 74.423c-12.523 0-24.666 2.455-36.09 7.29a92.644 92.644 0 0 0-15.737 8.544 93.372 93.372 0 0 0-13.711 11.314 92.785 92.785 0 0 0-19.858 29.45c-4.834 11.422-7.29 23.565-7.29 36.088 0 12.521 2.456 24.665 7.29 36.087a92.785 92.785 0 0 0 19.858 29.45 93.37 93.37 0 0 0 13.71 11.314 92.642 92.642 0 0 0 15.739 8.545c11.423 4.833 23.566 7.289 36.089 7.289 12.522 0 24.665-2.456 36.088-7.29a92.603 92.603 0 0 0 15.738-8.544 93.315 93.315 0 0 0 13.711-11.314 93.37 93.37 0 0 0 11.314-13.71 92.652 92.652 0 0 0 8.545-15.74c4.833-11.422 7.289-23.566 7.289-36.087 0-12.523-2.456-24.666-7.29-36.09a92.652 92.652 0 0 0-8.544-15.738 93.366 93.366 0 0 0-11.314-13.71 93.317 93.317 0 0 0-13.71-11.314 92.605 92.605 0 0 0-15.739-8.544c-11.423-4.835-23.566-7.29-36.088-7.29m0-1.996c12.793 0 25.195 2.51 36.854 7.441a94.7 94.7 0 0 1 16.078 8.727 95.303 95.303 0 0 1 25.562 25.554 94.663 94.663 0 0 1 8.732 16.074c4.94 11.667 7.455 24.08 7.455 36.886 0 12.793-2.51 25.195-7.441 36.853a94.703 94.703 0 0 1-8.727 16.078 95.373 95.373 0 0 1-11.553 14.005 95.364 95.364 0 0 1-14 11.558 94.672 94.672 0 0 1-16.075 8.732c-11.667 4.94-24.08 7.455-36.885 7.455-12.794 0-25.196-2.51-36.855-7.441a94.661 94.661 0 0 1-16.076-8.728 95.307 95.307 0 0 1-14.006-11.552 95.375 95.375 0 0 1-11.558-14.002 94.726 94.726 0 0 1-8.732-16.073c-4.94-11.668-7.455-24.08-7.455-36.885 0-12.794 2.51-25.196 7.442-36.855a94.64 94.64 0 0 1 8.727-16.077 95.414 95.414 0 0 1 11.552-14.006 95.359 95.359 0 0 1 14.002-11.557 94.67 94.67 0 0 1 16.074-8.733c11.666-4.94 24.08-7.454 36.885-7.454" fill-rule="evenodd" fill="url(&quot;#k&quot;)" transform="translate(-5.609 -5.609)" data-name="Path 951"/><path d="M166.306 63.804c-13.846 0-27.274 2.715-39.908 8.06a102.502 102.502 0 0 0-17.407 9.45 103.261 103.261 0 0 0-15.165 12.513 103.31 103.31 0 0 0-12.512 15.165 102.605 102.605 0 0 0-9.451 17.407c-5.345 12.635-8.06 26.063-8.06 39.91 0 13.845 2.715 27.273 8.06 39.907a102.615 102.615 0 0 0 21.963 32.571 103.26 103.26 0 0 0 15.165 12.514 102.423 102.423 0 0 0 17.407 9.45c12.634 5.345 26.062 8.06 39.908 8.06 13.847 0 27.275-2.715 39.909-8.06a102.464 102.464 0 0 0 17.407-9.45 103.255 103.255 0 0 0 15.165-12.514 103.256 103.256 0 0 0 12.512-15.164 102.49 102.49 0 0 0 9.45-17.407c5.346-12.634 8.06-26.062 8.06-39.908s-2.714-27.274-8.06-39.909a102.48 102.48 0 0 0-9.45-17.407 103.316 103.316 0 0 0-12.512-15.165 103.256 103.256 0 0 0-15.165-12.512 102.544 102.544 0 0 0-17.407-9.45c-12.634-5.346-26.062-8.06-39.909-8.06m0-1.724c14.08 0 27.733 2.761 40.57 8.191a104.26 104.26 0 0 1 17.7 9.608 105.019 105.019 0 0 1 15.42 12.72c4.713 4.713 8.994 9.898 12.722 15.414a104.229 104.229 0 0 1 9.612 17.698c5.438 12.845 8.204 26.505 8.204 40.596 0 14.08-2.762 27.732-8.192 40.57a104.282 104.282 0 0 1-9.607 17.7 104.93 104.93 0 0 1-12.72 15.418A104.939 104.939 0 0 1 224.6 252.72a104.343 104.343 0 0 1-17.696 9.612c-12.845 5.438-26.506 8.203-40.597 8.203-14.08 0-27.732-2.762-40.57-8.192a104.215 104.215 0 0 1-17.699-9.607 104.925 104.925 0 0 1-15.418-12.72 105.023 105.023 0 0 1-12.724-15.415 104.254 104.254 0 0 1-9.612-17.697c-5.438-12.845-8.203-26.506-8.203-40.596 0-14.08 2.761-27.732 8.191-40.57a104.276 104.276 0 0 1 9.607-17.7 104.992 104.992 0 0 1 12.72-15.418c4.714-4.716 9.9-8.995 15.415-12.724a104.283 104.283 0 0 1 17.697-9.612c12.845-5.437 26.506-8.203 40.596-8.203" fill-rule="evenodd" fill="url(&quot;#l&quot;)" transform="translate(-4.807 -4.807)" data-name="Path 952"/><path d="M165.505 53.185c-15.17 0-29.883 2.974-43.728 8.831a112.327 112.327 0 0 0-19.075 10.356 113.044 113.044 0 0 0-16.62 13.712 113.101 113.101 0 0 0-13.711 16.619 112.323 112.323 0 0 0-10.356 19.075c-5.857 13.845-8.83 28.558-8.83 43.728 0 15.17 2.973 29.884 8.83 43.729a112.332 112.332 0 0 0 10.356 19.075 113.146 113.146 0 0 0 13.712 16.62 113.16 113.16 0 0 0 16.619 13.712 112.327 112.327 0 0 0 19.075 10.355c13.845 5.857 28.558 8.831 43.728 8.831 15.17 0 29.884-2.974 43.729-8.83a112.37 112.37 0 0 0 19.075-10.356 113.201 113.201 0 0 0 16.619-13.713 113.087 113.087 0 0 0 13.712-16.619 112.2 112.2 0 0 0 10.355-19.075c5.858-13.845 8.831-28.558 8.831-43.729 0-15.17-2.973-29.883-8.83-43.728a112.192 112.192 0 0 0-10.356-19.075 113.042 113.042 0 0 0-13.712-16.62 113.085 113.085 0 0 0-16.619-13.711 112.371 112.371 0 0 0-19.075-10.356c-13.845-5.857-28.558-8.83-43.729-8.83m0-1.452c15.367 0 30.268 3.013 44.286 8.941a113.825 113.825 0 0 1 19.321 10.488 114.544 114.544 0 0 1 16.833 13.887 114.603 114.603 0 0 1 13.89 16.83 113.793 113.793 0 0 1 10.492 19.32c5.934 14.021 8.95 28.93 8.95 44.306 0 15.367-3.012 30.27-8.94 44.286a113.777 113.777 0 0 1-10.489 19.322 114.534 114.534 0 0 1-13.886 16.832 114.548 114.548 0 0 1-16.83 13.89 113.83 113.83 0 0 1-19.319 10.493c-14.023 5.933-28.932 8.95-44.308 8.95-15.367 0-30.268-3.013-44.285-8.941a113.733 113.733 0 0 1-19.322-10.489 114.533 114.533 0 0 1-16.833-13.885 114.541 114.541 0 0 1-13.889-16.83 113.762 113.762 0 0 1-10.491-19.32c-5.936-14.023-8.952-28.932-8.952-44.308 0-15.367 3.013-30.268 8.941-44.285A113.798 113.798 0 0 1 71.162 101.9 114.6 114.6 0 0 1 85.05 85.066a114.536 114.536 0 0 1 16.83-13.889 113.762 113.762 0 0 1 19.32-10.492c14.021-5.935 28.93-8.951 44.306-8.951" fill-rule="evenodd" fill="url(&quot;#m&quot;)" transform="translate(-4.006 -4.006)" data-name="Path 953"/><path d="M164.704 42.565c-16.495 0-32.493 3.233-47.548 9.602a122.085 122.085 0 0 0-20.744 11.26A123.051 123.051 0 0 0 78.34 78.34a123.094 123.094 0 0 0-14.912 18.073 122.227 122.227 0 0 0-11.26 20.745c-6.37 15.055-9.602 31.053-9.602 47.548 0 16.494 3.232 32.493 9.601 47.548a122.195 122.195 0 0 0 11.26 20.745A123.044 123.044 0 0 0 78.34 251.07a122.993 122.993 0 0 0 18.073 14.912 122.026 122.026 0 0 0 20.744 11.26c15.055 6.37 31.053 9.603 47.548 9.603 16.494 0 32.493-3.233 47.548-9.602a122.07 122.07 0 0 0 20.745-11.261 123.092 123.092 0 0 0 18.073-14.912 123.103 123.103 0 0 0 14.91-18.072 122.13 122.13 0 0 0 11.262-20.745c6.369-15.055 9.602-31.054 9.602-47.548 0-16.495-3.233-32.493-9.602-47.548a122.162 122.162 0 0 0-11.261-20.745A123.154 123.154 0 0 0 251.07 78.34a123.15 123.15 0 0 0-18.073-14.911 122.13 122.13 0 0 0-20.745-11.26c-15.055-6.37-31.054-9.603-47.548-9.603m0-1.178c16.654 0 32.805 3.264 48 9.692a123.283 123.283 0 0 1 20.945 11.368A124.15 124.15 0 0 1 251.895 77.5a124.208 124.208 0 0 1 15.056 18.244 123.276 123.276 0 0 1 11.372 20.942c6.433 15.2 9.699 31.358 9.699 48.019 0 16.654-3.264 32.805-9.692 48a123.343 123.343 0 0 1-11.368 20.945 124.16 124.16 0 0 1-15.053 18.246 124.16 124.16 0 0 1-18.245 15.056 123.243 123.243 0 0 1-20.942 11.372c-15.2 6.432-31.358 9.699-48.018 9.699-16.654 0-32.805-3.264-48.001-9.692a123.284 123.284 0 0 1-20.944-11.368 124.188 124.188 0 0 1-18.246-15.053 124.219 124.219 0 0 1-15.057-18.245 123.304 123.304 0 0 1-11.37-20.942c-6.432-15.2-9.7-31.357-9.7-48.018 0-16.654 3.265-32.805 9.692-48.001A123.347 123.347 0 0 1 62.446 95.76 124.156 124.156 0 0 1 77.5 77.514a124.153 124.153 0 0 1 18.243-15.057 123.309 123.309 0 0 1 20.942-11.371c15.2-6.432 31.357-9.699 48.019-9.699" fill-rule="evenodd" fill="url(&quot;#n&quot;)" transform="translate(-3.205 -3.205)" data-name="Path 954"/><path d="M163.903 31.946c-17.819 0-35.102 3.492-51.369 10.372a131.887 131.887 0 0 0-22.412 12.167 132.864 132.864 0 0 0-19.526 16.11 132.937 132.937 0 0 0-16.112 19.528 131.945 131.945 0 0 0-12.165 22.412c-6.881 16.267-10.373 33.55-10.373 51.369 0 17.818 3.492 35.101 10.373 51.368a131.944 131.944 0 0 0 12.165 22.413 132.984 132.984 0 0 0 16.112 19.527c5.97 5.97 12.54 11.39 19.526 16.11a131.946 131.946 0 0 0 22.412 12.166c16.267 6.881 33.55 10.372 51.369 10.372 17.818 0 35.101-3.49 51.368-10.372a131.948 131.948 0 0 0 22.413-12.166 132.93 132.93 0 0 0 19.527-16.11 132.975 132.975 0 0 0 16.11-19.527 131.951 131.951 0 0 0 12.167-22.413c6.88-16.267 10.372-33.55 10.372-51.368 0-17.82-3.492-35.102-10.372-51.369a131.953 131.953 0 0 0-12.167-22.412 132.929 132.929 0 0 0-16.11-19.527 132.872 132.872 0 0 0-19.527-16.11 131.889 131.889 0 0 0-22.413-12.168c-16.267-6.88-33.55-10.372-51.368-10.372m0-.906c17.94 0 35.342 3.516 51.716 10.442a132.799 132.799 0 0 1 22.567 12.248 133.823 133.823 0 0 1 19.66 16.22 133.822 133.822 0 0 1 16.222 19.659c4.799 7.1 8.92 14.693 12.251 22.565 6.93 16.378 10.448 33.783 10.448 51.73 0 17.94-3.517 35.341-10.442 51.716a132.84 132.84 0 0 1-12.25 22.566 133.816 133.816 0 0 1-16.219 19.66 133.828 133.828 0 0 1-19.658 16.223 132.958 132.958 0 0 1-22.565 12.251c-16.379 6.929-33.784 10.446-51.73 10.446-17.941 0-35.343-3.515-51.716-10.44a132.829 132.829 0 0 1-22.566-12.25 133.822 133.822 0 0 1-19.66-16.22 133.777 133.777 0 0 1-16.223-19.658 132.85 132.85 0 0 1-12.25-22.565c-6.93-16.378-10.448-33.784-10.448-51.73 0-17.94 3.515-35.342 10.442-51.716A132.886 132.886 0 0 1 53.729 89.62 133.839 133.839 0 0 1 69.95 69.96a133.714 133.714 0 0 1 19.659-16.222c7.1-4.8 14.692-8.921 22.564-12.252 16.378-6.93 33.783-10.447 51.73-10.447" fill-rule="evenodd" fill="url(&quot;#o&quot;)" transform="translate(-2.404 -2.404)" data-name="Path 955"/><path d="M163.101 21.328c-19.142 0-37.71 3.75-55.187 11.143a141.678 141.678 0 0 0-24.082 13.071 142.764 142.764 0 0 0-20.98 17.31 142.826 142.826 0 0 0-17.31 20.981 141.876 141.876 0 0 0-13.072 24.082c-7.393 17.477-11.143 36.045-11.143 55.188s3.75 37.711 11.143 55.188a141.911 141.911 0 0 0 13.071 24.082 142.825 142.825 0 0 0 17.311 20.98 142.76 142.76 0 0 0 20.98 17.31 141.74 141.74 0 0 0 24.082 13.071c17.477 7.394 36.045 11.144 55.187 11.144 19.143 0 37.711-3.75 55.189-11.144 8.4-3.552 16.502-7.95 24.08-13.07a142.815 142.815 0 0 0 20.982-17.31 142.815 142.815 0 0 0 17.31-20.981 141.72 141.72 0 0 0 13.071-24.082c7.393-17.477 11.144-36.045 11.144-55.188s-3.751-37.711-11.144-55.188a141.685 141.685 0 0 0-13.071-24.082 142.816 142.816 0 0 0-17.31-20.98 142.82 142.82 0 0 0-20.981-17.31A141.703 141.703 0 0 0 218.29 32.47c-17.478-7.393-36.046-11.143-55.189-11.143m0-.634c19.228 0 37.879 3.767 55.433 11.19a142.513 142.513 0 0 1 24.188 13.13 143.49 143.49 0 0 1 21.074 17.387 143.44 143.44 0 0 1 17.388 21.073 142.349 142.349 0 0 1 13.131 24.188c7.427 17.555 11.196 36.21 11.196 55.441 0 19.227-3.767 37.879-11.192 55.432a142.378 142.378 0 0 1-13.13 24.188 143.338 143.338 0 0 1-17.386 21.074 143.39 143.39 0 0 1-21.073 17.389 142.371 142.371 0 0 1-24.188 13.13c-17.556 7.427-36.209 11.196-55.44 11.196-19.229 0-37.88-3.767-55.432-11.192a142.368 142.368 0 0 1-24.188-13.129 143.44 143.44 0 0 1-21.074-17.386 143.434 143.434 0 0 1-17.389-21.073 142.536 142.536 0 0 1-13.13-24.188c-7.426-17.556-11.196-36.21-11.196-55.44 0-19.23 3.767-37.88 11.192-55.433a142.435 142.435 0 0 1 13.129-24.188A143.394 143.394 0 0 1 62.4 62.409 143.387 143.387 0 0 1 83.473 45.02a142.409 142.409 0 0 1 24.188-13.13c17.555-7.427 36.209-11.196 55.44-11.196" fill-rule="evenodd" fill="url(&quot;#p&quot;)" transform="translate(-1.602 -1.603)" data-name="Path 956"/><path d="M162.3 10.708c-20.466 0-40.32 4.01-59.008 11.915a151.568 151.568 0 0 0-25.75 13.976A152.642 152.642 0 0 0 55.11 55.11a152.72 152.72 0 0 0-18.512 22.435 151.628 151.628 0 0 0-13.975 25.75c-7.906 18.688-11.914 38.541-11.914 59.007 0 20.467 4.008 40.32 11.914 59.008a151.634 151.634 0 0 0 13.975 25.75 152.768 152.768 0 0 0 18.512 22.436 152.7 152.7 0 0 0 22.434 18.509 151.565 151.565 0 0 0 25.75 13.977c18.688 7.904 38.541 11.914 59.007 11.914 20.467 0 40.32-4.01 59.008-11.914a151.53 151.53 0 0 0 25.75-13.977 152.706 152.706 0 0 0 22.435-18.51 152.757 152.757 0 0 0 18.51-22.434 151.638 151.638 0 0 0 13.978-25.75c7.903-18.69 11.913-38.542 11.913-59.009 0-20.466-4.01-40.32-11.913-59.008a151.632 151.632 0 0 0-13.978-25.75 152.71 152.71 0 0 0-18.51-22.434 152.648 152.648 0 0 0-22.435-18.51 151.533 151.533 0 0 0-25.75-13.976c-18.688-7.906-38.54-11.915-59.008-11.915m0-.361c20.515 0 40.416 4.019 59.147 11.942a151.884 151.884 0 0 1 25.811 14.01 153.008 153.008 0 0 1 22.488 18.553 152.962 152.962 0 0 1 18.555 22.488 152.044 152.044 0 0 1 14.01 25.81c7.925 18.733 11.943 38.635 11.943 59.151 0 20.515-4.018 40.416-11.94 59.147a152.057 152.057 0 0 1-14.01 25.812 152.997 152.997 0 0 1-18.554 22.487 152.94 152.94 0 0 1-22.487 18.555 151.958 151.958 0 0 1-25.81 14.01c-18.734 7.925-38.636 11.944-59.153 11.944-20.515 0-40.415-4.018-59.147-11.941a151.983 151.983 0 0 1-25.81-14.01 153.1 153.1 0 0 1-22.489-18.554A153 153 0 0 1 36.3 247.264a152.055 152.055 0 0 1-14.01-25.81c-7.924-18.734-11.944-38.636-11.944-59.153 0-20.515 4.019-40.415 11.942-59.147a152.081 152.081 0 0 1 14.009-25.81A153.073 153.073 0 0 1 54.85 54.854 153 153 0 0 1 77.34 36.301a151.916 151.916 0 0 1 25.81-14.01c18.733-7.924 38.634-11.944 59.151-11.944" fill-rule="evenodd" fill="url(&quot;#q&quot;)" transform="translate(-.801 -.801)" data-name="Path 957"/><path d="M161.5.089c-21.79 0-42.93 4.268-62.83 12.685a161.353 161.353 0 0 0-27.417 14.882 162.602 162.602 0 0 0-23.889 19.71 162.53 162.53 0 0 0-19.708 23.887 161.466 161.466 0 0 0-14.883 27.419C4.357 118.572.089 139.709.089 161.5c0 21.79 4.268 42.929 12.684 62.828a161.466 161.466 0 0 0 14.883 27.419 162.583 162.583 0 0 0 19.708 23.889 162.653 162.653 0 0 0 23.89 19.708 161.287 161.287 0 0 0 27.417 14.882c19.9 8.417 41.038 12.685 62.828 12.685 21.791 0 42.929-4.268 62.828-12.685a161.332 161.332 0 0 0 27.419-14.882 162.649 162.649 0 0 0 23.888-19.708 162.59 162.59 0 0 0 19.71-23.89 161.335 161.335 0 0 0 14.882-27.418c8.416-19.9 12.685-41.037 12.685-62.828 0-21.791-4.27-42.929-12.685-62.828a161.335 161.335 0 0 0-14.883-27.419 162.536 162.536 0 0 0-19.71-23.888 162.597 162.597 0 0 0-23.887-19.71 161.398 161.398 0 0 0-27.419-14.881C204.427 4.357 183.29.089 161.5.089m0 322.91c-21.802 0-42.952-4.269-62.862-12.69a161.505 161.505 0 0 1-27.434-14.89 162.664 162.664 0 0 1-23.901-19.722 162.802 162.802 0 0 1-19.721-23.901 161.561 161.561 0 0 1-14.89-27.434C4.27 204.452.002 183.302.002 161.5s4.269-42.952 12.69-62.862c4.049-9.57 9.058-18.8 14.89-27.434a162.8 162.8 0 0 1 19.72-23.901 162.663 162.663 0 0 1 23.902-19.721 161.501 161.501 0 0 1 27.434-14.89C118.547 4.27 139.697 0 161.499 0s42.953 4.27 62.863 12.692c9.57 4.047 18.8 9.057 27.433 14.89a162.567 162.567 0 0 1 23.902 19.72 162.566 162.566 0 0 1 19.72 23.902 161.504 161.504 0 0 1 14.891 27.434C318.73 118.548 323 139.698 323 161.5s-4.27 42.953-12.69 62.862a161.503 161.503 0 0 1-14.892 27.434 162.567 162.567 0 0 1-19.72 23.901 162.568 162.568 0 0 1-23.902 19.721 161.506 161.506 0 0 1-27.433 14.891c-19.91 8.421-41.06 12.69-62.863 12.69" fill-rule="evenodd" fill="url(&quot;#r&quot;)" data-name="Path 958"/></g></g><g data-name="Group 251"><g data-name="Group 250" transform="translate(889.227 1640.728)" clip-path="url(&quot;#s&quot;)"><path d="M0 0h17.544v17.543H0V0z" fill-rule="evenodd" fill="url(&quot;#t&quot;)" data-name="Rectangle 212"/></g></g><g data-name="Group 253"><g data-name="Group 252" transform="translate(879.682 1631.182)" clip-path="url(&quot;#u&quot;)"><path d="M0 0h36.634v36.635H0V0z" fill-rule="evenodd" fill="url(&quot;#v&quot;)" data-name="Rectangle 213"/></g></g><g data-name="Group 255"><g data-name="Group 254" transform="translate(870.137 1621.637)" clip-path="url(&quot;#w&quot;)"><path d="M0 0h55.726v55.726H0V0z" fill-rule="evenodd" fill="url(&quot;#x&quot;)" data-name="Rectangle 214"/></g></g><g data-name="Group 257"><g data-name="Group 256" transform="translate(860.591 1612.092)" clip-path="url(&quot;#y&quot;)"><path d="M0 0h74.817v74.816H0V0z" fill-rule="evenodd" fill="url(&quot;#z&quot;)" data-name="Rectangle 215"/></g></g><g data-name="Group 259"><g data-name="Group 258" transform="translate(851.045 1602.546)" clip-path="url(&quot;#A&quot;)"><path d="M0 0h93.908v93.908H0V0z" fill-rule="evenodd" fill="url(&quot;#B&quot;)" data-name="Rectangle 216"/></g></g><g data-name="Group 261"><g data-name="Group 260" transform="translate(841.5 1593)" clip-path="url(&quot;#C&quot;)"><path d="M0 0h112.999v112.999H0V0z" fill-rule="evenodd" fill="url(&quot;#D&quot;)" data-name="Rectangle 217"/></g></g><g data-name="Group 263"><g data-name="Group 262" transform="translate(831.955 1583.455)" clip-path="url(&quot;#E&quot;)"><path d="M0 0h132.09v132.09H0V0z" fill-rule="evenodd" fill="url(&quot;#F&quot;)" data-name="Rectangle 218"/></g></g><g data-name="Group 265"><g data-name="Group 264" transform="translate(822.409 1573.91)" clip-path="url(&quot;#G&quot;)"><path d="M0 0h151.18v151.181H0V0z" fill-rule="evenodd" fill="url(&quot;#H&quot;)" data-name="Rectangle 219"/></g></g><g data-name="Group 267"><g data-name="Group 266" transform="translate(812.864 1564.364)" clip-path="url(&quot;#I&quot;)"><path d="M0 0h170.272v170.272H0V0z" fill-rule="evenodd" fill="url(&quot;#J&quot;)" data-name="Rectangle 220"/></g></g><g data-name="Group 269"><g data-name="Group 268" transform="translate(803.318 1554.818)" clip-path="url(&quot;#K&quot;)"><path d="M0 0h189.362v189.363H0V0z" fill-rule="evenodd" fill="url(&quot;#L&quot;)" data-name="Rectangle 221"/></g></g><g data-name="Group 271"><g data-name="Group 270" transform="translate(793.773 1545.274)" clip-path="url(&quot;#M&quot;)"><path d="M0 0h208.454v208.454H0V0z" fill-rule="evenodd" fill="url(&quot;#N&quot;)" data-name="Rectangle 222"/></g></g><g data-name="Group 273"><g data-name="Group 272" transform="translate(784.228 1535.728)" clip-path="url(&quot;#O&quot;)"><path d="M0 0h227.544v227.544H0V0z" fill-rule="evenodd" fill="url(&quot;#P&quot;)" data-name="Rectangle 223"/></g></g><g data-name="Group 275"><g data-name="Group 274" transform="translate(774.682 1526.182)" clip-path="url(&quot;#Q&quot;)"><path d="M0 0h246.635v246.636H0V0z" fill-rule="evenodd" fill="url(&quot;#R&quot;)" data-name="Rectangle 224"/></g></g><g data-name="Group 277"><g data-name="Group 276" transform="translate(765.136 1516.636)" clip-path="url(&quot;#S&quot;)"><path d="M0 0h265.727v265.727H0V0z" fill-rule="evenodd" fill="url(&quot;#T&quot;)" data-name="Rectangle 225"/></g></g><g data-name="Group 279"><g data-name="Group 278" transform="translate(755.591 1507.091)" clip-path="url(&quot;#U&quot;)"><path d="M0 0h284.817v284.817H0V0z" fill-rule="evenodd" fill="url(&quot;#V&quot;)" data-name="Rectangle 226"/></g></g><g data-name="Group 281"><g data-name="Group 280" transform="translate(746.045 1497.546)" clip-path="url(&quot;#W&quot;)"><path d="M0 0h303.908v303.91H0V0z" fill-rule="evenodd" fill="url(&quot;#X&quot;)" data-name="Rectangle 227"/></g></g><g data-name="Group 283"><g data-name="Group 282" transform="translate(736.5 1488)" clip-path="url(&quot;#Y&quot;)"><path d="M0 0h323v323H0V0z" fill-rule="evenodd" fill="url(&quot;#Z&quot;)" data-name="Rectangle 228"/></g></g></g><defs><radialGradient fx=".5" fy=".5" cx=".5" cy=".5" fr="0" r="1.851" gradientTransform="rotate(-44.526 .5 .5)" id="b"><stop stop-color="#c00" offset="0"/><stop offset="1"/></radialGradient><radialGradient fx=".5" fy=".5" cx=".5" cy=".5" fr="0" r="1.851" gradientTransform="rotate(-44.526 .5 .5)" id="c"><stop stop-color="#c00" offset="0"/><stop offset="1"/></radialGradient><radialGradient fx=".5" fy=".5" cx=".5" cy=".5" fr="0" r="1.851" gradientTransform="rotate(-44.526 .5 .5)" id="d"><stop stop-color="#c00" offset="0"/><stop offset="1"/></radialGradient><radialGradient fx=".5" fy=".5" cx=".5" cy=".5" fr="0" r="1.851" gradientTransform="rotate(-44.526 .5 .5)" id="e"><stop stop-color="#c00" offset="0"/><stop offset="1"/></radialGradient><radialGradient fx=".5" fy=".5" cx=".5" cy=".5" fr="0" r="1.851" gradientTransform="rotate(-44.526 .5 .5)" id="f"><stop stop-color="#c00" offset="0"/><stop offset="1"/></radialGradient><radialGradient fx=".5" fy=".5" cx=".5" cy=".5" fr="0" r="1.851" gradientTransform="rotate(-44.526 .5 .5)" id="g"><stop stop-color="#c00" offset="0"/><stop offset="1"/></radialGradient><radialGradient fx=".5" fy=".5" cx=".5" cy=".5" fr="0" r="1.851" gradientTransform="rotate(-44.526 .5 .5)" id="h"><stop stop-color="#c00" offset="0"/><stop offset="1"/></radialGradient><radialGradient fx=".5" fy=".5" cx=".5" cy=".5" fr="0" r="1.851" gradientTransform="rotate(-44.526 .5 .5)" id="i"><stop stop-color="#c00" offset="0"/><stop offset="1"/></radialGradient><radialGradient fx=".5" fy=".5" cx=".5" cy=".5" fr="0" r="1.851" gradientTransform="rotate(-44.526 .5 .5)" id="j"><stop stop-color="#c00" offset="0"/><stop offset="1"/></radialGradient><radialGradient fx=".5" fy=".5" cx=".5" cy=".5" fr="0" r="1.851" gradientTransform="rotate(-44.526 .5 .5)" id="k"><stop stop-color="#c00" offset="0"/><stop offset="1"/></radialGradient><radialGradient fx=".5" fy=".5" cx=".5" cy=".5" fr="0" r="1.851" gradientTransform="rotate(-44.526 .5 .5)" id="l"><stop stop-color="#c00" offset="0"/><stop offset="1"/></radialGradient><radialGradient fx=".5" fy=".5" cx=".5" cy=".5" fr="0" r="1.851" gradientTransform="rotate(-44.526 .5 .5)" id="m"><stop stop-color="#c00" offset="0"/><stop offset="1"/></radialGradient><radialGradient fx=".5" fy=".5" cx=".5" cy=".5" fr="0" r="1.851" gradientTransform="rotate(-44.526 .5 .5)" id="n"><stop stop-color="#c00" offset="0"/><stop offset="1"/></radialGradient><radialGradient fx=".5" fy=".5" cx=".5" cy=".5" fr="0" r="1.851" gradientTransform="rotate(-44.526 .5 .5)" id="o"><stop stop-color="#c00" offset="0"/><stop offset="1"/></radialGradient><radialGradient fx=".5" fy=".5" cx=".5" cy=".5" fr="0" r="1.851" gradientTransform="rotate(-44.526 .5 .5)" id="p"><stop stop-color="#c00" offset="0"/><stop offset="1"/></radialGradient><radialGradient fx=".5" fy=".5" cx=".5" cy=".5" fr="0" r="1.851" gradientTransform="rotate(-44.526 .5 .5)" id="q"><stop stop-color="#c00" offset="0"/><stop offset="1"/></radialGradient><radialGradient fx=".5" fy=".5" cx=".5" cy=".5" fr="0" r="1.851" gradientTransform="rotate(-44.526 .5 .5)" id="r"><stop stop-color="#c00" offset="0"/><stop offset="1"/></radialGradient><radialGradient fx=".5" fy=".5" cx=".5" cy=".5" fr="0" r="1.851" gradientTransform="rotate(-44.526 .5 .5)" id="t"><stop stop-color="#c00" offset="0"/><stop offset="1"/></radialGradient><radialGradient fx=".5" fy=".5" cx=".5" cy=".5" fr="0" r="1.851" gradientTransform="rotate(-44.526 .5 .5)" id="v"><stop stop-color="#c00" offset="0"/><stop offset="1"/></radialGradient><radialGradient fx=".5" fy=".5" cx=".5" cy=".5" fr="0" r="1.851" gradientTransform="rotate(-44.526 .5 .5)" id="x"><stop stop-color="#c00" offset="0"/><stop offset="1"/></radialGradient><radialGradient fx=".5" fy=".5" cx=".5" cy=".5" fr="0" r="1.851" gradientTransform="rotate(-44.526 .5 .5)" id="z"><stop stop-color="#c00" offset="0"/><stop offset="1"/></radialGradient><radialGradient fx=".5" fy=".5" cx=".5" cy=".5" fr="0" r="1.851" gradientTransform="rotate(-44.526 .5 .5)" id="B"><stop stop-color="#c00" offset="0"/><stop offset="1"/></radialGradient><radialGradient fx=".5" fy=".5" cx=".5" cy=".5" fr="0" r="1.851" gradientTransform="rotate(-44.526 .5 .5)" id="D"><stop stop-color="#c00" offset="0"/><stop offset="1"/></radialGradient><radialGradient fx=".5" fy=".5" cx=".5" cy=".5" fr="0" r="1.851" gradientTransform="rotate(-44.526 .5 .5)" id="F"><stop stop-color="#c00" offset="0"/><stop offset="1"/></radialGradient><radialGradient fx=".5" fy=".5" cx=".5" cy=".5" fr="0" r="1.851" gradientTransform="rotate(-44.526 .5 .5)" id="H"><stop stop-color="#c00" offset="0"/><stop offset="1"/></radialGradient><radialGradient fx=".5" fy=".5" cx=".5" cy=".5" fr="0" r="1.851" gradientTransform="rotate(-44.526 .5 .5)" id="J"><stop stop-color="#c00" offset="0"/><stop offset="1"/></radialGradient><radialGradient fx=".5" fy=".5" cx=".5" cy=".5" fr="0" r="1.851" gradientTransform="rotate(-44.526 .5 .5)" id="L"><stop stop-color="#c00" offset="0"/><stop offset="1"/></radialGradient><radialGradient fx=".5" fy=".5" cx=".5" cy=".5" fr="0" r="1.851" gradientTransform="rotate(-44.526 .5 .5)" id="N"><stop stop-color="#c00" offset="0"/><stop offset="1"/></radialGradient><radialGradient fx=".5" fy=".5" cx=".5" cy=".5" fr="0" r="1.851" gradientTransform="rotate(-44.526 .5 .5)" id="P"><stop stop-color="#c00" offset="0"/><stop offset="1"/></radialGradient><radialGradient fx=".5" fy=".5" cx=".5" cy=".5" fr="0" r="1.851" gradientTransform="rotate(-44.526 .5 .5)" id="R"><stop stop-color="#c00" offset="0"/><stop offset="1"/></radialGradient><radialGradient fx=".5" fy=".5" cx=".5" cy=".5" fr="0" r="1.851" gradientTransform="rotate(-44.526 .5 .5)" id="T"><stop stop-color="#c00" offset="0"/><stop offset="1"/></radialGradient><radialGradient fx=".5" fy=".5" cx=".5" cy=".5" fr="0" r="1.851" gradientTransform="rotate(-44.526 .5 .5)" id="V"><stop stop-color="#c00" offset="0"/><stop offset="1"/></radialGradient><radialGradient fx=".5" fy=".5" cx=".5" cy=".5" fr="0" r="1.851" gradientTransform="rotate(-44.526 .5 .5)" id="X"><stop stop-color="#c00" offset="0"/><stop offset="1"/></radialGradient><radialGradient fx=".5" fy=".5" cx=".5" cy=".5" fr="0" r="1.851" gradientTransform="rotate(-44.526 .5 .5)" id="Z"><stop stop-color="#c00" offset="0"/><stop offset="1"/></radialGradient><clipPath id="a"><path d="M0 0h322.999v323H0V0z" data-name="Rectangle 211"/></clipPath><clipPath id="s"><path d="M169.996 174.32a4.329 4.329 0 0 1 4.323-4.324 4.33 4.33 0 0 1 4.325 4.324 4.33 4.33 0 0 1-4.325 4.324 4.329 4.329 0 0 1-4.323-4.324m-4.449 0c0 4.837 3.935 8.771 8.772 8.771 4.838 0 8.772-3.934 8.772-8.771 0-4.838-3.934-8.772-8.772-8.772-4.837 0-8.772 3.934-8.772 8.772" data-name="Path 959" transform="translate(-165.547 -165.548)"/></clipPath><clipPath id="u"><path d="M167.989 186.538a14.208 14.208 0 0 1-7.49-7.49 14.063 14.063 0 0 1-1.122-5.53 14.059 14.059 0 0 1 2.424-7.919 14.277 14.277 0 0 1 3.798-3.796 14.067 14.067 0 0 1 7.918-2.426 14.064 14.064 0 0 1 7.92 2.426 14.198 14.198 0 0 1 5.1 6.187 14.058 14.058 0 0 1 1.123 5.528 14.063 14.063 0 0 1-2.426 7.92 14.264 14.264 0 0 1-3.796 3.797 14.063 14.063 0 0 1-7.92 2.425c-1.93 0-3.794-.384-5.53-1.122m-1.666-29.866a18.32 18.32 0 0 0-3.093 1.694 18.483 18.483 0 0 0-2.686 2.227 18.556 18.556 0 0 0-2.218 2.696 18.212 18.212 0 0 0-3.124 10.23 18.205 18.205 0 0 0 3.164 10.288 18.4 18.4 0 0 0 4.923 4.905 18.19 18.19 0 0 0 3.1 1.682 18.195 18.195 0 0 0 7.13 1.442 18.228 18.228 0 0 0 10.289-3.164 18.39 18.39 0 0 0 6.587-8.023 18.214 18.214 0 0 0 1.441-7.13 18.227 18.227 0 0 0-3.164-10.289 18.445 18.445 0 0 0-4.924-4.904 18.213 18.213 0 0 0-10.23-3.125c-2.523 0-4.949.51-7.195 1.47" data-name="Path 960" transform="translate(-155.201 -155.201)"/></clipPath><clipPath id="w"><path d="M163.368 194.783a23.905 23.905 0 0 1-4.06-2.208 24.149 24.149 0 0 1-6.45-6.45 23.816 23.816 0 0 1-4.102-13.408 23.815 23.815 0 0 1 4.103-13.407 24.158 24.158 0 0 1 6.45-6.45 23.963 23.963 0 0 1 4.059-2.209 23.812 23.812 0 0 1 9.348-1.894 23.82 23.82 0 0 1 13.409 4.102 24.158 24.158 0 0 1 6.45 6.45 23.999 23.999 0 0 1 2.208 4.06 23.816 23.816 0 0 1 1.894 9.348 23.817 23.817 0 0 1-4.102 13.408 24.15 24.15 0 0 1-6.45 6.45 23.82 23.82 0 0 1-13.409 4.102c-3.254 0-6.402-.644-9.348-1.894m-1.56-47.71a27.787 27.787 0 0 0-4.713 2.574 28.054 28.054 0 0 0-7.487 7.503 27.705 27.705 0 0 0-4.754 15.567 27.704 27.704 0 0 0 4.792 15.623 28.107 28.107 0 0 0 7.503 7.486 27.749 27.749 0 0 0 15.567 4.754c3.81 0 7.484-.759 10.909-2.218a27.877 27.877 0 0 0 8.815-5.968 28.04 28.04 0 0 0 3.385-4.109 27.703 27.703 0 0 0 4.756-15.568 27.712 27.712 0 0 0-4.793-15.622 28.182 28.182 0 0 0-3.394-4.101 27.878 27.878 0 0 0-8.832-5.948 27.683 27.683 0 0 0-10.846-2.192c-3.808 0-7.483.76-10.907 2.219" data-name="Path 961" transform="translate(-144.854 -144.854)"/></clipPath><clipPath id="y"><path d="M158.746 203.03c-1.999-.847-3.925-1.896-5.727-3.114a33.967 33.967 0 0 1-9.103-9.104 33.578 33.578 0 0 1-5.779-18.896c0-4.579.903-9.012 2.666-13.169.846-1.999 1.894-3.925 3.113-5.727a33.935 33.935 0 0 1 14.83-12.216 33.56 33.56 0 0 1 13.169-2.666c4.58 0 9.012.903 13.169 2.666 2 .847 3.926 1.894 5.728 3.112a33.992 33.992 0 0 1 9.104 9.104 33.853 33.853 0 0 1 3.112 5.727 33.553 33.553 0 0 1 2.665 13.169 33.56 33.56 0 0 1-2.665 13.17 33.841 33.841 0 0 1-7.229 10.713 33.926 33.926 0 0 1-4.987 4.117 33.706 33.706 0 0 1-5.728 3.113 33.567 33.567 0 0 1-13.169 2.666c-4.578 0-9.01-.903-13.169-2.666m-1.449-65.555a37.35 37.35 0 0 0-6.338 3.454 37.723 37.723 0 0 0-10.067 10.083 37.2 37.2 0 0 0-6.385 20.905 37.194 37.194 0 0 0 6.42 20.957 37.663 37.663 0 0 0 10.083 10.066 37.195 37.195 0 0 0 20.905 6.385 37.194 37.194 0 0 0 20.957-6.42 37.673 37.673 0 0 0 10.067-10.083 37.482 37.482 0 0 0 3.443-6.343 37.168 37.168 0 0 0 2.942-14.562c0-5.093-1.01-10.017-2.967-14.619a37.334 37.334 0 0 0-3.453-6.337 37.675 37.675 0 0 0-10.083-10.067 37.181 37.181 0 0 0-20.906-6.385 37.172 37.172 0 0 0-14.618 2.966" data-name="Path 962" transform="translate(-134.507 -134.508)"/></clipPath><clipPath id="A"><path d="M154.126 211.276a43.723 43.723 0 0 1-7.396-4.019 43.92 43.92 0 0 1-11.758-11.757 43.69 43.69 0 0 1-4.018-7.396 43.327 43.327 0 0 1-3.435-16.99c0-5.902 1.16-11.62 3.435-16.987a43.666 43.666 0 0 1 9.335-13.838 43.914 43.914 0 0 1 6.44-5.316 43.528 43.528 0 0 1 7.397-4.018 43.306 43.306 0 0 1 16.988-3.436c5.902 0 11.621 1.16 16.989 3.436a43.524 43.524 0 0 1 7.396 4.018 43.874 43.874 0 0 1 11.757 11.757 43.667 43.667 0 0 1 4.019 7.397 43.32 43.32 0 0 1 3.435 16.988c0 5.902-1.161 11.62-3.435 16.989a43.692 43.692 0 0 1-9.335 13.836 43.719 43.719 0 0 1-13.838 9.335 43.34 43.34 0 0 1-16.988 3.435 43.34 43.34 0 0 1-16.988-3.434m-1.342-83.4a46.986 46.986 0 0 0-7.96 4.332 47.247 47.247 0 0 0-12.648 12.664 47.016 47.016 0 0 0-4.324 7.967 46.663 46.663 0 0 0-3.692 18.276c0 6.378 1.261 12.55 3.715 18.33a46.953 46.953 0 0 0 4.333 7.96 47.284 47.284 0 0 0 5.727 6.93 47.337 47.337 0 0 0 6.937 5.718 46.97 46.97 0 0 0 7.966 4.324 46.682 46.682 0 0 0 18.276 3.692c6.38 0 12.551-1.26 18.33-3.715a46.963 46.963 0 0 0 7.961-4.333 47.282 47.282 0 0 0 12.647-12.663 46.942 46.942 0 0 0 4.324-7.966 46.67 46.67 0 0 0 3.692-18.277 46.684 46.684 0 0 0-8.047-26.29 47.282 47.282 0 0 0-12.663-12.648 47.01 47.01 0 0 0-7.967-4.325 46.666 46.666 0 0 0-18.277-3.691 46.68 46.68 0 0 0-18.33 3.714" data-name="Path 963" transform="translate(-124.16 -124.161)"/></clipPath><clipPath id="C"><path d="M149.505 219.521a53.416 53.416 0 0 1-9.065-4.924 53.868 53.868 0 0 1-7.895-6.515 53.87 53.87 0 0 1-6.515-7.895 53.421 53.421 0 0 1-4.924-9.065c-2.787-6.579-4.207-13.582-4.207-20.808 0-7.227 1.42-14.23 4.207-20.809a53.377 53.377 0 0 1 4.924-9.064 53.875 53.875 0 0 1 6.515-7.896 53.87 53.87 0 0 1 7.895-6.515 53.42 53.42 0 0 1 9.065-4.924c6.578-2.785 13.582-4.206 20.808-4.206 7.227 0 14.23 1.42 20.809 4.206a53.412 53.412 0 0 1 9.064 4.924 53.872 53.872 0 0 1 7.895 6.515 53.814 53.814 0 0 1 6.515 7.896 53.379 53.379 0 0 1 4.924 9.064c2.786 6.579 4.206 13.582 4.206 20.809 0 7.226-1.42 14.23-4.206 20.808a53.423 53.423 0 0 1-4.924 9.065 53.809 53.809 0 0 1-6.515 7.895 53.871 53.871 0 0 1-7.895 6.515 53.407 53.407 0 0 1-9.064 4.924c-6.579 2.786-13.582 4.207-20.81 4.207-7.225 0-14.229-1.42-20.807-4.207m-1.232-101.245a56.51 56.51 0 0 0-9.584 5.214 56.899 56.899 0 0 0-15.23 15.243 56.618 56.618 0 0 0-5.204 9.589c-2.937 6.944-4.441 14.346-4.441 21.992 0 7.664 1.511 15.083 4.462 22.04a56.512 56.512 0 0 0 5.214 9.584 56.888 56.888 0 0 0 6.892 8.344 56.95 56.95 0 0 0 8.35 6.885 56.516 56.516 0 0 0 9.589 5.205c6.944 2.937 14.346 4.441 21.992 4.441 7.664 0 15.084-1.511 22.041-4.462a56.515 56.515 0 0 0 9.584-5.214 56.891 56.891 0 0 0 8.343-6.892 56.89 56.89 0 0 0 6.885-8.35 56.524 56.524 0 0 0 5.206-9.59c2.937-6.944 4.441-14.346 4.441-21.991 0-7.664-1.512-15.084-4.463-22.041a56.452 56.452 0 0 0-5.214-9.584 56.948 56.948 0 0 0-6.892-8.344 56.895 56.895 0 0 0-8.35-6.884 56.552 56.552 0 0 0-9.588-5.206c-6.945-2.937-14.347-4.441-21.993-4.441-7.665 0-15.084 1.511-22.04 4.462" data-name="Path 964" transform="translate(-113.814 -113.814)"/></clipPath><clipPath id="E"><path d="M144.884 227.767a63.168 63.168 0 0 1-10.734-5.83 63.706 63.706 0 0 1-9.349-7.714 63.3 63.3 0 0 1-13.544-20.082c-3.297-7.79-4.976-16.078-4.976-24.629 0-8.55 1.679-16.838 4.976-24.628a63.257 63.257 0 0 1 5.829-10.733 63.668 63.668 0 0 1 7.715-9.35 63.704 63.704 0 0 1 9.35-7.714 63.165 63.165 0 0 1 10.733-5.829c7.789-3.298 16.077-4.977 24.627-4.977 8.552 0 16.839 1.679 24.629 4.977a63.203 63.203 0 0 1 10.733 5.829 63.712 63.712 0 0 1 9.35 7.714 63.716 63.716 0 0 1 7.714 9.35 63.27 63.27 0 0 1 5.83 10.733c3.298 7.79 4.977 16.078 4.977 24.628 0 8.551-1.68 16.839-4.978 24.629a63.313 63.313 0 0 1-5.83 10.733 63.76 63.76 0 0 1-7.713 9.35 63.714 63.714 0 0 1-9.35 7.714 63.206 63.206 0 0 1-10.733 5.83c-7.79 3.297-16.077 4.976-24.629 4.976-8.55 0-16.838-1.68-24.627-4.977m-1.124-119.09a66.097 66.097 0 0 0-11.206 6.094 66.346 66.346 0 0 0-17.81 17.823 65.937 65.937 0 0 0-6.086 11.211c-3.436 8.122-5.191 16.775-5.191 25.707 0 8.95 1.762 17.618 5.21 25.753a66.129 66.129 0 0 0 14.153 20.963 66.409 66.409 0 0 0 9.764 8.052 65.987 65.987 0 0 0 11.21 6.086c8.122 3.436 16.775 5.19 25.707 5.19 8.951 0 17.618-1.76 25.753-5.21a66.01 66.01 0 0 0 11.205-6.092 66.477 66.477 0 0 0 17.811-17.824 66.056 66.056 0 0 0 6.085-11.21c3.437-8.123 5.192-16.776 5.192-25.708 0-8.95-1.763-17.617-5.21-25.752a66.092 66.092 0 0 0-6.095-11.206 66.398 66.398 0 0 0-17.822-17.81 66.031 66.031 0 0 0-11.21-6.085c-8.123-3.436-16.776-5.192-25.709-5.192-8.95 0-17.617 1.763-25.751 5.21" data-name="Path 965" transform="translate(-103.467 -103.467)"/></clipPath><clipPath id="G"><path d="M140.262 236.013a73.033 73.033 0 0 1-12.401-6.735 73.592 73.592 0 0 1-10.803-8.914 73.13 73.13 0 0 1-15.65-23.205c-3.809-9-5.747-18.574-5.747-28.448 0-9.874 1.938-19.448 5.747-28.448a73.163 73.163 0 0 1 15.65-23.204 73.536 73.536 0 0 1 10.803-8.915 73.028 73.028 0 0 1 12.401-6.735c9.001-3.81 18.575-5.747 28.448-5.747 9.875 0 19.448 1.937 28.45 5.747a73.033 73.033 0 0 1 12.401 6.735 73.527 73.527 0 0 1 19.717 19.717 73.106 73.106 0 0 1 6.735 12.402c3.81 9 5.746 18.574 5.746 28.448 0 9.874-1.937 19.448-5.746 28.448a73.072 73.072 0 0 1-6.735 12.402 73.598 73.598 0 0 1-8.915 10.803 73.583 73.583 0 0 1-10.802 8.914 73.037 73.037 0 0 1-12.402 6.735c-9.001 3.81-18.574 5.748-28.449 5.748-9.873 0-19.447-1.939-28.448-5.748m-1.014-136.934a75.67 75.67 0 0 0-24.001 16.198 76.07 76.07 0 0 0-9.22 11.178 75.576 75.576 0 0 0-6.965 12.833c-3.935 9.301-5.942 19.204-5.942 29.423 0 10.235 2.013 20.152 5.96 29.463a75.605 75.605 0 0 0 6.972 12.83 76.067 76.067 0 0 0 20.403 20.39 75.446 75.446 0 0 0 12.833 6.966c9.301 3.935 19.203 5.942 29.422 5.942 10.235 0 20.15-2.014 29.464-5.96a75.533 75.533 0 0 0 12.828-6.972 76.01 76.01 0 0 0 20.392-20.403 75.576 75.576 0 0 0 6.966-12.833c3.934-9.3 5.94-19.204 5.94-29.423 0-10.235-2.012-20.15-5.958-29.463a75.55 75.55 0 0 0-6.972-12.829 76.125 76.125 0 0 0-9.225-11.171 75.708 75.708 0 0 0-24.01-16.185c-9.303-3.935-19.205-5.942-29.425-5.942-10.234 0-20.15 2.013-29.462 5.958" data-name="Path 966" transform="translate(-93.12 -93.121)"/></clipPath><clipPath id="I"><path d="M135.641 244.258a82.827 82.827 0 0 1-14.07-7.639 83.539 83.539 0 0 1-12.257-10.114A83.542 83.542 0 0 1 99.2 214.248a82.822 82.822 0 0 1-7.64-14.07c-4.322-10.212-6.517-21.07-6.517-32.268 0-11.2 2.195-22.057 6.517-32.269a82.824 82.824 0 0 1 7.64-14.07 83.493 83.493 0 0 1 10.114-12.257 83.47 83.47 0 0 1 12.257-10.113 82.766 82.766 0 0 1 14.07-7.64c10.212-4.322 21.07-6.518 32.268-6.518 11.199 0 22.057 2.196 32.27 6.518a82.75 82.75 0 0 1 14.068 7.64 83.43 83.43 0 0 1 12.257 10.113 83.377 83.377 0 0 1 10.114 12.257 82.827 82.827 0 0 1 7.64 14.07c4.322 10.212 6.52 21.07 6.52 32.269 0 11.199-2.198 22.056-6.52 32.268a82.825 82.825 0 0 1-7.64 14.07 83.426 83.426 0 0 1-10.114 12.257 83.498 83.498 0 0 1-12.257 10.114 82.812 82.812 0 0 1-14.069 7.64c-10.212 4.321-21.07 6.518-32.27 6.518-11.197 0-22.055-2.197-32.267-6.519m-.906-154.777a85.095 85.095 0 0 0-14.451 7.853 85.732 85.732 0 0 0-12.587 10.39 85.857 85.857 0 0 0-10.386 12.592 85.12 85.12 0 0 0-7.846 14.455c-4.433 10.48-6.691 21.633-6.691 33.139 0 11.52 2.263 22.685 6.706 33.174a85.26 85.26 0 0 0 18.245 27.039 85.742 85.742 0 0 0 12.59 10.385 85.085 85.085 0 0 0 14.456 7.846c10.48 4.433 21.632 6.692 33.138 6.692 11.52 0 22.685-2.263 33.174-6.706a85.185 85.185 0 0 0 14.451-7.853 85.812 85.812 0 0 0 12.588-10.392 85.746 85.746 0 0 0 10.386-12.591 85.183 85.183 0 0 0 7.846-14.455c4.433-10.48 6.692-21.633 6.692-33.14 0-11.52-2.265-22.683-6.707-33.174a85.124 85.124 0 0 0-7.853-14.45 85.692 85.692 0 0 0-10.391-12.587 85.701 85.701 0 0 0-12.592-10.386 85.087 85.087 0 0 0-14.455-7.847c-10.481-4.433-21.632-6.691-33.14-6.691-11.518 0-22.683 2.264-33.173 6.707" data-name="Path 967" transform="translate(-82.774 -82.774)"/></clipPath><clipPath id="K"><path d="M131.02 252.506a92.723 92.723 0 0 1-15.74-8.546 93.413 93.413 0 0 1-13.71-11.314 93.41 93.41 0 0 1-11.313-13.71 92.727 92.727 0 0 1-8.545-15.74c-4.834-11.422-7.29-23.565-7.29-36.087 0-12.523 2.456-24.666 7.29-36.09a92.712 92.712 0 0 1 8.545-15.737 93.374 93.374 0 0 1 11.314-13.711 93.416 93.416 0 0 1 13.71-11.314 92.652 92.652 0 0 1 15.739-8.544c11.422-4.834 23.566-7.29 36.088-7.29 12.522 0 24.666 2.456 36.088 7.29a92.57 92.57 0 0 1 15.738 8.544 93.328 93.328 0 0 1 13.712 11.314 93.372 93.372 0 0 1 11.314 13.71 92.64 92.64 0 0 1 8.544 15.739c4.834 11.423 7.29 23.566 7.29 36.089 0 12.522-2.456 24.665-7.29 36.087a92.654 92.654 0 0 1-8.544 15.74 93.408 93.408 0 0 1-11.314 13.71 93.325 93.325 0 0 1-13.712 11.314 92.642 92.642 0 0 1-15.738 8.546c-11.422 4.833-23.566 7.289-36.088 7.289-12.522 0-24.666-2.456-36.088-7.29m-.797-172.623a94.66 94.66 0 0 0-16.074 8.732 95.3 95.3 0 0 0-14 11.557 95.422 95.422 0 0 0-11.554 14.007 94.725 94.725 0 0 0-8.727 16.076c-4.932 11.66-7.441 24.061-7.441 36.855 0 12.805 2.515 25.218 7.455 36.885a94.713 94.713 0 0 0 8.731 16.073 95.326 95.326 0 0 0 11.558 14.002 95.416 95.416 0 0 0 14.006 11.553 94.764 94.764 0 0 0 16.077 8.727c11.66 4.932 24.06 7.441 36.854 7.441 12.805 0 25.218-2.515 36.886-7.455a94.665 94.665 0 0 0 16.073-8.732 95.37 95.37 0 0 0 14.002-11.557 95.418 95.418 0 0 0 11.552-14.005 94.643 94.643 0 0 0 8.727-16.078c4.932-11.66 7.441-24.061 7.441-36.854 0-12.806-2.514-25.218-7.454-36.885a94.774 94.774 0 0 0-20.29-30.076 95.305 95.305 0 0 0-14.005-11.552 94.604 94.604 0 0 0-16.078-8.727c-11.658-4.932-24.06-7.442-36.854-7.442-12.805 0-25.218 2.515-36.885 7.455" data-name="Path 968" transform="translate(-72.427 -72.427)"/></clipPath><clipPath id="M"><path d="M126.398 260.751a102.544 102.544 0 0 1-17.407-9.45 103.135 103.135 0 0 1-27.677-27.677 102.552 102.552 0 0 1-9.45-17.408c-5.346-12.634-8.06-26.062-8.06-39.909 0-13.846 2.714-27.273 8.06-39.908a102.542 102.542 0 0 1 9.45-17.407 103.098 103.098 0 0 1 27.677-27.677 102.54 102.54 0 0 1 17.407-9.451c12.634-5.345 26.063-8.06 39.908-8.06 13.848 0 27.275 2.715 39.91 8.06a102.537 102.537 0 0 1 17.406 9.45 103.157 103.157 0 0 1 15.165 12.513 103.213 103.213 0 0 1 12.513 15.165 102.538 102.538 0 0 1 9.45 17.407c5.345 12.635 8.06 26.062 8.06 39.908 0 13.847-2.715 27.275-8.06 39.909a102.548 102.548 0 0 1-9.45 17.407 103.25 103.25 0 0 1-12.513 15.164 103.16 103.16 0 0 1-15.165 12.513 102.54 102.54 0 0 1-17.407 9.451c-12.634 5.345-26.06 8.06-39.909 8.06-13.845 0-27.274-2.715-39.908-8.06m-.687-190.467a104.148 104.148 0 0 0-17.697 9.612A104.874 104.874 0 0 0 92.6 92.619a104.928 104.928 0 0 0-12.72 15.42 104.213 104.213 0 0 0-9.607 17.699c-5.43 12.838-8.192 26.49-8.192 40.57 0 14.09 2.766 27.751 8.203 40.596a104.081 104.081 0 0 0 9.613 17.696 104.86 104.86 0 0 0 28.142 28.134 104.155 104.155 0 0 0 17.699 9.608c12.838 5.43 26.49 8.193 40.57 8.193 14.09 0 27.751-2.766 40.596-8.203a104.292 104.292 0 0 0 17.697-9.613 104.973 104.973 0 0 0 15.415-12.723 104.976 104.976 0 0 0 12.72-15.419 104.154 104.154 0 0 0 9.607-17.699c5.43-12.838 8.192-26.49 8.192-40.57 0-14.09-2.765-27.752-8.204-40.597a104.257 104.257 0 0 0-9.611-17.698 105.074 105.074 0 0 0-12.723-15.415 105.082 105.082 0 0 0-15.42-12.719 104.29 104.29 0 0 0-17.7-9.607c-12.837-5.43-26.489-8.191-40.57-8.191-14.09 0-27.75 2.765-40.595 8.203" data-name="Path 969" transform="translate(-62.08 -62.081)"/></clipPath><clipPath id="O"><path d="M121.778 268.997a112.3 112.3 0 0 1-19.076-10.355 113.202 113.202 0 0 1-16.618-13.713A113.208 113.208 0 0 1 72.37 228.31a112.364 112.364 0 0 1-10.356-19.075c-5.857-13.844-8.83-28.557-8.83-43.729 0-15.17 2.973-29.883 8.83-43.728a112.392 112.392 0 0 1 10.356-19.075 113.165 113.165 0 0 1 13.713-16.62 113.137 113.137 0 0 1 16.618-13.711 112.237 112.237 0 0 1 19.076-10.356c13.844-5.857 28.557-8.832 43.727-8.832 15.17 0 29.884 2.975 43.729 8.832a112.272 112.272 0 0 1 19.076 10.356 113.147 113.147 0 0 1 16.619 13.71 113.088 113.088 0 0 1 13.71 16.62 112.27 112.27 0 0 1 10.357 19.076c5.858 13.845 8.831 28.558 8.831 43.728 0 15.172-2.973 29.885-8.83 43.729a112.241 112.241 0 0 1-10.357 19.075 113.076 113.076 0 0 1-13.711 16.619 113.16 113.16 0 0 1-16.62 13.713 112.336 112.336 0 0 1-19.075 10.355c-13.845 5.857-28.558 8.831-43.729 8.831-15.17 0-29.883-2.974-43.727-8.83m-.58-208.313a113.732 113.732 0 0 0-19.32 10.492 114.693 114.693 0 0 0-16.83 13.89 114.634 114.634 0 0 0-13.885 16.831 113.803 113.803 0 0 0-10.488 19.322c-5.929 14.018-8.941 28.92-8.941 44.286 0 15.376 3.016 30.285 8.95 44.307a113.732 113.732 0 0 0 10.492 19.32 114.7 114.7 0 0 0 13.89 16.83A114.595 114.595 0 0 0 101.9 259.85a113.79 113.79 0 0 0 19.321 10.489c14.017 5.928 28.918 8.94 44.285 8.94 15.377 0 30.285-3.016 44.308-8.95a113.722 113.722 0 0 0 19.32-10.492 114.542 114.542 0 0 0 16.829-13.89 114.583 114.583 0 0 0 13.887-16.832 113.841 113.841 0 0 0 10.488-19.323c5.93-14.017 8.941-28.918 8.941-44.285 0-15.376-3.016-30.285-8.95-44.307a113.76 113.76 0 0 0-10.493-19.32 114.498 114.498 0 0 0-13.89-16.83 114.584 114.584 0 0 0-16.832-13.886 113.902 113.902 0 0 0-19.322-10.488c-14.017-5.929-28.918-8.941-44.286-8.941-15.375 0-30.284 3.016-44.307 8.95" data-name="Path 970" transform="translate(-51.734 -51.734)"/></clipPath><clipPath id="Q"><path d="M117.156 277.243a122.061 122.061 0 0 1-20.744-11.261A123.047 123.047 0 0 1 78.34 251.07a123.046 123.046 0 0 1-14.912-18.072 122.236 122.236 0 0 1-11.262-20.745c-6.368-15.055-9.6-31.054-9.6-47.548 0-16.495 3.232-32.493 9.6-47.549a122.216 122.216 0 0 1 11.262-20.743A123.055 123.055 0 0 1 78.34 78.34a123.045 123.045 0 0 1 18.072-14.911 122.183 122.183 0 0 1 20.744-11.26c15.056-6.37 31.054-9.602 47.548-9.602 16.495 0 32.493 3.233 47.549 9.601a122.187 122.187 0 0 1 20.744 11.26A123.106 123.106 0 0 1 251.07 78.34a123.047 123.047 0 0 1 14.911 18.074 122.16 122.16 0 0 1 11.262 20.743c6.368 15.056 9.6 31.054 9.6 47.549 0 16.494-3.232 32.493-9.6 47.548a122.18 122.18 0 0 1-11.262 20.745 123.037 123.037 0 0 1-14.91 18.072 123.108 123.108 0 0 1-18.074 14.912 122.064 122.064 0 0 1-20.744 11.26c-15.056 6.37-31.054 9.602-47.549 9.602-16.494 0-32.492-3.232-47.548-9.601m-.47-226.157a123.245 123.245 0 0 0-20.942 11.371A124.221 124.221 0 0 0 77.5 77.514 124.157 124.157 0 0 0 62.446 95.76a123.316 123.316 0 0 0-11.367 20.945c-6.428 15.195-9.692 31.346-9.692 48 0 16.66 3.267 32.818 9.699 48.018a123.31 123.31 0 0 0 11.371 20.942 124.114 124.114 0 0 0 15.057 18.245 124.206 124.206 0 0 0 18.246 15.054 123.339 123.339 0 0 0 20.943 11.368c15.196 6.427 31.347 9.69 48.001 9.69 16.661 0 32.82-3.266 48.018-9.698a123.251 123.251 0 0 0 20.943-11.372 124.21 124.21 0 0 0 18.245-15.056 124.207 124.207 0 0 0 15.053-18.246 123.24 123.24 0 0 0 11.367-20.944c6.428-15.196 9.692-31.347 9.692-48.001 0-16.66-3.266-32.818-9.7-48.019a123.241 123.241 0 0 0-11.37-20.942A124.211 124.211 0 0 0 251.895 77.5a124.205 124.205 0 0 0-18.246-15.054 123.317 123.317 0 0 0-20.945-11.367c-15.196-6.427-31.346-9.692-48.001-9.692-16.66 0-32.818 3.267-48.018 9.699" data-name="Path 971" transform="translate(-41.387 -41.387)"/></clipPath><clipPath id="S"><path d="M112.534 285.488a131.91 131.91 0 0 1-22.411-12.165 132.997 132.997 0 0 1-19.527-16.111 132.937 132.937 0 0 1-16.112-19.527 132.012 132.012 0 0 1-12.166-22.413c-6.88-16.267-10.372-33.55-10.372-51.368 0-17.819 3.492-35.102 10.372-51.369a132.013 132.013 0 0 1 12.166-22.412 132.937 132.937 0 0 1 16.112-19.527c5.97-5.97 12.54-11.391 19.527-16.11a131.977 131.977 0 0 1 22.411-12.167c16.268-6.881 33.55-10.373 51.369-10.373 17.818 0 35.102 3.492 51.369 10.373a131.942 131.942 0 0 1 22.412 12.166 132.893 132.893 0 0 1 19.528 16.11c5.97 5.972 11.39 12.541 16.11 19.528a131.953 131.953 0 0 1 12.166 22.412c6.88 16.267 10.372 33.55 10.372 51.369 0 17.819-3.492 35.101-10.372 51.368a131.951 131.951 0 0 1-12.167 22.413 132.865 132.865 0 0 1-16.11 19.527 132.958 132.958 0 0 1-19.527 16.111 131.875 131.875 0 0 1-22.412 12.165c-16.267 6.881-33.55 10.373-51.37 10.373-17.818 0-35.1-3.492-51.368-10.373m-.36-244a132.923 132.923 0 0 0-22.565 12.25A133.773 133.773 0 0 0 69.95 69.962a133.781 133.781 0 0 0-16.222 19.66 132.79 132.79 0 0 0-12.247 22.567c-6.926 16.373-10.442 33.775-10.442 51.716 0 17.945 3.518 35.351 10.448 51.73a132.922 132.922 0 0 0 12.25 22.564 133.834 133.834 0 0 0 16.223 19.658 133.76 133.76 0 0 0 19.66 16.22 132.826 132.826 0 0 0 22.566 12.25c16.374 6.925 33.775 10.441 51.716 10.441 17.946 0 35.352-3.518 51.73-10.447a132.962 132.962 0 0 0 22.565-12.25 133.884 133.884 0 0 0 19.658-16.224 133.756 133.756 0 0 0 16.22-19.66 132.8 132.8 0 0 0 12.249-22.566c6.926-16.374 10.442-33.775 10.442-51.716 0-17.947-3.518-35.352-10.447-51.73a132.835 132.835 0 0 0-12.252-22.565 133.812 133.812 0 0 0-16.222-19.659 133.753 133.753 0 0 0-19.66-16.219 132.903 132.903 0 0 0-22.566-12.25c-16.375-6.925-33.775-10.441-51.717-10.441-17.946 0-35.352 3.519-51.73 10.447" data-name="Path 972" transform="translate(-31.04 -31.04)"/></clipPath><clipPath id="U"><path d="M107.914 293.734a141.752 141.752 0 0 1-24.082-13.071 142.752 142.752 0 0 1-20.98-17.31 142.819 142.819 0 0 1-17.31-20.98A141.947 141.947 0 0 1 32.47 218.29c-7.393-17.478-11.143-36.046-11.143-55.189 0-19.142 3.75-37.71 11.143-55.188a141.903 141.903 0 0 1 13.071-24.08 142.825 142.825 0 0 1 17.311-20.982 142.876 142.876 0 0 1 20.98-17.31 141.878 141.878 0 0 1 24.082-13.072c17.477-7.392 36.046-11.142 55.188-11.142 19.143 0 37.711 3.75 55.188 11.142a141.8 141.8 0 0 1 24.08 13.071 142.837 142.837 0 0 1 20.982 17.311 142.824 142.824 0 0 1 17.31 20.981 141.71 141.71 0 0 1 13.072 24.08c7.393 17.479 11.143 36.047 11.143 55.19 0 19.142-3.75 37.71-11.143 55.188a141.756 141.756 0 0 1-13.071 24.082 142.818 142.818 0 0 1-17.311 20.98 142.713 142.713 0 0 1-20.981 17.31 141.674 141.674 0 0 1-24.08 13.071c-17.478 7.393-36.046 11.144-55.19 11.144-19.14 0-37.71-3.751-55.187-11.144m-.252-261.846A142.467 142.467 0 0 0 83.474 45.02a143.504 143.504 0 0 0-21.073 17.389 143.432 143.432 0 0 0-17.386 21.074 142.351 142.351 0 0 0-13.13 24.19c-7.424 17.552-11.191 36.202-11.191 55.43 0 19.232 3.768 37.885 11.194 55.44a142.471 142.471 0 0 0 13.131 24.189 143.445 143.445 0 0 0 17.389 21.073 143.392 143.392 0 0 0 21.075 17.386 142.365 142.365 0 0 0 24.187 13.13c17.553 7.424 36.203 11.19 55.432 11.19 19.231 0 37.885-3.767 55.44-11.193a142.317 142.317 0 0 0 24.189-13.132 143.371 143.371 0 0 0 21.072-17.388 143.34 143.34 0 0 0 17.387-21.075 142.399 142.399 0 0 0 13.13-24.187c7.424-17.553 11.19-36.205 11.19-55.433 0-19.23-3.768-37.885-11.194-55.44a142.409 142.409 0 0 0-13.131-24.188 143.336 143.336 0 0 0-17.389-21.073 143.337 143.337 0 0 0-21.074-17.386 142.375 142.375 0 0 0-24.188-13.13c-17.554-7.424-36.204-11.191-55.432-11.191-19.231 0-37.885 3.768-55.44 11.194" data-name="Path 973" transform="translate(-20.694 -20.694)"/></clipPath><clipPath id="W"><path d="M103.292 301.98a151.504 151.504 0 0 1-25.75-13.977 152.633 152.633 0 0 1-22.433-18.508 152.703 152.703 0 0 1-18.51-22.435 151.638 151.638 0 0 1-13.977-25.75c-7.905-18.688-11.914-38.542-11.914-59.009 0-20.466 4.01-40.32 11.914-59.008a151.598 151.598 0 0 1 13.976-25.75 152.656 152.656 0 0 1 18.51-22.434 152.642 152.642 0 0 1 22.435-18.51 151.573 151.573 0 0 1 25.75-13.977c18.688-7.905 38.541-11.914 59.007-11.914 20.467 0 40.32 4.01 59.01 11.914a151.608 151.608 0 0 1 25.749 13.977 152.648 152.648 0 0 1 22.435 18.51 152.705 152.705 0 0 1 18.509 22.435 151.469 151.469 0 0 1 13.977 25.75c7.905 18.688 11.914 38.541 11.914 59.007 0 20.467-4.009 40.32-11.914 59.008a151.51 151.51 0 0 1-13.977 25.75 152.753 152.753 0 0 1-18.51 22.436 152.64 152.64 0 0 1-22.434 18.508 151.539 151.539 0 0 1-25.75 13.978c-18.69 7.904-38.542 11.914-59.009 11.914-20.466 0-40.32-4.01-59.008-11.914M103.15 22.29A151.994 151.994 0 0 0 77.34 36.3 153.047 153.047 0 0 0 54.85 54.855a153.007 153.007 0 0 0-18.553 22.488 152.085 152.085 0 0 0-14.01 25.81c-7.923 18.733-11.942 38.633-11.942 59.148 0 20.517 4.02 40.42 11.944 59.152a152.02 152.02 0 0 0 14.01 25.81 153.065 153.065 0 0 0 18.555 22.488 152.943 152.943 0 0 0 22.488 18.553 151.956 151.956 0 0 0 25.81 14.01c18.733 7.924 38.632 11.942 59.147 11.942 20.517 0 40.42-4.02 59.152-11.943a151.973 151.973 0 0 0 25.812-14.012 152.992 152.992 0 0 0 22.486-18.554 153.007 153.007 0 0 0 18.554-22.488 151.952 151.952 0 0 0 14.01-25.81c7.923-18.732 11.94-38.633 11.94-59.148 0-20.516-4.018-40.418-11.941-59.15A152.066 152.066 0 0 0 288.3 77.338a152.944 152.944 0 0 0-18.554-22.487 153.071 153.071 0 0 0-22.488-18.554 152.082 152.082 0 0 0-25.81-14.01c-18.732-7.922-38.633-11.941-59.149-11.941-20.517 0-40.418 4.02-59.15 11.943" data-name="Path 974" transform="translate(-10.346 -10.347)"/></clipPath><clipPath id="Y"><path d="M98.672 310.226a161.33 161.33 0 0 1-27.419-14.882 162.692 162.692 0 0 1-23.889-19.708 162.706 162.706 0 0 1-19.71-23.89 161.457 161.457 0 0 1-14.88-27.418C4.356 204.428.089 183.291.089 161.5c0-21.791 4.267-42.929 12.685-62.828a161.414 161.414 0 0 1 14.88-27.418 162.612 162.612 0 0 1 19.71-23.889 162.575 162.575 0 0 1 23.89-19.708 161.401 161.401 0 0 1 27.418-14.883C118.572 4.357 139.71.089 161.499.089c21.79 0 42.93 4.268 62.83 12.685a161.359 161.359 0 0 1 27.417 14.883 162.48 162.48 0 0 1 23.889 19.708 162.49 162.49 0 0 1 19.708 23.889 161.356 161.356 0 0 1 14.883 27.418c8.416 19.9 12.684 41.037 12.684 62.828 0 21.79-4.268 42.929-12.684 62.828a161.4 161.4 0 0 1-14.883 27.419 162.584 162.584 0 0 1-19.708 23.889 162.596 162.596 0 0 1-23.89 19.708 161.288 161.288 0 0 1-27.417 14.882c-19.9 8.418-41.038 12.685-62.829 12.685-21.79 0-42.928-4.267-62.827-12.685M161.499 0c-21.802 0-42.952 4.27-62.862 12.692a161.537 161.537 0 0 0-27.434 14.89 162.776 162.776 0 0 0-23.9 19.72A162.687 162.687 0 0 0 27.58 71.204a161.562 161.562 0 0 0-14.89 27.434C4.272 118.548 0 139.698 0 161.5s4.27 42.953 12.692 62.863a161.667 161.667 0 0 0 14.889 27.434 162.624 162.624 0 0 0 19.722 23.9 162.608 162.608 0 0 0 23.9 19.721 161.538 161.538 0 0 0 27.434 14.89c19.91 8.421 41.06 12.692 62.862 12.692 21.803 0 42.953-4.27 62.863-12.692a161.538 161.538 0 0 0 27.434-14.89 162.619 162.619 0 0 0 23.901-19.72 162.675 162.675 0 0 0 19.721-23.901 161.608 161.608 0 0 0 14.89-27.434C318.73 204.453 323 183.302 323 161.5s-4.27-42.952-12.692-62.862a161.504 161.504 0 0 0-14.89-27.434 162.738 162.738 0 0 0-19.72-23.902 162.787 162.787 0 0 0-23.902-19.72 161.536 161.536 0 0 0-27.434-14.89C204.452 4.27 183.302 0 161.5 0Z" data-name="Path 975"/></clipPath></defs></svg>