<svg xmlns="http://www.w3.org/2000/svg" width="39.585" height="37.39" viewBox="140.5 3137.805 39.585 37.39"><g data-name="Group 481"><g data-name="Group 480" transform="translate(140.5 3137.805)" clip-path="url(&quot;#a&quot;)"><path d="M16.685 8.378h-.263c-.814 0-1.628-.004-2.441.002-.286.003-.506-.096-.63-.355-.126-.262-.055-.497.124-.714.988-1.195 1.974-2.392 2.96-3.588.934-1.132 1.867-2.265 2.802-3.396.359-.434.755-.436 1.11-.006 1.917 2.323 3.831 4.646 5.749 6.968.183.221.272.456.145.729-.13.28-.37.366-.668.363-.8-.008-1.6-.003-2.399-.003h-.262c-.004.09-.01.158-.01.226 0 4.549-.035 9.097.015 13.645.038 3.596 1.583 6.466 4.477 8.594 2.447 1.799 4.917 3.569 7.37 5.36.142.103.27.266.331.43.093.248-.033.514-.244.654a.627.627 0 0 1-.723-.024c-.65-.466-1.296-.937-1.943-1.406-1.845-1.34-3.693-2.675-5.535-4.02-2.742-2.002-4.367-4.69-4.872-8.045a12.075 12.075 0 0 1-.11-1.767c-.009-4.673-.005-9.347-.005-14.02 0-.112-.002-.224.011-.334.038-.315.291-.528.644-.53.612-.006 1.224-.003 1.836-.003h.207L19.795 1.6l-4.558 5.527c.102.005.166.011.23.011.583 0 1.168-.001 1.752.001.458.002.705.238.705.688 0 4.813.04 9.626-.014 14.438-.045 3.97-1.732 7.16-4.915 9.527-2.471 1.838-4.981 3.623-7.474 5.43-.273.198-.547.22-.775.07-.218-.144-.342-.398-.255-.65a.929.929 0 0 1 .31-.42c1.647-1.209 3.307-2.402 4.958-3.607 1.056-.77 2.146-1.5 3.147-2.336 2.096-1.754 3.314-4.021 3.682-6.733.068-.507.092-1.025.093-1.538.007-4.465.004-8.93.004-13.395v-.235Z" fill="#fff" fill-rule="evenodd" data-name="Path 1079"/><path d="M31.363 16.095V24.426c-.001 1.32.536 2.352 1.611 3.124 2.105 1.514 4.198 3.044 6.298 4.565.245.177.363.403.294.7-.06.255-.237.404-.489.459-.215.046-.39-.048-.559-.17-1.355-.985-2.711-1.969-4.067-2.952-.743-.54-1.485-1.08-2.228-1.616-1.383-.999-2.092-2.351-2.097-4.054-.01-2.956-.003-5.911-.003-8.867 0-.535.228-.76.762-.76l1.32.001-2.754-2.752-2.74 2.74s.05.011.101.011c.425.002.849 0 1.273.001.408.002.668.253.668.664.003 2.997.003 5.995 0 8.992 0 .39-.27.671-.623.67-.357-.001-.614-.278-.614-.673l-.001-8.157v-.246c-.091-.004-.165-.01-.239-.01h-2.065c-.349 0-.573-.127-.673-.388-.114-.298-.008-.534.209-.75 1.4-1.393 2.795-2.791 4.192-4.187.33-.33.67-.33 1-.001 1.397 1.395 2.793 2.792 4.189 4.19.26.26.327.502.204.765-.134.29-.38.377-.684.373-.675-.008-1.35-.003-2.024-.003h-.261" fill="#fff" fill-rule="evenodd" data-name="Path 1080"/><path d="M8.213 16.095h-.238c-.695 0-1.39-.003-2.086.002-.294.002-.519-.11-.636-.381-.12-.275-.037-.514.17-.72 1.417-1.416 2.832-2.833 4.25-4.247.303-.303.651-.303.954 0 1.418 1.414 2.832 2.832 4.25 4.247.207.207.285.445.168.72-.117.275-.342.382-.635.38-.696-.003-1.391 0-2.086 0h-.25v.286l-.001 8.094c0 .352-.147.583-.419.671-.418.136-.815-.16-.818-.623-.006-.786-.003-1.572-.003-2.358v-6.55c0-.53.232-.76.763-.76.431 0 .862-.002 1.293-.004.011 0 .022-.013.012-.007l-2.758-2.759-2.77 2.77h1.382c.472.001.707.239.708.728.003 1.3.002 2.6.002 3.9 0 1.607-.01 3.214.004 4.82.013 1.489-.45 2.785-1.566 3.786-.567.508-1.21.933-1.828 1.383-1.64 1.195-3.286 2.384-4.929 3.575l-.118.085c-.335.233-.709.185-.918-.118-.201-.291-.121-.658.2-.891 2.109-1.531 4.216-3.065 6.33-4.59 1.066-.77 1.587-1.808 1.586-3.118-.002-2.698-.001-5.396-.002-8.095 0-.067-.006-.135-.01-.226" fill="#fff" fill-rule="evenodd" data-name="Path 1081"/></g></g><defs><clipPath id="a"><path d="M0 0h39.585v37.39H0V0z" data-name="Rectangle 360"/></clipPath></defs></svg>