<svg xmlns="http://www.w3.org/2000/svg" width="39.91" height="37.39"><path d="M0 .64C.014.62.033.604.042.58.194.19.48.008.9.009c1.474.004 2.949 0 4.423 0 4.008 0 8.016.002 12.025 0 .287 0 .543.055.736.281.222.261.27.562.136.874-.145.338-.419.499-.787.499H1.88c-.063 0-.126.006-.202.01v11.64H5.75c.556.001.9.34.905.895.003.493 0 .985 0 1.517.079-.057.13-.09.178-.128.837-.67 1.676-1.336 2.508-2.012.233-.19.481-.276.785-.275 2.923.006 5.846.003 8.77.003h.235v-.226c0-3.989.01-7.977-.009-11.966-.004-.784.341-1.122 1.12-1.12 6.191.016 12.382.009 18.573.01.123 0 .247-.003.37.008a.817.817 0 0 1 .723.748c.005.065.003.13.003.195v13.057c0 .633-.324.955-.962.956H34.92v2.453c.001.376-.162.653-.509.8-.348.148-.664.066-.928-.198-.97-.967-1.94-1.936-2.906-2.909a.456.456 0 0 0-.356-.15c-2.566.005-5.131.005-7.697.003-.646 0-1.063-.56-.847-1.127.129-.338.43-.534.826-.534h6.294c.624 0 1.248.008 1.871-.003a.991.991 0 0 1 .764.318c.542.551 1.091 1.095 1.638 1.641.05.049.101.094.189.177v-.734c0-.175-.003-.35 0-.526.01-.53.358-.872.89-.873H38.232V1.672c-.067-.003-.135-.009-.204-.009H21.055c-.272 0-.272 0-.272.275v11.888c0 .052-.004.104.002.155.043.361-.098.632-.37.869-1.82 1.59-3.633 3.186-5.447 4.781-.35.308-.511.699-.48 1.162.04.576.33.995.856 1.223.525.228 1.036.164 1.48-.203 1.027-.849 2.041-1.71 3.065-2.562a.507.507 0 0 1 .291-.117c1.735-.021 3.469-.05 5.203-.043a7.39 7.39 0 0 1 4.227 1.324c1.757 1.203 3.505 2.419 5.254 3.634.129.09.22.107.355.006.316-.237.645-.46.974-.68a.496.496 0 0 1 .249-.08c.85-.021 1.701-.036 2.552-.05.51-.009.88.318.902.796.021.457-.328.832-.825.853a44.32 44.32 0 0 1-1.929.036.836.836 0 0 0-.627.252c1.175 1.404 1.33 2.85.106 4.296-.709.838-2.156 1.34-3.662.588-.162 1.048-.677 1.857-1.627 2.345-.945.485-1.898.442-2.854-.045-.155 1.064-.673 1.874-1.622 2.364-.942.486-1.897.443-2.828-.025-.099.309-.168.619-.293.905-.707 1.618-2.68 2.263-4.216 1.39-.22-.126-.43-.343-.657-.358-.213-.014-.437.188-.66.285a2.907 2.907 0 0 1-3.964-1.808c-.015-.048-.032-.097-.055-.164-.783.181-1.527.087-2.216-.323-.69-.41-1.129-1.019-1.34-1.805-.138.018-.264.037-.391.052-1.402.164-2.704-.67-3.116-2.01-.051-.164-.11-.183-.272-.153-1.223.227-2.473-.361-3.059-1.426a2.91 2.91 0 0 1 .394-3.4l.113-.128c-.397-.264-.783-.524-1.174-.776-.054-.035-.137-.032-.206-.032-.611-.003-1.222-.02-1.832.003-.52.02-.897-.15-1.084-.656v-.351c.175-.502.533-.682 1.053-.665.779.024 1.56.002 2.339.01a.665.665 0 0 1 .339.102c.74.482 1.47.978 2.209 1.46.09.06.213.098.32.097a2.837 2.837 0 0 1 1.995.743c.218.196.395.437.594.662.743-.595 1.586-.831 2.528-.62.949.212 1.612.794 2.031 1.653 1.273-.529 2.44-.404 3.403.586.96.986 1.057 2.157.502 3.399.045.008.07.014.096.017 1.616.2 2.764 1.767 2.471 3.373-.029.157-.117.346-.061.463.059.122.262.173.398.26.314.2.653.289 1.022.22.563-.107.979-.527 1.088-1.087.102-.525-.136-1.066-.611-1.374-.436-.282-.878-.554-1.312-.837a.824.824 0 0 1-.345-.952.787.787 0 0 1 .83-.567c.171.015.354.083.501.175 1.128.705 2.244 1.43 3.372 2.133a1.339 1.339 0 0 0 1.86-.424c.397-.634.21-1.438-.436-1.855-.348-.225-.7-.446-1.05-.668l-2.35-1.489c-.306-.193-.479-.468-.424-.831.1-.66.754-.938 1.326-.576 1.83 1.16 3.655 2.327 5.49 3.478.202.126.45.219.686.241.635.06 1.18-.326 1.377-.92.195-.592-.03-1.204-.576-1.553-.858-.548-1.719-1.093-2.578-1.638-.991-.63-1.983-1.258-2.973-1.89-.32-.204-.484-.543-.42-.852.13-.628.758-.906 1.302-.562 1.487.936 2.97 1.879 4.453 2.822 1.089.693 2.171 1.397 3.265 2.082.639.4 1.452.21 1.852-.406.4-.615.255-1.433-.347-1.85-2.198-1.525-4.395-3.05-6.602-4.56a5.533 5.533 0 0 0-3.128-.995c-1.578-.012-3.157.019-4.735.036-.07 0-.155.03-.209.074-.85.705-1.702 1.407-2.54 2.126-.75.643-1.605.928-2.578.761-1.253-.214-2.103-.95-2.466-2.159-.37-1.234-.052-2.333.91-3.2 1.214-1.097 2.454-2.165 3.684-3.245.05-.044.108-.08.162-.12a.358.358 0 0 0-.19-.054c-2.372 0-4.743-.002-7.114.005a.516.516 0 0 0-.292.115 874.48 874.48 0 0 0-3.714 2.968c-.288.231-.598.315-.94.15-.348-.167-.48-.463-.477-.843.009-.727.003-1.455.002-2.182v-.213h-.265c-1.215 0-2.43-.013-3.644.006-.52.008-.896-.151-1.083-.658V.641m16.028 29.367-.04-.016c-.006-.064-.009-.13-.02-.193-.1-.536-.474-.924-.988-1.025a1.222 1.222 0 0 0-1.315.583c-.435.714-.86 1.434-1.285 2.153-.351.593-.16 1.334.43 1.695.578.352 1.333.18 1.69-.4.438-.712.872-1.427 1.29-2.15.113-.197.16-.43.238-.647M8.6 29.986c.044.577.415 1.068.948 1.214a1.23 1.23 0 0 0 1.397-.551c.287-.47.57-.942.85-1.417.368-.627.19-1.367-.412-1.73-.596-.361-1.345-.17-1.724.45-.29.475-.58.952-.85 1.44-.1.18-.141.395-.209.594m-2.294-.881c.7.003 1.258-.543 1.261-1.236a1.253 1.253 0 0 0-1.242-1.26c-.686 0-1.257.57-1.256 1.252 0 .682.556 1.24 1.237 1.244m9.469 5.158a1.247 1.247 0 0 0 1.239 1.261 1.256 1.256 0 0 0 1.254-1.25 1.25 1.25 0 0 0-1.233-1.248 1.24 1.24 0 0 0-1.26 1.237" fill="#fff" fill-rule="evenodd" data-name="Path 1075"/></svg>