<svg xmlns="http://www.w3.org/2000/svg" width="443" height="443" viewBox="29.5 3642.5 443 443"><g data-name="Mask Group 61" transform="translate(0 -109)" clip-path="url(&quot;#a&quot;)"><g data-name="Group 476"><g data-name="Group 249"><g data-name="Group 248" transform="translate(29.5 3751.5)" clip-path="url(&quot;#b&quot;)"><path d="M177.578 171.65c-3.27 0-5.93 2.66-5.93 5.93 0 3.27 2.66 5.93 5.93 5.93 3.27 0 5.93-2.66 5.93-5.93 0-3.27-2.66-5.93-5.93-5.93m0 17.96c-6.634 0-12.031-5.397-12.031-12.03 0-6.635 5.397-12.032 12.03-12.032 6.635 0 12.031 5.397 12.031 12.032 0 6.633-5.396 12.03-12.03 12.03" fill-rule="evenodd" fill="url(&quot;#c&quot;)" transform="translate(43.921 43.921)" data-name="Path 942"/><path d="M180.323 160.928a19.287 19.287 0 0 0-10.862 3.326 19.567 19.567 0 0 0-5.208 5.208 19.287 19.287 0 0 0-3.326 10.861 19.287 19.287 0 0 0 3.326 10.862 19.565 19.565 0 0 0 5.208 5.208 19.287 19.287 0 0 0 10.861 3.327 19.287 19.287 0 0 0 10.862-3.327 19.642 19.642 0 0 0 2.852-2.356 19.636 19.636 0 0 0 2.356-2.852 19.287 19.287 0 0 0 3.326-10.861 19.287 19.287 0 0 0-3.326-10.862 19.64 19.64 0 0 0-2.356-2.852 19.556 19.556 0 0 0-6.13-4.142 19.286 19.286 0 0 0-7.583-1.54m0-5.727a24.984 24.984 0 0 1 14.03 4.284 25.28 25.28 0 0 1 6.753 6.726 25.128 25.128 0 0 1 2.323 4.242 24.97 24.97 0 0 1 2.017 9.87 24.984 24.984 0 0 1-4.285 14.03 25.29 25.29 0 0 1-6.726 6.753 25.118 25.118 0 0 1-4.242 2.324 24.968 24.968 0 0 1-9.87 2.016 24.981 24.981 0 0 1-14.03-4.284 25.294 25.294 0 0 1-6.753-6.726 25.206 25.206 0 0 1-2.323-4.242 24.969 24.969 0 0 1-2.017-9.87 24.98 24.98 0 0 1 4.286-14.03 25.307 25.307 0 0 1 6.726-6.753 24.969 24.969 0 0 1 14.11-4.34" fill-rule="evenodd" fill="url(&quot;#d&quot;)" transform="translate(41.176 41.176)" data-name="Path 943"/><path d="M183.068 150.208c-4.464 0-8.781.881-12.821 2.597a32.865 32.865 0 0 0-10.414 7.029 32.868 32.868 0 0 0-7.029 10.412 32.67 32.67 0 0 0-2.597 12.823c0 4.464.883 8.781 2.597 12.821a32.882 32.882 0 0 0 7.029 10.414 32.87 32.87 0 0 0 10.413 7.029 32.66 32.66 0 0 0 12.822 2.597 32.67 32.67 0 0 0 18.389-5.625 33.194 33.194 0 0 0 4.846-4.001 32.872 32.872 0 0 0 7.029-10.413 32.66 32.66 0 0 0 2.597-12.822 32.67 32.67 0 0 0-5.625-18.389 33.137 33.137 0 0 0-4.001-4.846 32.905 32.905 0 0 0-10.412-7.029 32.646 32.646 0 0 0-12.823-2.597m0-5.354c5.19 0 10.202 1.027 14.875 3.006 2.265.958 4.44 2.14 6.476 3.515a38.48 38.48 0 0 1 10.29 10.267 38.125 38.125 0 0 1 3.53 6.467 37.975 37.975 0 0 1 3.044 14.96c0 5.19-1.028 10.2-3.007 14.875a38.094 38.094 0 0 1-3.515 6.476 38.552 38.552 0 0 1-4.642 5.635 38.567 38.567 0 0 1-5.624 4.656 38.216 38.216 0 0 1-6.467 3.53 37.975 37.975 0 0 1-14.96 3.043 38 38 0 0 1-21.351-6.522 38.557 38.557 0 0 1-5.636-4.642 38.629 38.629 0 0 1-4.655-5.624 38.214 38.214 0 0 1-3.53-6.467 37.975 37.975 0 0 1-3.043-14.96 37.994 37.994 0 0 1 6.521-21.35 38.477 38.477 0 0 1 10.267-10.292 38.128 38.128 0 0 1 6.467-3.53 37.974 37.974 0 0 1 14.96-3.043" fill-rule="evenodd" fill="url(&quot;#e&quot;)" transform="translate(38.43 38.431)" data-name="Path 944"/><path d="M185.813 139.487c-6.28 0-12.36 1.239-18.061 3.656a46.384 46.384 0 0 0-14.696 9.916 46.354 46.354 0 0 0-9.916 14.694 46.047 46.047 0 0 0-3.654 18.062 46.05 46.05 0 0 0 3.654 18.061 46.349 46.349 0 0 0 4.27 7.855 46.745 46.745 0 0 0 5.646 6.84 46.691 46.691 0 0 0 6.84 5.646 46.298 46.298 0 0 0 7.856 4.27 46.04 46.04 0 0 0 18.06 3.654c6.28 0 12.36-1.238 18.062-3.655a46.298 46.298 0 0 0 7.855-4.269 46.693 46.693 0 0 0 6.84-5.646 46.745 46.745 0 0 0 5.646-6.84 46.34 46.34 0 0 0 4.27-7.855 46.05 46.05 0 0 0 3.655-18.06c0-6.282-1.238-12.36-3.655-18.063a46.345 46.345 0 0 0-9.916-14.694 46.384 46.384 0 0 0-14.695-9.916 46.043 46.043 0 0 0-18.061-3.656m0-4.979c6.955 0 13.68 1.373 19.97 4.035a51.278 51.278 0 0 1 8.702 4.722 51.662 51.662 0 0 1 13.83 13.807 51.307 51.307 0 0 1 4.736 8.693 50.987 50.987 0 0 1 4.069 20.05c0 6.955-1.373 13.68-4.035 19.97a51.227 51.227 0 0 1-4.724 8.7 51.662 51.662 0 0 1-13.806 13.83 51.315 51.315 0 0 1-8.692 4.738 51.01 51.01 0 0 1-20.05 4.068 51.01 51.01 0 0 1-28.672-8.757 51.655 51.655 0 0 1-13.829-13.807 51.315 51.315 0 0 1-4.737-8.693c-2.684-6.312-4.068-13.063-4.068-20.049 0-6.957 1.372-13.682 4.034-19.972a51.222 51.222 0 0 1 4.723-8.7 51.665 51.665 0 0 1 6.243-7.575 51.749 51.749 0 0 1 7.564-6.255 51.011 51.011 0 0 1 28.741-8.805" fill-rule="evenodd" fill="url(&quot;#f&quot;)" transform="translate(35.686 35.686)" data-name="Path 945"/><path d="M188.558 128.767c-8.096 0-15.938 1.593-23.3 4.712a59.688 59.688 0 0 0-10.143 5.511 60.175 60.175 0 0 0-8.835 7.291 60.18 60.18 0 0 0-7.29 8.835 59.695 59.695 0 0 0-5.512 10.142c-3.12 7.363-4.712 15.206-4.712 23.301 0 8.095 1.593 15.938 4.712 23.3a59.693 59.693 0 0 0 5.511 10.143 60.178 60.178 0 0 0 16.126 16.127 59.86 59.86 0 0 0 10.142 5.511c7.363 3.118 15.205 4.711 23.3 4.711 8.096 0 15.939-1.593 23.302-4.71a59.854 59.854 0 0 0 18.977-12.804 60.264 60.264 0 0 0 7.292-8.835 59.769 59.769 0 0 0 5.51-10.142c3.12-7.363 4.712-15.206 4.712-23.301 0-8.095-1.593-15.938-4.712-23.3a59.771 59.771 0 0 0-5.51-10.143 60.172 60.172 0 0 0-16.126-16.125 59.683 59.683 0 0 0-10.143-5.512c-7.363-3.12-15.206-4.712-23.301-4.712m0-4.606c8.72 0 17.16 1.717 25.067 5.063a64.329 64.329 0 0 1 10.926 5.931 64.754 64.754 0 0 1 17.368 17.346 64.494 64.494 0 0 1 5.943 10.919c3.365 7.926 5.094 16.39 5.094 25.139 0 8.72-1.717 17.16-5.063 25.067a64.424 64.424 0 0 1-5.93 10.926 64.854 64.854 0 0 1-17.348 17.368 64.365 64.365 0 0 1-10.918 5.943c-7.926 3.365-16.39 5.094-25.14 5.094-8.72 0-17.16-1.717-25.066-5.063a64.46 64.46 0 0 1-20.439-13.774 64.486 64.486 0 0 1-13.798-20.42c-3.364-7.928-5.094-16.391-5.094-25.141 0-8.72 1.717-17.16 5.063-25.066a64.52 64.52 0 0 1 13.774-20.44 64.5 64.5 0 0 1 20.422-13.798c7.926-3.364 16.39-5.094 25.139-5.094" fill-rule="evenodd" fill="url(&quot;#g&quot;)" transform="translate(32.94 32.941)" data-name="Path 946"/><path d="M191.303 118.046c-9.911 0-19.516 1.948-28.539 5.769a73.206 73.206 0 0 0-12.432 6.753 73.748 73.748 0 0 0-19.765 19.764 73.35 73.35 0 0 0-6.753 12.433c-3.821 9.023-5.769 18.628-5.769 28.54 0 9.91 1.948 19.515 5.769 28.538a73.291 73.291 0 0 0 6.753 12.432 73.747 73.747 0 0 0 19.765 19.765 73.198 73.198 0 0 0 12.432 6.753c9.023 3.821 18.628 5.769 28.54 5.769 9.91 0 19.515-1.948 28.538-5.769a73.26 73.26 0 0 0 12.433-6.753 73.81 73.81 0 0 0 10.829-8.937 73.823 73.823 0 0 0 8.935-10.828 73.204 73.204 0 0 0 6.753-12.432c3.821-9.023 5.769-18.628 5.769-28.539 0-9.911-1.948-19.516-5.769-28.539a73.263 73.263 0 0 0-6.753-12.433 73.878 73.878 0 0 0-8.935-10.827 73.817 73.817 0 0 0-10.829-8.937 73.268 73.268 0 0 0-12.433-6.753c-9.023-3.821-18.628-5.769-28.539-5.769m0-4.232c10.486 0 20.638 2.062 30.163 6.091a77.519 77.519 0 0 1 13.151 7.14 78.108 78.108 0 0 1 11.452 9.442 77.6 77.6 0 0 1 16.603 24.587c4.049 9.542 6.121 19.72 6.121 30.23 0 10.486-2.062 20.639-6.091 30.162a77.517 77.517 0 0 1-7.139 13.152 78.026 78.026 0 0 1-9.443 11.451 77.603 77.603 0 0 1-24.588 16.605c-9.541 4.048-19.717 6.12-30.229 6.12-10.485 0-20.638-2.062-30.162-6.092a77.452 77.452 0 0 1-13.15-7.138 77.97 77.97 0 0 1-20.907-20.886 77.592 77.592 0 0 1-7.15-13.144c-4.047-9.542-6.121-19.719-6.121-30.23 0-10.486 2.062-20.638 6.092-30.162a77.517 77.517 0 0 1 16.582-24.603 77.602 77.602 0 0 1 24.586-16.605c9.542-4.047 19.718-6.12 30.23-6.12" fill-rule="evenodd" fill="url(&quot;#h&quot;)" transform="translate(30.196 30.196)" data-name="Path 947"/><path d="M194.048 107.326c-11.727 0-23.095 2.303-33.779 6.825a86.627 86.627 0 0 0-14.72 7.996 87.304 87.304 0 0 0-12.822 10.58 87.38 87.38 0 0 0-10.582 12.823 86.687 86.687 0 0 0-7.994 14.72c-4.523 10.685-6.826 22.051-6.826 33.78 0 11.726 2.303 23.094 6.826 33.778a86.732 86.732 0 0 0 7.994 14.72 87.305 87.305 0 0 0 10.582 12.822 87.317 87.317 0 0 0 12.823 10.582 86.626 86.626 0 0 0 14.72 7.994c10.683 4.523 22.051 6.826 33.778 6.826s23.094-2.303 33.779-6.826a86.687 86.687 0 0 0 14.72-7.994 87.384 87.384 0 0 0 12.823-10.582 86.835 86.835 0 0 0 18.576-27.542c4.522-10.684 6.825-22.052 6.825-33.779 0-11.728-2.303-23.094-6.825-33.779a86.79 86.79 0 0 0-7.996-14.72 87.454 87.454 0 0 0-10.58-12.823 87.371 87.371 0 0 0-12.823-10.58 86.688 86.688 0 0 0-14.72-7.996c-10.685-4.522-22.052-6.825-33.78-6.825m0-3.859c12.252 0 24.119 2.408 35.26 7.12a90.689 90.689 0 0 1 15.375 8.346 91.308 91.308 0 0 1 13.392 11.044 91.302 91.302 0 0 1 11.052 13.384 90.645 90.645 0 0 1 8.358 15.368c4.728 11.157 7.146 23.045 7.146 35.32 0 12.25-2.408 24.118-7.12 35.258a90.574 90.574 0 0 1-8.347 15.376 91.14 91.14 0 0 1-24.427 24.445 90.633 90.633 0 0 1-15.368 8.357c-11.158 4.728-23.045 7.145-35.32 7.145-12.25 0-24.118-2.407-35.258-7.12a90.472 90.472 0 0 1-15.376-8.346 91.228 91.228 0 0 1-13.392-11.043 91.22 91.22 0 0 1-11.052-13.384 90.513 90.513 0 0 1-8.357-15.37c-4.73-11.155-7.146-23.044-7.146-35.318 0-12.25 2.407-24.118 7.12-35.259a90.612 90.612 0 0 1 8.346-15.376 91.278 91.278 0 0 1 11.044-13.39 91.292 91.292 0 0 1 13.383-11.053 90.557 90.557 0 0 1 15.368-8.358c11.158-4.73 23.045-7.146 35.32-7.146" fill-rule="evenodd" fill="url(&quot;#i&quot;)" transform="translate(27.45 27.45)" data-name="Path 948"/><path d="M196.793 96.606c-13.543 0-26.673 2.658-39.017 7.883a100.123 100.123 0 0 0-17.01 9.236 100.726 100.726 0 0 0-27.042 27.043 100.16 100.16 0 0 0-9.236 17.01c-5.226 12.343-7.883 25.473-7.883 39.016 0 13.544 2.657 26.673 7.883 39.018a100.163 100.163 0 0 0 9.236 17.009 100.865 100.865 0 0 0 12.227 14.817 100.87 100.87 0 0 0 14.815 12.226 100.114 100.114 0 0 0 17.01 9.236c12.344 5.225 25.474 7.884 39.017 7.884 13.544 0 26.673-2.659 39.018-7.884a100.155 100.155 0 0 0 17.009-9.236 100.95 100.95 0 0 0 14.817-12.226 100.94 100.94 0 0 0 12.225-14.817 100.163 100.163 0 0 0 9.237-17.009c5.225-12.345 7.882-25.474 7.882-39.018 0-13.543-2.657-26.673-7.882-39.017a100.16 100.16 0 0 0-9.237-17.008 100.8 100.8 0 0 0-12.225-14.817 100.941 100.941 0 0 0-14.817-12.227 100.164 100.164 0 0 0-17.009-9.236c-12.345-5.225-25.474-7.883-39.018-7.883m0-3.485c14.016 0 27.598 2.752 40.355 8.149a103.656 103.656 0 0 1 17.6 9.554 104.419 104.419 0 0 1 15.33 12.644 103.829 103.829 0 0 1 22.216 32.917c5.411 12.772 8.172 26.373 8.172 40.41 0 14.015-2.752 27.597-8.148 40.354a103.706 103.706 0 0 1-9.553 17.6 104.415 104.415 0 0 1-12.645 15.33 104.408 104.408 0 0 1-15.323 12.654 103.699 103.699 0 0 1-17.595 9.563c-12.772 5.412-26.372 8.173-40.409 8.173-14.016 0-27.598-2.753-40.354-8.15a103.659 103.659 0 0 1-17.6-9.553 104.416 104.416 0 0 1-15.331-12.645 104.408 104.408 0 0 1-12.652-15.323 103.649 103.649 0 0 1-9.563-17.594c-5.412-12.772-8.173-26.373-8.173-40.41 0-14.016 2.752-27.596 8.149-40.354a103.742 103.742 0 0 1 9.553-17.6 104.5 104.5 0 0 1 12.644-15.331 104.498 104.498 0 0 1 15.324-12.652 103.549 103.549 0 0 1 17.594-9.563c12.772-5.412 26.372-8.173 40.41-8.173" fill-rule="evenodd" fill="url(&quot;#j&quot;)" transform="translate(24.706 24.706)" data-name="Path 949"/><path d="M199.538 85.885c-15.358 0-30.25 3.013-44.256 8.941a113.505 113.505 0 0 0-19.298 10.478 114.415 114.415 0 0 0-16.81 13.87 114.51 114.51 0 0 0-13.872 16.811 113.639 113.639 0 0 0-10.477 19.298c-5.928 14.005-8.94 28.897-8.94 44.256 0 15.36 3.012 30.251 8.94 44.257a113.586 113.586 0 0 0 10.477 19.297 114.507 114.507 0 0 0 13.873 16.811 114.51 114.51 0 0 0 16.81 13.872 113.684 113.684 0 0 0 19.297 10.478c14.005 5.926 28.898 8.94 44.256 8.94 15.36 0 30.251-3.014 44.257-8.94a113.68 113.68 0 0 0 19.297-10.478 114.591 114.591 0 0 0 16.811-13.872 114.585 114.585 0 0 0 13.872-16.81 113.68 113.68 0 0 0 10.478-19.298c5.926-14.006 8.94-28.897 8.94-44.257s-3.014-30.25-8.94-44.256a113.732 113.732 0 0 0-10.478-19.298 114.589 114.589 0 0 0-13.872-16.81 114.497 114.497 0 0 0-16.81-13.87 113.502 113.502 0 0 0-19.298-10.479c-14.006-5.928-28.897-8.94-44.257-8.94m0-3.112c15.781 0 31.076 3.097 45.45 9.177a116.75 116.75 0 0 1 19.826 10.762 117.461 117.461 0 0 1 31.521 31.507 116.788 116.788 0 0 1 10.771 19.82c6.092 14.388 9.198 29.7 9.198 45.5 0 15.78-3.098 31.077-9.178 45.45a116.675 116.675 0 0 1-10.761 19.825 117.602 117.602 0 0 1-14.244 17.27 117.536 117.536 0 0 1-17.264 14.252 116.743 116.743 0 0 1-19.82 10.77c-14.386 6.092-29.699 9.198-45.499 9.198-15.78 0-31.076-3.098-45.45-9.178a116.71 116.71 0 0 1-19.826-10.761 117.668 117.668 0 0 1-17.269-14.244 117.698 117.698 0 0 1-14.252-17.264 116.823 116.823 0 0 1-10.77-19.82c-6.093-14.386-9.198-29.699-9.198-45.499 0-15.78 3.097-31.076 9.179-45.45a116.789 116.789 0 0 1 10.76-19.826 117.522 117.522 0 0 1 14.245-17.269 117.609 117.609 0 0 1 17.262-14.252 116.782 116.782 0 0 1 19.82-10.77c14.388-6.093 29.7-9.198 45.5-9.198" fill-rule="evenodd" fill="url(&quot;#k&quot;)" transform="translate(21.96 21.96)" data-name="Path 950"/><path d="M202.283 75.164c-17.175 0-33.829 3.368-49.496 9.998a127.064 127.064 0 0 0-21.585 11.72 128.062 128.062 0 0 0-18.805 15.516 128.138 128.138 0 0 0-15.516 18.804 127.256 127.256 0 0 0-11.72 21.586c-6.629 15.667-9.997 32.321-9.997 49.496 0 17.174 3.368 33.83 9.997 49.495a127.256 127.256 0 0 0 11.72 21.587 128.145 128.145 0 0 0 15.516 18.805 128.057 128.057 0 0 0 18.805 15.516 127.061 127.061 0 0 0 21.585 11.72c15.667 6.628 32.321 9.997 49.496 9.997 17.176 0 33.83-3.369 49.497-9.998a127.007 127.007 0 0 0 21.585-11.719 127.982 127.982 0 0 0 18.805-15.516 128.058 128.058 0 0 0 15.516-18.805 127.075 127.075 0 0 0 11.72-21.587c6.628-15.665 9.997-32.32 9.997-49.495 0-17.175-3.369-33.829-9.998-49.496a127.075 127.075 0 0 0-11.719-21.586 128.051 128.051 0 0 0-15.516-18.804 127.988 127.988 0 0 0-18.805-15.516 127.01 127.01 0 0 0-21.585-11.72c-15.667-6.63-32.321-9.998-49.497-9.998m0-2.737c17.546 0 34.556 3.442 50.547 10.206a129.884 129.884 0 0 1 22.05 11.969 130.636 130.636 0 0 1 35.06 35.048 129.83 129.83 0 0 1 11.976 22.045c6.776 16.002 10.225 33.027 10.225 50.59 0 17.545-3.442 34.555-10.206 50.545a129.886 129.886 0 0 1-11.969 22.05 130.804 130.804 0 0 1-15.845 19.209 130.791 130.791 0 0 1-19.203 15.852 129.842 129.842 0 0 1-22.046 11.976c-16.001 6.776-33.026 10.225-50.589 10.225-17.546 0-34.555-3.443-50.546-10.206a129.829 129.829 0 0 1-22.05-11.97 130.715 130.715 0 0 1-19.208-15.844 130.808 130.808 0 0 1-15.852-19.204 129.919 129.919 0 0 1-11.976-22.045c-6.776-16.003-10.225-33.026-10.225-50.589 0-17.546 3.443-34.555 10.207-50.546a129.802 129.802 0 0 1 11.969-22.05 130.862 130.862 0 0 1 15.844-19.21 130.786 130.786 0 0 1 19.204-15.85 129.84 129.84 0 0 1 22.045-11.977c16.001-6.775 33.026-10.224 50.588-10.224" fill-rule="evenodd" fill="url(&quot;#l&quot;)" transform="translate(19.215 19.216)" data-name="Path 951"/><path d="M205.028 64.445c-18.99 0-37.407 3.723-54.734 11.055a140.583 140.583 0 0 0-23.874 12.96 141.625 141.625 0 0 0-20.8 17.162 141.693 141.693 0 0 0-17.16 20.799 140.725 140.725 0 0 0-12.963 23.874c-7.33 17.328-11.053 35.745-11.053 54.736 0 18.99 3.722 37.406 11.053 54.733A140.738 140.738 0 0 0 88.46 283.64a141.609 141.609 0 0 0 17.162 20.798A141.62 141.62 0 0 0 126.42 321.6a140.471 140.471 0 0 0 23.874 12.959c17.327 7.332 35.743 11.055 54.734 11.055s37.408-3.723 54.735-11.055a140.528 140.528 0 0 0 23.875-12.96 141.611 141.611 0 0 0 20.798-17.162 141.616 141.616 0 0 0 17.161-20.798 140.564 140.564 0 0 0 12.962-23.875c7.331-17.327 11.054-35.744 11.054-54.733 0-18.991-3.723-37.408-11.054-54.736a140.551 140.551 0 0 0-12.962-23.874 141.7 141.7 0 0 0-17.16-20.8 141.616 141.616 0 0 0-20.799-17.16A140.64 140.64 0 0 0 259.763 75.5c-17.327-7.332-35.744-11.055-54.735-11.055m0-2.364c19.311 0 38.035 3.787 55.642 11.235a142.995 142.995 0 0 1 24.276 13.177 144.034 144.034 0 0 1 21.148 17.444 143.97 143.97 0 0 1 17.45 21.142 142.954 142.954 0 0 1 13.183 24.273c7.457 17.617 11.25 36.352 11.25 55.679 0 19.31-3.786 38.034-11.234 55.642a143.022 143.022 0 0 1-13.177 24.275 143.912 143.912 0 0 1-17.445 21.147 143.927 143.927 0 0 1-21.143 17.45 143.108 143.108 0 0 1-24.271 13.184c-17.617 7.458-36.354 11.25-55.679 11.25-19.31 0-38.035-3.789-55.642-11.235a142.93 142.93 0 0 1-24.275-13.177 143.905 143.905 0 0 1-21.147-17.445 144.043 144.043 0 0 1-17.45-21.142 142.986 142.986 0 0 1-13.184-24.272c-7.458-17.617-11.25-36.354-11.25-55.677 0-19.312 3.787-38.036 11.235-55.644a143.016 143.016 0 0 1 13.175-24.275 143.998 143.998 0 0 1 17.446-21.147 143.978 143.978 0 0 1 21.142-17.45A143.025 143.025 0 0 1 149.35 73.33c17.617-7.457 36.353-11.25 55.678-11.25" fill-rule="evenodd" fill="url(&quot;#m&quot;)" transform="translate(16.47 16.47)" data-name="Path 952"/><path d="M207.773 53.724c-20.806 0-40.985 4.078-59.974 12.112a154.06 154.06 0 0 0-26.161 14.203 155.042 155.042 0 0 0-22.794 18.806 155.12 155.12 0 0 0-18.806 22.794A154.053 154.053 0 0 0 65.835 147.8c-8.034 18.989-12.112 39.168-12.112 59.974 0 20.807 4.078 40.986 12.112 59.975a154.065 154.065 0 0 0 14.203 26.163 155.182 155.182 0 0 0 18.806 22.793 155.202 155.202 0 0 0 22.794 18.806 154.058 154.058 0 0 0 26.161 14.203c18.989 8.032 39.168 12.112 59.974 12.112 20.807 0 40.986-4.08 59.975-12.112a154.118 154.118 0 0 0 26.163-14.203 155.259 155.259 0 0 0 22.792-18.806 155.102 155.102 0 0 0 18.806-22.793 153.885 153.885 0 0 0 14.203-26.163c8.034-18.989 12.112-39.168 12.112-59.975 0-20.806-4.078-40.985-12.112-59.974a153.873 153.873 0 0 0-14.203-26.161 155.04 155.04 0 0 0-18.806-22.794A155.099 155.099 0 0 0 293.91 80.04a154.119 154.119 0 0 0-26.163-14.203c-18.989-8.034-39.168-12.112-59.975-12.112m0-1.99c21.077 0 41.514 4.133 60.74 12.263a156.113 156.113 0 0 1 26.499 14.384 157.1 157.1 0 0 1 23.086 19.046 157.178 157.178 0 0 1 19.05 23.083 156.07 156.07 0 0 1 14.39 26.497c8.14 19.231 12.276 39.68 12.276 60.767 0 21.077-4.131 41.515-12.262 60.74a156.045 156.045 0 0 1-14.385 26.5 157.088 157.088 0 0 1-19.046 23.085 157.107 157.107 0 0 1-23.082 19.05 156.12 156.12 0 0 1-26.496 14.391c-19.233 8.139-39.682 12.276-60.77 12.276-21.076 0-41.513-4.132-60.737-12.263a155.987 155.987 0 0 1-26.5-14.386 157.084 157.084 0 0 1-23.087-19.044 157.096 157.096 0 0 1-19.05-23.083 156.027 156.027 0 0 1-14.389-26.497c-8.14-19.232-12.277-39.68-12.277-60.769 0-21.076 4.133-41.513 12.263-60.737a156.076 156.076 0 0 1 14.384-26.5A157.175 157.175 0 0 1 97.426 97.45a157.089 157.089 0 0 1 23.083-19.05 156.027 156.027 0 0 1 26.497-14.39c19.231-8.14 39.68-12.276 60.767-12.276" fill-rule="evenodd" fill="url(&quot;#n&quot;)" transform="translate(13.725 13.725)" data-name="Path 953"/><path d="M210.519 43.003c-22.623 0-44.565 4.433-65.213 13.17a167.442 167.442 0 0 0-28.45 15.444 168.768 168.768 0 0 0-24.788 20.45 168.826 168.826 0 0 0-20.452 24.788 167.637 167.637 0 0 0-15.445 28.452c-8.736 20.648-13.168 42.59-13.168 65.213 0 22.622 4.432 44.564 13.168 65.212a167.594 167.594 0 0 0 15.445 28.452 168.756 168.756 0 0 0 20.452 24.787 168.687 168.687 0 0 0 24.787 20.452 167.362 167.362 0 0 0 28.45 15.444c20.65 8.736 42.591 13.17 65.214 13.17 22.622 0 44.564-4.434 65.212-13.17a167.423 167.423 0 0 0 28.452-15.444 168.823 168.823 0 0 0 24.788-20.452 168.836 168.836 0 0 0 20.45-24.787 167.504 167.504 0 0 0 15.445-28.452c8.736-20.648 13.17-42.59 13.17-65.212 0-22.623-4.434-44.565-13.17-65.213a167.546 167.546 0 0 0-15.444-28.452 168.906 168.906 0 0 0-20.451-24.787 168.904 168.904 0 0 0-24.788-20.451 167.502 167.502 0 0 0-28.452-15.445c-20.648-8.736-42.59-13.17-65.212-13.17m0-1.615c22.841 0 44.993 4.477 65.834 13.292a169.084 169.084 0 0 1 28.725 15.592 170.274 170.274 0 0 1 25.025 20.645 170.353 170.353 0 0 1 20.65 25.023 169.077 169.077 0 0 1 15.596 28.723c8.823 20.847 13.302 43.007 13.302 65.858 0 22.841-4.476 44.993-13.292 65.834a169.167 169.167 0 0 1-15.591 28.725 170.285 170.285 0 0 1-20.646 25.025 170.287 170.287 0 0 1-25.023 20.65 169.029 169.029 0 0 1-28.722 15.596c-20.848 8.822-43.008 13.302-65.858 13.302-22.842 0-44.994-4.476-65.834-13.292a169.087 169.087 0 0 1-28.725-15.592 170.327 170.327 0 0 1-25.026-20.645 170.368 170.368 0 0 1-20.65-25.023 169.113 169.113 0 0 1-15.595-28.722c-8.821-20.848-13.303-43.007-13.303-65.858 0-22.842 4.478-44.994 13.292-65.834A169.173 169.173 0 0 1 70.27 115.96a170.282 170.282 0 0 1 20.647-25.026 170.278 170.278 0 0 1 25.021-20.65 169.12 169.12 0 0 1 28.723-15.596c20.847-8.822 43.006-13.302 65.858-13.302" fill-rule="evenodd" fill="url(&quot;#o&quot;)" transform="translate(10.98 10.98)" data-name="Path 954"/><path d="M213.263 32.283c-24.438 0-48.142 4.789-70.452 14.225a180.885 180.885 0 0 0-30.74 16.687 182.227 182.227 0 0 0-26.78 22.096 182.327 182.327 0 0 0-22.097 26.782 180.965 180.965 0 0 0-16.684 30.74c-9.438 22.31-14.227 46.012-14.227 70.452 0 24.438 4.789 48.142 14.227 70.452a180.963 180.963 0 0 0 16.684 30.74 182.39 182.39 0 0 0 22.097 26.781 182.306 182.306 0 0 0 26.78 22.096 180.968 180.968 0 0 0 30.74 16.686c22.31 9.438 46.014 14.226 70.452 14.226 24.439 0 48.143-4.788 70.453-14.226a180.97 180.97 0 0 0 30.74-16.686 182.317 182.317 0 0 0 26.78-22.096 182.378 182.378 0 0 0 22.097-26.781 180.975 180.975 0 0 0 16.687-30.74c9.436-22.31 14.226-46.014 14.226-70.452 0-24.44-4.79-48.143-14.226-70.453a180.977 180.977 0 0 0-16.687-30.74 182.315 182.315 0 0 0-22.096-26.78 182.238 182.238 0 0 0-26.782-22.097 180.887 180.887 0 0 0-30.74-16.687c-22.309-9.436-46.013-14.225-70.452-14.225m0-1.243c24.607 0 48.473 4.822 70.93 14.32a182.137 182.137 0 0 1 30.95 16.8 183.542 183.542 0 0 1 26.966 22.246 183.539 183.539 0 0 1 22.248 26.962 182.133 182.133 0 0 1 16.803 30.948c9.504 22.463 14.33 46.335 14.33 70.949 0 24.606-4.824 48.471-14.323 70.93a182.192 182.192 0 0 1-16.799 30.95 183.533 183.533 0 0 1-22.245 26.964 183.548 183.548 0 0 1-26.963 22.249 182.355 182.355 0 0 1-30.948 16.803c-22.463 9.503-46.334 14.327-70.949 14.327-24.606 0-48.472-4.82-70.929-14.32a182.176 182.176 0 0 1-30.95-16.8 183.54 183.54 0 0 1-26.964-22.245 183.477 183.477 0 0 1-22.25-26.963 182.207 182.207 0 0 1-16.8-30.948c-9.504-22.462-14.33-46.334-14.33-70.947 0-24.607 4.82-48.473 14.32-70.931a182.256 182.256 0 0 1 16.799-30.95A183.562 183.562 0 0 1 84.406 84.42a183.39 183.39 0 0 1 26.962-22.248 182.117 182.117 0 0 1 30.947-16.804c22.463-9.503 46.334-14.328 70.948-14.328" fill-rule="evenodd" fill="url(&quot;#p&quot;)" transform="translate(8.235 8.235)" data-name="Path 955"/><path d="M216.009 21.563c-26.254 0-51.721 5.144-75.691 15.284a194.313 194.313 0 0 0-33.029 17.927 195.803 195.803 0 0 0-28.774 23.74 195.887 195.887 0 0 0-23.742 28.776 194.584 194.584 0 0 0-17.928 33.029c-10.14 23.97-15.283 49.437-15.283 75.692 0 26.254 5.144 51.72 15.283 75.69a194.633 194.633 0 0 0 17.928 33.03 195.885 195.885 0 0 0 23.742 28.775 195.798 195.798 0 0 0 28.774 23.74 194.399 194.399 0 0 0 33.029 17.928c23.97 10.14 49.437 15.283 75.69 15.283 26.255 0 51.721-5.143 75.693-15.283a194.434 194.434 0 0 0 33.027-17.927 195.872 195.872 0 0 0 28.775-23.741 195.87 195.87 0 0 0 23.741-28.776 194.37 194.37 0 0 0 17.929-33.028c10.139-23.97 15.283-49.437 15.283-75.691 0-26.255-5.144-51.722-15.283-75.692a194.322 194.322 0 0 0-17.929-33.029 195.872 195.872 0 0 0-23.74-28.775 195.877 195.877 0 0 0-28.776-23.741A194.348 194.348 0 0 0 291.7 36.847c-23.972-10.14-49.438-15.284-75.692-15.284m0-.869c26.371 0 51.95 5.166 76.026 15.348A195.459 195.459 0 0 1 325.21 54.05a196.798 196.798 0 0 1 28.903 23.846 196.729 196.729 0 0 1 23.848 28.902 195.233 195.233 0 0 1 18.01 33.174c10.186 24.078 15.355 49.662 15.355 76.039 0 26.37-5.167 51.951-15.35 76.025a195.272 195.272 0 0 1-18.008 33.175 196.588 196.588 0 0 1-23.846 28.903 196.66 196.66 0 0 1-28.902 23.849 195.264 195.264 0 0 1-33.174 18.009c-24.077 10.186-49.66 15.355-76.037 15.355-26.372 0-51.951-5.167-76.025-15.35a195.262 195.262 0 0 1-33.175-18.006 196.732 196.732 0 0 1-28.904-23.847 196.721 196.721 0 0 1-23.848-28.902 195.491 195.491 0 0 1-18.01-33.174c-10.184-24.077-15.354-49.662-15.354-76.037 0-26.373 5.166-51.952 15.35-76.026a195.352 195.352 0 0 1 18.006-33.175 196.668 196.668 0 0 1 23.846-28.904 196.658 196.658 0 0 1 28.902-23.848 195.316 195.316 0 0 1 33.174-18.01c24.078-10.185 49.661-15.354 76.038-15.354" fill-rule="evenodd" fill="url(&quot;#q&quot;)" transform="translate(5.49 5.49)" data-name="Path 956"/><path d="M218.754 10.842c-28.07 0-55.3 5.499-80.93 16.341a207.879 207.879 0 0 0-35.317 19.17A209.35 209.35 0 0 0 71.74 71.739a209.458 209.458 0 0 0-25.389 30.77 207.96 207.96 0 0 0-19.168 35.315c-10.842 25.632-16.34 52.861-16.34 80.93 0 28.072 5.498 55.3 16.34 80.931a207.97 207.97 0 0 0 19.168 35.318 209.523 209.523 0 0 0 25.389 30.77 209.43 209.43 0 0 0 30.768 25.385 207.875 207.875 0 0 0 35.316 19.17c25.632 10.84 52.861 16.34 80.93 16.34 28.072 0 55.3-5.5 80.931-16.34A207.828 207.828 0 0 0 335 391.158a209.439 209.439 0 0 0 30.77-25.386 209.508 209.508 0 0 0 25.387-30.77 207.972 207.972 0 0 0 19.17-35.317c10.84-25.631 16.34-52.86 16.34-80.93 0-28.07-5.5-55.3-16.34-80.93a207.964 207.964 0 0 0-19.17-35.317 209.443 209.443 0 0 0-25.387-30.77A209.359 209.359 0 0 0 335 46.354a207.832 207.832 0 0 0-35.316-19.17c-25.631-10.842-52.86-16.341-80.93-16.341m0-.495c28.136 0 55.43 5.512 81.121 16.378a208.313 208.313 0 0 1 35.4 19.215 209.855 209.855 0 0 1 30.843 25.447 209.79 209.79 0 0 1 25.448 30.842 208.53 208.53 0 0 1 19.216 35.398c10.868 25.693 16.38 52.99 16.38 81.128 0 28.136-5.512 55.43-16.376 81.121a208.55 208.55 0 0 1-19.216 35.401 209.837 209.837 0 0 1-25.447 30.842 209.762 209.762 0 0 1-30.842 25.448 208.416 208.416 0 0 1-35.4 19.216c-25.691 10.868-52.988 16.38-81.127 16.38-28.137 0-55.43-5.51-81.122-16.377a208.447 208.447 0 0 1-35.4-19.215 209.981 209.981 0 0 1-30.842-25.447 209.843 209.843 0 0 1-25.447-30.842 208.547 208.547 0 0 1-19.216-35.4c-10.868-25.691-16.381-52.988-16.381-81.127 0-28.137 5.512-55.43 16.378-81.122a208.581 208.581 0 0 1 19.214-35.4 209.942 209.942 0 0 1 25.448-30.842 209.84 209.84 0 0 1 30.842-25.447 208.354 208.354 0 0 1 35.398-19.216c25.693-10.868 52.989-16.381 81.128-16.381" fill-rule="evenodd" fill="url(&quot;#r&quot;)" transform="translate(2.745 2.745)" data-name="Path 957"/><path d="M221.498.121c-29.885 0-58.877 5.855-86.17 17.398A221.298 221.298 0 0 0 97.725 37.93 223.011 223.011 0 0 0 64.96 64.962 222.912 222.912 0 0 0 37.93 97.725a221.453 221.453 0 0 0-20.412 37.605C5.976 162.623.12 191.613.12 221.5s5.855 58.877 17.397 86.17a221.453 221.453 0 0 0 20.412 37.605 222.986 222.986 0 0 0 27.03 32.764 223.082 223.082 0 0 0 32.765 27.03 221.207 221.207 0 0 0 37.603 20.411c27.293 11.544 56.285 17.398 86.17 17.398 29.887 0 58.878-5.854 86.17-17.398a221.27 221.27 0 0 0 37.606-20.41 223.076 223.076 0 0 0 32.762-27.031 222.994 222.994 0 0 0 27.032-32.764 221.273 221.273 0 0 0 20.412-37.605c11.542-27.293 17.398-56.283 17.398-86.17s-5.856-58.877-17.398-86.17a221.273 221.273 0 0 0-20.412-37.605 222.92 222.92 0 0 0-27.032-32.763 223.005 223.005 0 0 0-32.762-27.032 221.36 221.36 0 0 0-37.605-20.41C280.376 5.975 251.385.12 221.499.12m0 442.879c-29.902 0-58.91-5.856-86.217-17.406a221.508 221.508 0 0 1-37.626-20.423 223.1 223.1 0 0 1-32.781-27.047 223.287 223.287 0 0 1-27.048-32.782c-7.999-11.84-14.868-24.5-20.42-37.625C5.856 280.41 0 251.402 0 221.5s5.855-58.91 17.406-86.217a221.585 221.585 0 0 1 20.42-37.625 223.285 223.285 0 0 1 27.048-32.782A223.095 223.095 0 0 1 97.656 37.83c11.841-8 24.5-14.871 37.626-20.422C162.589 5.857 191.597 0 221.498 0c29.902 0 58.91 5.857 86.217 17.407a221.502 221.502 0 0 1 37.626 20.422 222.964 222.964 0 0 1 32.781 27.047 222.963 222.963 0 0 1 27.047 32.782c8.001 11.84 14.872 24.5 20.424 37.625 11.55 27.308 17.405 56.315 17.405 86.217s-5.856 58.91-17.405 86.217a221.503 221.503 0 0 1-20.424 37.625 222.966 222.966 0 0 1-27.047 32.782 222.968 222.968 0 0 1-32.781 27.047c-11.841 8-24.5 14.871-37.626 20.423C280.41 437.144 251.4 443 221.498 443" fill-rule="evenodd" fill="url(&quot;#s&quot;)" data-name="Path 958"/></g></g><g data-name="Group 251"><g data-name="Group 250" transform="translate(238.968 3960.97)" clip-path="url(&quot;#t&quot;)"><path d="M0 0h24.062v24.061H0V0z" fill-rule="evenodd" fill="url(&quot;#u&quot;)" data-name="Rectangle 212"/></g></g><g data-name="Group 253"><g data-name="Group 252" transform="translate(225.877 3947.877)" clip-path="url(&quot;#v&quot;)"><path d="M0 0h50.244v50.245H0V0z" fill-rule="evenodd" fill="url(&quot;#w&quot;)" data-name="Rectangle 213"/></g></g><g data-name="Group 255"><g data-name="Group 254" transform="translate(212.785 3934.785)" clip-path="url(&quot;#x&quot;)"><path d="M0 0h76.43v76.43H0V0z" fill-rule="evenodd" fill="url(&quot;#y&quot;)" data-name="Rectangle 214"/></g></g><g data-name="Group 257"><g data-name="Group 256" transform="translate(199.693 3921.694)" clip-path="url(&quot;#z&quot;)"><path d="M0 0h102.613v102.611H0V0z" fill-rule="evenodd" fill="url(&quot;#A&quot;)" data-name="Rectangle 215"/></g></g><g data-name="Group 259"><g data-name="Group 258" transform="translate(186.6 3908.602)" clip-path="url(&quot;#B&quot;)"><path d="M0 0h128.796v128.797H0V0z" fill-rule="evenodd" fill="url(&quot;#C&quot;)" data-name="Rectangle 216"/></g></g><g data-name="Group 261"><g data-name="Group 260" transform="translate(173.51 3895.51)" clip-path="url(&quot;#D&quot;)"><path d="M0 0h154.98v154.98H0V0z" fill-rule="evenodd" fill="url(&quot;#E&quot;)" data-name="Rectangle 217"/></g></g><g data-name="Group 263"><g data-name="Group 262" transform="translate(160.418 3882.418)" clip-path="url(&quot;#F&quot;)"><path d="M0 0h181.163v181.163H0V0z" fill-rule="evenodd" fill="url(&quot;#G&quot;)" data-name="Rectangle 218"/></g></g><g data-name="Group 265"><g data-name="Group 264" transform="translate(147.326 3869.327)" clip-path="url(&quot;#H&quot;)"><path d="M0 0h207.346v207.347H0V0z" fill-rule="evenodd" fill="url(&quot;#I&quot;)" data-name="Rectangle 219"/></g></g><g data-name="Group 267"><g data-name="Group 266" transform="translate(134.235 3856.235)" clip-path="url(&quot;#J&quot;)"><path d="M0 0h233.53v233.53H0V0z" fill-rule="evenodd" fill="url(&quot;#K&quot;)" data-name="Rectangle 220"/></g></g><g data-name="Group 269"><g data-name="Group 268" transform="translate(121.143 3843.143)" clip-path="url(&quot;#L&quot;)"><path d="M0 0h259.713v259.715H0V0z" fill-rule="evenodd" fill="url(&quot;#M&quot;)" data-name="Rectangle 221"/></g></g><g data-name="Group 271"><g data-name="Group 270" transform="translate(108.05 3830.052)" clip-path="url(&quot;#N&quot;)"><path d="M0 0h285.898v285.898H0V0z" fill-rule="evenodd" fill="url(&quot;#O&quot;)" data-name="Rectangle 222"/></g></g><g data-name="Group 273"><g data-name="Group 272" transform="translate(94.96 3816.96)" clip-path="url(&quot;#P&quot;)"><path d="M0 0h312.08v312.08H0V0z" fill-rule="evenodd" fill="url(&quot;#Q&quot;)" data-name="Rectangle 223"/></g></g><g data-name="Group 275"><g data-name="Group 274" transform="translate(81.867 3803.867)" clip-path="url(&quot;#R&quot;)"><path d="M0 0h338.264v338.265H0V0z" fill-rule="evenodd" fill="url(&quot;#S&quot;)" data-name="Rectangle 224"/></g></g><g data-name="Group 277"><g data-name="Group 276" transform="translate(68.775 3790.775)" clip-path="url(&quot;#T&quot;)"><path d="M0 0h364.45v364.45H0V0z" fill-rule="evenodd" fill="url(&quot;#U&quot;)" data-name="Rectangle 225"/></g></g><g data-name="Group 279"><g data-name="Group 278" transform="translate(55.684 3777.684)" clip-path="url(&quot;#V&quot;)"><path d="M0 0h390.631v390.631H0V0z" fill-rule="evenodd" fill="url(&quot;#W&quot;)" data-name="Rectangle 226"/></g></g><g data-name="Group 281"><g data-name="Group 280" transform="translate(42.591 3764.592)" clip-path="url(&quot;#X&quot;)"><path d="M0 0h416.815v416.817H0V0z" fill-rule="evenodd" fill="url(&quot;#Y&quot;)" data-name="Rectangle 227"/></g></g><g data-name="Group 283"><g data-name="Group 282" transform="translate(29.5 3751.5)" clip-path="url(&quot;#Z&quot;)"><path d="M0 0h443v443H0V0z" fill-rule="evenodd" fill="url(&quot;#aa&quot;)" data-name="Rectangle 228"/></g></g></g></g><defs><radialGradient fx=".5" fy=".5" cx=".5" cy=".5" fr="0" r="1.851" gradientTransform="rotate(-44.526 .5 .5)" id="c"><stop stop-color="#c00" offset="0"/><stop offset="1"/></radialGradient><radialGradient fx=".5" fy=".5" cx=".5" cy=".5" fr="0" r="1.851" gradientTransform="rotate(-44.526 .5 .5)" id="d"><stop stop-color="#c00" offset="0"/><stop offset="1"/></radialGradient><radialGradient fx=".5" fy=".5" cx=".5" cy=".5" fr="0" r="1.851" gradientTransform="rotate(-44.526 .5 .5)" id="e"><stop stop-color="#c00" offset="0"/><stop offset="1"/></radialGradient><radialGradient fx=".5" fy=".5" cx=".5" cy=".5" fr="0" r="1.851" gradientTransform="rotate(-44.526 .5 .5)" id="f"><stop stop-color="#c00" offset="0"/><stop offset="1"/></radialGradient><radialGradient fx=".5" fy=".5" cx=".5" cy=".5" fr="0" r="1.851" gradientTransform="rotate(-44.526 .5 .5)" id="g"><stop stop-color="#c00" offset="0"/><stop offset="1"/></radialGradient><radialGradient fx=".5" fy=".5" cx=".5" cy=".5" fr="0" r="1.851" gradientTransform="rotate(-44.526 .5 .5)" id="h"><stop stop-color="#c00" offset="0"/><stop offset="1"/></radialGradient><radialGradient fx=".5" fy=".5" cx=".5" cy=".5" fr="0" r="1.851" gradientTransform="rotate(-44.526 .5 .5)" id="i"><stop stop-color="#c00" offset="0"/><stop offset="1"/></radialGradient><radialGradient fx=".5" fy=".5" cx=".5" cy=".5" fr="0" r="1.851" gradientTransform="rotate(-44.526 .5 .5)" id="j"><stop stop-color="#c00" offset="0"/><stop offset="1"/></radialGradient><radialGradient fx=".5" fy=".5" cx=".5" cy=".5" fr="0" r="1.851" gradientTransform="rotate(-44.526 .5 .5)" id="k"><stop stop-color="#c00" offset="0"/><stop offset="1"/></radialGradient><radialGradient fx=".5" fy=".5" cx=".5" cy=".5" fr="0" r="1.851" gradientTransform="rotate(-44.526 .5 .5)" id="l"><stop stop-color="#c00" offset="0"/><stop offset="1"/></radialGradient><radialGradient fx=".5" fy=".5" cx=".5" cy=".5" fr="0" r="1.851" gradientTransform="rotate(-44.526 .5 .5)" id="m"><stop stop-color="#c00" offset="0"/><stop offset="1"/></radialGradient><radialGradient fx=".5" fy=".5" cx=".5" cy=".5" fr="0" r="1.851" gradientTransform="rotate(-44.526 .5 .5)" id="n"><stop stop-color="#c00" offset="0"/><stop offset="1"/></radialGradient><radialGradient fx=".5" fy=".5" cx=".5" cy=".5" fr="0" r="1.851" gradientTransform="rotate(-44.526 .5 .5)" id="o"><stop stop-color="#c00" offset="0"/><stop offset="1"/></radialGradient><radialGradient fx=".5" fy=".5" cx=".5" cy=".5" fr="0" r="1.851" gradientTransform="rotate(-44.526 .5 .5)" id="p"><stop stop-color="#c00" offset="0"/><stop offset="1"/></radialGradient><radialGradient fx=".5" fy=".5" cx=".5" cy=".5" fr="0" r="1.851" gradientTransform="rotate(-44.526 .5 .5)" id="q"><stop stop-color="#c00" offset="0"/><stop offset="1"/></radialGradient><radialGradient fx=".5" fy=".5" cx=".5" cy=".5" fr="0" r="1.851" gradientTransform="rotate(-44.526 .5 .5)" id="r"><stop stop-color="#c00" offset="0"/><stop offset="1"/></radialGradient><radialGradient fx=".5" fy=".5" cx=".5" cy=".5" fr="0" r="1.851" gradientTransform="rotate(-44.526 .5 .5)" id="s"><stop stop-color="#c00" offset="0"/><stop offset="1"/></radialGradient><radialGradient fx=".5" fy=".5" cx=".5" cy=".5" fr="0" r="1.851" gradientTransform="rotate(-44.526 .5 .5)" id="u"><stop stop-color="#c00" offset="0"/><stop offset="1"/></radialGradient><radialGradient fx=".5" fy=".5" cx=".5" cy=".5" fr="0" r="1.851" gradientTransform="rotate(-44.526 .5 .5)" id="w"><stop stop-color="#c00" offset="0"/><stop offset="1"/></radialGradient><radialGradient fx=".5" fy=".5" cx=".5" cy=".5" fr="0" r="1.851" gradientTransform="rotate(-44.526 .5 .5)" id="y"><stop stop-color="#c00" offset="0"/><stop offset="1"/></radialGradient><radialGradient fx=".5" fy=".5" cx=".5" cy=".5" fr="0" r="1.851" gradientTransform="rotate(-44.526 .5 .5)" id="A"><stop stop-color="#c00" offset="0"/><stop offset="1"/></radialGradient><radialGradient fx=".5" fy=".5" cx=".5" cy=".5" fr="0" r="1.851" gradientTransform="rotate(-44.526 .5 .5)" id="C"><stop stop-color="#c00" offset="0"/><stop offset="1"/></radialGradient><radialGradient fx=".5" fy=".5" cx=".5" cy=".5" fr="0" r="1.851" gradientTransform="rotate(-44.526 .5 .5)" id="E"><stop stop-color="#c00" offset="0"/><stop offset="1"/></radialGradient><radialGradient fx=".5" fy=".5" cx=".5" cy=".5" fr="0" r="1.851" gradientTransform="rotate(-44.526 .5 .5)" id="G"><stop stop-color="#c00" offset="0"/><stop offset="1"/></radialGradient><radialGradient fx=".5" fy=".5" cx=".5" cy=".5" fr="0" r="1.851" gradientTransform="rotate(-44.526 .5 .5)" id="I"><stop stop-color="#c00" offset="0"/><stop offset="1"/></radialGradient><radialGradient fx=".5" fy=".5" cx=".5" cy=".5" fr="0" r="1.851" gradientTransform="rotate(-44.526 .5 .5)" id="K"><stop stop-color="#c00" offset="0"/><stop offset="1"/></radialGradient><radialGradient fx=".5" fy=".5" cx=".5" cy=".5" fr="0" r="1.851" gradientTransform="rotate(-44.526 .5 .5)" id="M"><stop stop-color="#c00" offset="0"/><stop offset="1"/></radialGradient><radialGradient fx=".5" fy=".5" cx=".5" cy=".5" fr="0" r="1.851" gradientTransform="rotate(-44.526 .5 .5)" id="O"><stop stop-color="#c00" offset="0"/><stop offset="1"/></radialGradient><radialGradient fx=".5" fy=".5" cx=".5" cy=".5" fr="0" r="1.851" gradientTransform="rotate(-44.526 .5 .5)" id="Q"><stop stop-color="#c00" offset="0"/><stop offset="1"/></radialGradient><radialGradient fx=".5" fy=".5" cx=".5" cy=".5" fr="0" r="1.851" gradientTransform="rotate(-44.526 .5 .5)" id="S"><stop stop-color="#c00" offset="0"/><stop offset="1"/></radialGradient><radialGradient fx=".5" fy=".5" cx=".5" cy=".5" fr="0" r="1.851" gradientTransform="rotate(-44.526 .5 .5)" id="U"><stop stop-color="#c00" offset="0"/><stop offset="1"/></radialGradient><radialGradient fx=".5" fy=".5" cx=".5" cy=".5" fr="0" r="1.851" gradientTransform="rotate(-44.526 .5 .5)" id="W"><stop stop-color="#c00" offset="0"/><stop offset="1"/></radialGradient><radialGradient fx=".5" fy=".5" cx=".5" cy=".5" fr="0" r="1.851" gradientTransform="rotate(-44.526 .5 .5)" id="Y"><stop stop-color="#c00" offset="0"/><stop offset="1"/></radialGradient><radialGradient fx=".5" fy=".5" cx=".5" cy=".5" fr="0" r="1.851" gradientTransform="rotate(-44.526 .5 .5)" id="aa"><stop stop-color="#c00" offset="0"/><stop offset="1"/></radialGradient><clipPath id="b"><path d="M0 0h442.999v443H0V0z" data-name="Rectangle 211"/></clipPath><clipPath id="t"><path d="M171.648 177.579c0-3.27 2.66-5.93 5.93-5.93a5.939 5.939 0 0 1 5.931 5.93c0 3.27-2.662 5.93-5.931 5.93a5.937 5.937 0 0 1-5.93-5.93m-6.101 0c0 6.634 5.397 12.03 12.03 12.03 6.636 0 12.032-5.396 12.032-12.03 0-6.636-5.396-12.031-12.031-12.031-6.634 0-12.031 5.395-12.031 12.03" data-name="Path 959" transform="translate(-165.547 -165.548)"/></clipPath><clipPath id="v"><path d="M172.74 198.18a19.487 19.487 0 0 1-8.487-6.995 19.288 19.288 0 0 1-3.325-10.861 19.282 19.282 0 0 1 3.325-10.862 19.582 19.582 0 0 1 5.21-5.206 19.293 19.293 0 0 1 10.86-3.328 19.289 19.289 0 0 1 10.862 3.328 19.49 19.49 0 0 1 5.207 5.207 19.281 19.281 0 0 1 3.327 10.861 19.287 19.287 0 0 1-3.327 10.861 19.565 19.565 0 0 1-5.207 5.208 19.287 19.287 0 0 1-10.863 3.327c-2.647 0-5.203-.528-7.583-1.54m-2.286-40.962a25.127 25.127 0 0 0-4.241 2.324 25.352 25.352 0 0 0-3.685 3.055 25.449 25.449 0 0 0-3.042 3.697 24.978 24.978 0 0 0-4.284 14.03 24.97 24.97 0 0 0 4.339 14.11 25.357 25.357 0 0 0 6.753 6.728 24.947 24.947 0 0 0 4.251 2.307 24.955 24.955 0 0 0 9.778 1.977 25 25 0 0 0 14.112-4.34 25.224 25.224 0 0 0 9.035-11.003 24.981 24.981 0 0 0 1.976-9.78 24.999 24.999 0 0 0-4.34-14.11 25.3 25.3 0 0 0-6.753-6.726 24.979 24.979 0 0 0-14.03-4.286c-3.46 0-6.788.698-9.869 2.017" data-name="Path 960" transform="translate(-155.201 -155.201)"/></clipPath><clipPath id="x"><path d="M170.246 213.333a32.786 32.786 0 0 1-5.567-3.028 33.12 33.12 0 0 1-8.846-8.847 32.664 32.664 0 0 1-5.626-18.389 32.663 32.663 0 0 1 5.626-18.389 33.132 33.132 0 0 1 4.001-4.846 32.866 32.866 0 0 1 10.412-7.029 32.658 32.658 0 0 1 12.822-2.597c4.464 0 8.78.883 12.822 2.597a32.919 32.919 0 0 1 10.412 7.029 32.914 32.914 0 0 1 7.03 10.414 32.664 32.664 0 0 1 2.598 12.82c0 4.465-.883 8.783-2.597 12.824a32.954 32.954 0 0 1-11.875 14.413 32.839 32.839 0 0 1-5.568 3.028 32.67 32.67 0 0 1-12.822 2.597 32.66 32.66 0 0 1-12.822-2.597m-2.138-65.436a38.111 38.111 0 0 0-6.466 3.53 38.478 38.478 0 0 0-10.268 10.291 37.998 37.998 0 0 0-6.52 21.35 37.996 37.996 0 0 0 6.572 21.428 38.55 38.55 0 0 0 4.656 5.624 38.616 38.616 0 0 0 5.635 4.642 38.057 38.057 0 0 0 21.35 6.522 37.98 37.98 0 0 0 14.962-3.043 38.231 38.231 0 0 0 12.09-8.186 38.458 38.458 0 0 0 4.642-5.634 37.996 37.996 0 0 0 6.523-21.352 38.008 38.008 0 0 0-6.573-21.427 38.652 38.652 0 0 0-4.656-5.624 38.235 38.235 0 0 0-12.113-8.158 37.967 37.967 0 0 0-14.874-3.006 37.98 37.98 0 0 0-14.96 3.043" data-name="Path 961" transform="translate(-144.854 -144.854)"/></clipPath><clipPath id="z"><path d="M167.752 228.486a46.263 46.263 0 0 1-7.855-4.27 46.588 46.588 0 0 1-12.485-12.486 46.161 46.161 0 0 1-4.27-7.854 46.053 46.053 0 0 1-3.656-18.062c0-6.28 1.239-12.36 3.655-18.061a46.176 46.176 0 0 1 4.27-7.855 46.542 46.542 0 0 1 12.486-12.486 46.25 46.25 0 0 1 7.855-4.27 46.028 46.028 0 0 1 18.06-3.655c6.282 0 12.36 1.237 18.062 3.656a46.216 46.216 0 0 1 7.856 4.269 46.62 46.62 0 0 1 12.486 12.486 46.43 46.43 0 0 1 4.27 7.855c2.417 5.701 3.654 11.781 3.654 18.06 0 6.28-1.237 12.36-3.655 18.063a46.414 46.414 0 0 1-9.915 14.694 46.53 46.53 0 0 1-6.84 5.646 46.228 46.228 0 0 1-7.856 4.27 46.038 46.038 0 0 1-18.061 3.656 46.051 46.051 0 0 1-18.061-3.656m-1.988-89.91a51.225 51.225 0 0 0-8.693 4.737 51.737 51.737 0 0 0-13.807 13.829 51.02 51.02 0 0 0-8.757 28.672 51.013 51.013 0 0 0 4.068 20.05 51.363 51.363 0 0 0 10.992 16.255 51.723 51.723 0 0 0 7.574 6.243 51.295 51.295 0 0 0 8.701 4.725c6.291 2.66 13.015 4.033 19.97 4.033 6.988 0 13.74-1.385 20.052-4.067a51.353 51.353 0 0 0 8.692-4.737 51.672 51.672 0 0 0 13.807-13.83 51.406 51.406 0 0 0 4.722-8.7c2.663-6.292 4.035-13.017 4.035-19.972 0-6.986-1.384-13.739-4.07-20.05a51.205 51.205 0 0 0-4.736-8.692 51.672 51.672 0 0 0-13.828-13.807 51.296 51.296 0 0 0-8.702-4.723c-6.29-2.662-13.015-4.034-19.971-4.034-6.986 0-13.738 1.384-20.05 4.068" data-name="Path 962" transform="translate(-134.507 -134.508)"/></clipPath><clipPath id="B"><path d="M165.259 243.64a59.967 59.967 0 0 1-10.144-5.511 60.237 60.237 0 0 1-16.126-16.125 59.921 59.921 0 0 1-5.511-10.144c-3.12-7.363-4.71-15.206-4.71-23.301 0-8.095 1.59-15.938 4.71-23.3a59.888 59.888 0 0 1 12.803-18.978 60.228 60.228 0 0 1 8.834-7.29 59.7 59.7 0 0 1 10.144-5.512c7.362-3.12 15.203-4.712 23.299-4.712 8.095 0 15.939 1.591 23.3 4.712a59.693 59.693 0 0 1 10.145 5.511 60.173 60.173 0 0 1 16.125 16.124 59.89 59.89 0 0 1 5.511 10.146c3.12 7.361 4.712 15.204 4.712 23.299 0 8.095-1.593 15.938-4.712 23.3a59.922 59.922 0 0 1-12.802 18.978 60.181 60.181 0 0 1-8.834 7.292 59.96 59.96 0 0 1-10.144 5.511c-7.362 3.118-15.206 4.711-23.301 4.711-8.096 0-15.937-1.593-23.3-4.71m-1.84-114.386a64.441 64.441 0 0 0-10.916 5.943 64.8 64.8 0 0 0-17.348 17.368 64.482 64.482 0 0 0-5.93 10.927c-3.346 7.907-5.064 16.344-5.064 25.066 0 8.748 1.73 17.213 5.095 25.14a64.394 64.394 0 0 0 5.944 10.917 64.852 64.852 0 0 0 7.853 9.504 64.924 64.924 0 0 0 9.514 7.844 64.418 64.418 0 0 0 10.926 5.93c7.907 3.345 16.345 5.064 25.066 5.064 8.75 0 17.215-1.73 25.14-5.095a64.41 64.41 0 0 0 10.919-5.943 64.917 64.917 0 0 0 9.502-7.854 64.849 64.849 0 0 0 7.844-9.514 64.382 64.382 0 0 0 5.93-10.926c3.346-7.907 5.063-16.347 5.063-25.067 0-8.748-1.729-17.213-5.093-25.14a64.622 64.622 0 0 0-5.943-10.918 64.848 64.848 0 0 0-17.368-17.347 64.476 64.476 0 0 0-10.927-5.93c-7.907-3.346-16.345-5.063-25.067-5.063-8.748 0-17.212 1.73-25.14 5.094" data-name="Path 963" transform="translate(-124.16 -124.161)"/></clipPath><clipPath id="D"><path d="M162.765 258.793a73.258 73.258 0 0 1-12.433-6.753 73.88 73.88 0 0 1-10.828-8.935 73.884 73.884 0 0 1-8.936-10.829 73.267 73.267 0 0 1-6.753-12.433c-3.823-9.023-5.77-18.628-5.77-28.539 0-9.911 1.947-19.516 5.77-28.539a73.206 73.206 0 0 1 6.753-12.432 73.89 73.89 0 0 1 8.936-10.83 73.882 73.882 0 0 1 10.828-8.935 73.266 73.266 0 0 1 12.433-6.753c9.022-3.82 18.628-5.769 28.538-5.769 9.912 0 19.517 1.949 28.54 5.769a73.254 73.254 0 0 1 12.432 6.753 73.887 73.887 0 0 1 10.828 8.936 73.805 73.805 0 0 1 8.936 10.83 73.208 73.208 0 0 1 6.753 12.431c3.821 9.023 5.768 18.628 5.768 28.54 0 9.91-1.947 19.515-5.768 28.538a73.27 73.27 0 0 1-6.753 12.433 73.799 73.799 0 0 1-8.936 10.829 73.884 73.884 0 0 1-10.828 8.935 73.247 73.247 0 0 1-12.432 6.753c-9.023 3.821-18.628 5.77-28.54 5.77-9.91 0-19.516-1.949-28.538-5.77m-1.69-138.859a77.505 77.505 0 0 0-13.144 7.15 78.037 78.037 0 0 0-20.888 20.905 77.652 77.652 0 0 0-7.138 13.153c-4.029 9.524-6.091 19.676-6.091 30.162 0 10.512 2.073 20.688 6.12 30.23a77.506 77.506 0 0 0 7.15 13.144 78.023 78.023 0 0 0 9.454 11.443 78.108 78.108 0 0 0 11.452 9.443 77.513 77.513 0 0 0 13.15 7.139c9.524 4.029 19.677 6.091 30.163 6.091 10.512 0 20.689-2.072 30.23-6.12a77.511 77.511 0 0 0 13.145-7.15 78.028 78.028 0 0 0 11.442-9.454 78.024 78.024 0 0 0 9.443-11.452 77.524 77.524 0 0 0 7.14-13.152c4.029-9.523 6.091-19.676 6.091-30.162 0-10.51-2.074-20.688-6.121-30.23a77.426 77.426 0 0 0-7.15-13.143 78.107 78.107 0 0 0-9.454-11.444 78.03 78.03 0 0 0-11.452-9.442 77.562 77.562 0 0 0-13.15-7.14c-9.524-4.029-19.677-6.091-30.164-6.091-10.512 0-20.688 2.073-30.228 6.12" data-name="Path 964" transform="translate(-113.814 -113.814)"/></clipPath><clipPath id="F"><path d="M160.27 273.947a86.633 86.633 0 0 1-14.72-7.995 87.376 87.376 0 0 1-12.823-10.58 86.816 86.816 0 0 1-18.576-27.543c-4.522-10.685-6.825-22.052-6.825-33.78 0-11.727 2.303-23.094 6.825-33.779a86.759 86.759 0 0 1 7.994-14.719 87.322 87.322 0 0 1 10.582-12.824 87.373 87.373 0 0 1 12.823-10.58 86.632 86.632 0 0 1 14.72-7.994c10.683-4.524 22.051-6.827 33.778-6.827 11.728 0 23.094 2.303 33.779 6.827a86.683 86.683 0 0 1 14.72 7.994 87.38 87.38 0 0 1 12.824 10.58 87.39 87.39 0 0 1 10.58 12.824 86.777 86.777 0 0 1 7.995 14.72c4.523 10.684 6.826 22.051 6.826 33.778 0 11.728-2.303 23.095-6.826 33.779a86.835 86.835 0 0 1-7.996 14.72 87.446 87.446 0 0 1-10.579 12.823 87.384 87.384 0 0 1-12.824 10.58 86.684 86.684 0 0 1-14.72 7.996c-10.685 4.522-22.05 6.825-33.78 6.825-11.726 0-23.094-2.303-33.777-6.825m-1.54-163.334a90.655 90.655 0 0 0-15.37 8.358 91.214 91.214 0 0 0-13.382 11.052 90.993 90.993 0 0 0-11.044 13.392 90.433 90.433 0 0 0-8.347 15.376c-4.713 11.14-7.12 23.007-7.12 35.258 0 12.275 2.417 24.164 7.146 35.32a90.697 90.697 0 0 0 8.357 15.37 91.08 91.08 0 0 0 24.446 24.426 90.502 90.502 0 0 0 15.374 8.346c11.14 4.712 23.007 7.12 35.258 7.12 12.276 0 24.164-2.416 35.32-7.146a90.535 90.535 0 0 0 15.368-8.356 91.174 91.174 0 0 0 24.428-24.446 90.599 90.599 0 0 0 8.346-15.375c4.713-11.14 7.12-23.008 7.12-35.259 0-12.275-2.417-24.162-7.145-35.32a90.647 90.647 0 0 0-8.359-15.368 91.068 91.068 0 0 0-24.443-24.427 90.564 90.564 0 0 0-15.376-8.346c-11.14-4.713-23.007-7.121-35.26-7.121-12.274 0-24.161 2.418-35.318 7.146" data-name="Path 965" transform="translate(-103.467 -103.467)"/></clipPath><clipPath id="H"><path d="M157.776 289.1a100.162 100.162 0 0 1-17.008-9.237 100.93 100.93 0 0 1-14.817-12.225 100.3 100.3 0 0 1-21.463-31.826c-5.225-12.345-7.883-25.475-7.883-39.018s2.658-26.673 7.883-39.017a100.344 100.344 0 0 1 9.236-17.01 100.858 100.858 0 0 1 12.227-14.815 100.856 100.856 0 0 1 14.817-12.227 100.16 100.16 0 0 1 17.008-9.236c12.346-5.226 25.476-7.883 39.017-7.883 13.544 0 26.673 2.657 39.018 7.883a100.166 100.166 0 0 1 17.01 9.236 100.845 100.845 0 0 1 27.042 27.043 100.265 100.265 0 0 1 9.237 17.01c5.224 12.343 7.881 25.473 7.881 39.016s-2.657 26.673-7.881 39.017a100.221 100.221 0 0 1-9.237 17.01 100.943 100.943 0 0 1-12.226 14.817 100.918 100.918 0 0 1-14.816 12.225 100.168 100.168 0 0 1-17.01 9.237c-12.345 5.224-25.474 7.884-39.018 7.884-13.541 0-26.671-2.66-39.017-7.884m-1.39-187.808a103.783 103.783 0 0 0-32.919 22.217 104.333 104.333 0 0 0-12.644 15.33 103.654 103.654 0 0 0-9.553 17.6c-5.397 12.757-8.15 26.34-8.15 40.355 0 14.037 2.76 27.638 8.174 40.409a103.693 103.693 0 0 0 9.562 17.595 104.416 104.416 0 0 0 12.653 15.323 104.328 104.328 0 0 0 15.33 12.643 103.475 103.475 0 0 0 17.6 9.555c12.758 5.396 26.338 8.15 40.354 8.15 14.037 0 27.637-2.763 40.41-8.174a103.595 103.595 0 0 0 17.594-9.564 104.25 104.25 0 0 0 27.968-27.982 103.655 103.655 0 0 0 9.554-17.6c5.396-12.757 8.147-26.339 8.147-40.355 0-14.037-2.76-27.637-8.171-40.409a103.619 103.619 0 0 0-9.563-17.595 104.407 104.407 0 0 0-12.652-15.322 104.494 104.494 0 0 0-15.33-12.645 103.834 103.834 0 0 0-17.601-9.553c-12.758-5.397-26.339-8.149-40.356-8.149-14.036 0-27.637 2.76-40.408 8.171" data-name="Path 966" transform="translate(-93.12 -93.121)"/></clipPath><clipPath id="J"><path d="M155.283 304.252a113.602 113.602 0 0 1-19.299-10.476 114.575 114.575 0 0 1-16.81-13.872 114.578 114.578 0 0 1-13.871-16.81 113.59 113.59 0 0 1-10.478-19.298c-5.928-14.006-8.94-28.897-8.94-44.257s3.012-30.25 8.94-44.256a113.594 113.594 0 0 1 10.478-19.298 114.512 114.512 0 0 1 13.871-16.81 114.48 114.48 0 0 1 16.81-13.87 113.515 113.515 0 0 1 19.299-10.479c14.005-5.928 28.897-8.94 44.255-8.94 15.36 0 30.252 3.012 44.258 8.94a113.492 113.492 0 0 1 19.296 10.478 114.426 114.426 0 0 1 16.81 13.87 114.352 114.352 0 0 1 13.872 16.811 113.598 113.598 0 0 1 10.478 19.298c5.928 14.005 8.941 28.897 8.941 44.256 0 15.36-3.013 30.251-8.94 44.257a113.594 113.594 0 0 1-10.479 19.297 114.418 114.418 0 0 1-13.871 16.811 114.52 114.52 0 0 1-16.811 13.872 113.579 113.579 0 0 1-19.296 10.476c-14.006 5.928-28.898 8.941-44.258 8.941-15.358 0-30.25-3.013-44.255-8.94m-1.243-212.28a116.71 116.71 0 0 0-19.821 10.77 117.583 117.583 0 0 0-17.263 14.251 117.754 117.754 0 0 0-14.245 17.27 116.743 116.743 0 0 0-10.76 19.825c-6.08 14.374-9.177 29.67-9.177 45.45 0 15.8 3.104 31.113 9.198 45.5a116.934 116.934 0 0 0 10.77 19.82 117.735 117.735 0 0 0 14.252 17.263 117.602 117.602 0 0 0 17.27 14.244 116.699 116.699 0 0 0 19.824 10.761c14.374 6.08 29.669 9.178 45.45 9.178 15.801 0 31.113-3.104 45.5-9.198a116.834 116.834 0 0 0 19.82-10.77 117.693 117.693 0 0 0 17.263-14.253 117.609 117.609 0 0 0 14.245-17.269 116.83 116.83 0 0 0 10.761-19.825c6.08-14.373 9.178-29.67 9.178-45.45 0-15.8-3.107-31.112-9.2-45.5a116.752 116.752 0 0 0-10.77-19.82 117.528 117.528 0 0 0-14.25-17.262 117.54 117.54 0 0 0-17.271-14.245 116.697 116.697 0 0 0-19.825-10.762c-14.375-6.08-29.669-9.177-45.451-9.177-15.799 0-31.111 3.105-45.498 9.199" data-name="Path 967" transform="translate(-82.774 -82.774)"/></clipPath><clipPath id="L"><path d="M152.788 319.408a127.172 127.172 0 0 1-21.586-11.72 128.115 128.115 0 0 1-18.804-15.517 128.113 128.113 0 0 1-15.516-18.804 127.176 127.176 0 0 1-11.72-21.588c-6.63-15.665-9.998-32.32-9.998-49.495 0-17.175 3.368-33.829 9.997-49.496a127.156 127.156 0 0 1 11.72-21.585 128.063 128.063 0 0 1 15.517-18.805 128.12 128.12 0 0 1 18.804-15.516 127.073 127.073 0 0 1 21.586-11.72c15.666-6.629 32.321-9.997 49.495-9.997 17.175 0 33.83 3.368 49.496 9.997a126.961 126.961 0 0 1 21.585 11.72 128 128 0 0 1 18.807 15.516 128.058 128.058 0 0 1 15.516 18.805 127.055 127.055 0 0 1 11.718 21.585c6.63 15.667 9.999 32.321 9.999 49.496 0 17.176-3.369 33.83-9.999 49.495a127.075 127.075 0 0 1-11.718 21.588 128.108 128.108 0 0 1-15.516 18.804 127.994 127.994 0 0 1-18.807 15.516 127.06 127.06 0 0 1-21.585 11.72c-15.665 6.63-32.32 9.998-49.496 9.998-17.174 0-33.83-3.368-49.495-9.997m-1.093-236.756a129.828 129.828 0 0 0-22.046 11.976 130.708 130.708 0 0 0-19.202 15.85 130.875 130.875 0 0 0-15.845 19.21 129.917 129.917 0 0 0-11.969 22.05c-6.764 15.99-10.206 33-10.206 50.546 0 17.563 3.45 34.588 10.225 50.589a129.902 129.902 0 0 0 11.975 22.045 130.741 130.741 0 0 0 15.852 19.204 130.865 130.865 0 0 0 19.208 15.845 129.969 129.969 0 0 0 22.05 11.969c15.992 6.764 33 10.206 50.546 10.206 17.563 0 34.587-3.45 50.59-10.225a129.833 129.833 0 0 0 22.045-11.976 130.802 130.802 0 0 0 19.204-15.85 130.867 130.867 0 0 0 15.844-19.21 129.804 129.804 0 0 0 11.969-22.05c6.764-15.991 10.206-33 10.206-50.547 0-17.562-3.448-34.586-10.224-50.588a129.983 129.983 0 0 0-11.976-22.047 130.783 130.783 0 0 0-15.852-19.202 130.71 130.71 0 0 0-19.209-15.844 129.75 129.75 0 0 0-22.05-11.969c-15.99-6.764-33-10.207-50.547-10.207-17.561 0-34.586 3.45-50.588 10.225" data-name="Path 968" transform="translate(-72.427 -72.427)"/></clipPath><clipPath id="N"><path d="M150.294 334.56A140.643 140.643 0 0 1 126.42 321.6a141.45 141.45 0 0 1-37.96-37.96A140.651 140.651 0 0 1 75.5 259.764c-7.332-17.327-11.054-35.744-11.054-54.735 0-18.99 3.722-37.406 11.054-54.734A140.638 140.638 0 0 1 88.46 126.42a141.4 141.4 0 0 1 37.96-37.96 140.636 140.636 0 0 1 23.874-12.963c17.327-7.33 35.745-11.053 54.734-11.053 18.993 0 37.408 3.722 54.736 11.053a140.63 140.63 0 0 1 23.874 12.962 141.481 141.481 0 0 1 20.8 17.162 141.559 141.559 0 0 1 17.16 20.799 140.63 140.63 0 0 1 12.961 23.874c7.331 17.328 11.055 35.743 11.055 54.734s-3.724 37.408-11.055 54.735a140.644 140.644 0 0 1-12.96 23.875 141.608 141.608 0 0 1-17.162 20.798 141.485 141.485 0 0 1-20.799 17.162 140.637 140.637 0 0 1-23.874 12.961c-17.328 7.331-35.743 11.054-54.736 11.054-18.99 0-37.407-3.723-54.734-11.054m-.943-261.23a142.84 142.84 0 0 0-24.271 13.184 143.837 143.837 0 0 0-21.142 17.45 143.91 143.91 0 0 0-17.446 21.148 142.93 142.93 0 0 0-13.176 24.275c-7.448 17.608-11.236 36.331-11.236 55.642 0 19.327 3.793 38.062 11.251 55.679a142.749 142.749 0 0 0 13.183 24.271 143.833 143.833 0 0 0 17.45 21.142 143.813 143.813 0 0 0 21.147 17.445 142.849 142.849 0 0 0 24.275 13.177c17.608 7.447 36.331 11.236 55.642 11.236 19.325 0 38.062-3.794 55.679-11.25a143.042 143.042 0 0 0 24.272-13.184 143.978 143.978 0 0 0 21.142-17.45 143.976 143.976 0 0 0 17.445-21.147 142.846 142.846 0 0 0 13.177-24.275c7.448-17.608 11.235-36.333 11.235-55.644 0-19.325-3.792-38.061-11.251-55.678a142.993 142.993 0 0 0-13.182-24.273 144.112 144.112 0 0 0-17.45-21.142 144.121 144.121 0 0 0-21.149-17.445 143.035 143.035 0 0 0-24.276-13.177c-17.607-7.446-36.33-11.233-55.642-11.233-19.325 0-38.06 3.792-55.677 11.25" data-name="Path 969" transform="translate(-62.08 -62.081)"/></clipPath><clipPath id="P"><path d="M147.8 349.714a154.02 154.02 0 0 1-26.163-14.203 155.259 155.259 0 0 1-22.792-18.806 155.266 155.266 0 0 1-18.807-22.793 154.11 154.11 0 0 1-14.203-26.163c-8.034-18.987-12.112-39.167-12.112-59.975 0-20.806 4.078-40.985 12.112-59.974a154.148 154.148 0 0 1 14.203-26.161 155.207 155.207 0 0 1 18.807-22.795 155.17 155.17 0 0 1 22.792-18.805A153.934 153.934 0 0 1 147.8 65.836c18.987-8.034 39.166-12.113 59.973-12.113 20.807 0 40.986 4.08 59.975 12.113a153.983 153.983 0 0 1 26.162 14.203 155.184 155.184 0 0 1 22.794 18.805 155.103 155.103 0 0 1 18.805 22.795 153.977 153.977 0 0 1 14.204 26.161c8.033 18.989 12.112 39.168 12.112 59.974 0 20.808-4.079 40.988-12.112 59.975a153.94 153.94 0 0 1-14.204 26.163 155.087 155.087 0 0 1-18.805 22.792 155.203 155.203 0 0 1-22.794 18.807 154.07 154.07 0 0 1-26.162 14.203c-18.989 8.032-39.168 12.112-59.975 12.112-20.807 0-40.986-4.08-59.973-12.112m-.795-285.704A155.985 155.985 0 0 0 120.51 78.4a157.303 157.303 0 0 0-23.083 19.05 157.221 157.221 0 0 0-19.045 23.085 156.082 156.082 0 0 0-14.384 26.5c-8.132 19.226-12.263 39.663-12.263 60.74 0 21.088 4.136 41.536 12.276 60.767A155.987 155.987 0 0 0 78.4 295.04a157.313 157.313 0 0 0 19.05 23.083 157.169 157.169 0 0 0 23.086 19.044 156.065 156.065 0 0 0 26.5 14.386c19.224 8.13 39.66 12.262 60.737 12.262 21.089 0 41.537-4.136 60.77-12.276a155.971 155.971 0 0 0 26.496-14.39 157.097 157.097 0 0 0 23.082-19.05 157.153 157.153 0 0 0 19.046-23.085 156.138 156.138 0 0 0 14.385-26.502c8.132-19.224 12.263-39.661 12.263-60.738 0-21.088-4.138-41.536-12.276-60.767a156.023 156.023 0 0 0-14.39-26.497 157.032 157.032 0 0 0-19.051-23.083 157.153 157.153 0 0 0-23.086-19.046 156.22 156.22 0 0 0-26.5-14.385c-19.224-8.13-39.661-12.262-60.739-12.262-21.087 0-41.535 4.136-60.768 12.276" data-name="Path 970" transform="translate(-51.734 -51.734)"/></clipPath><clipPath id="R"><path d="M145.306 364.867a167.41 167.41 0 0 1-28.45-15.444 168.759 168.759 0 0 1-24.787-20.452 168.758 168.758 0 0 1-20.452-24.787 167.649 167.649 0 0 1-15.446-28.452c-8.735-20.648-13.167-42.59-13.167-65.212 0-22.623 4.432-44.565 13.167-65.214a167.622 167.622 0 0 1 15.446-28.45 168.772 168.772 0 0 1 20.452-24.788 168.758 168.758 0 0 1 24.786-20.451 167.576 167.576 0 0 1 28.45-15.445c20.65-8.734 42.592-13.168 65.213-13.168 22.624 0 44.565 4.434 65.214 13.168a167.581 167.581 0 0 1 28.45 15.445 168.841 168.841 0 0 1 24.79 20.45 168.76 168.76 0 0 1 20.45 24.79 167.545 167.545 0 0 1 15.445 28.449c8.734 20.65 13.168 42.591 13.168 65.214 0 22.622-4.434 44.564-13.168 65.212a167.572 167.572 0 0 1-15.445 28.452 168.745 168.745 0 0 1-20.45 24.787 168.842 168.842 0 0 1-24.79 20.452 167.415 167.415 0 0 1-28.45 15.444c-20.65 8.736-42.59 13.168-65.214 13.168-22.62 0-44.563-4.432-65.212-13.168m-.644-310.178a169.033 169.033 0 0 0-28.723 15.596 170.371 170.371 0 0 0-25.023 20.65 170.284 170.284 0 0 0-20.646 25.026 169.131 169.131 0 0 0-15.59 28.726c-8.816 20.84-13.293 42.991-13.293 65.833 0 22.85 4.48 45.01 13.302 65.858A169.122 169.122 0 0 0 70.285 305.1a170.223 170.223 0 0 0 20.65 25.023 170.35 170.35 0 0 0 25.026 20.646 169.162 169.162 0 0 0 28.723 15.592c20.841 8.815 42.993 13.291 65.834 13.291 22.852 0 45.012-4.48 65.858-13.302a169.04 169.04 0 0 0 28.724-15.596 170.357 170.357 0 0 0 25.023-20.65 170.352 170.352 0 0 0 20.645-25.025 169.027 169.027 0 0 0 15.59-28.725c8.816-20.841 13.293-42.993 13.293-65.834 0-22.85-4.48-45.011-13.302-65.858a169.03 169.03 0 0 0-15.596-28.723 170.36 170.36 0 0 0-20.649-25.023 170.349 170.349 0 0 0-25.025-20.646 169.131 169.131 0 0 0-28.727-15.59c-20.84-8.815-42.991-13.293-65.834-13.293-22.85 0-45.01 4.48-65.856 13.302" data-name="Path 971" transform="translate(-41.387 -41.387)"/></clipPath><clipPath id="T"><path d="M142.811 380.02a180.915 180.915 0 0 1-30.738-16.685 182.407 182.407 0 0 1-26.782-22.097 182.327 182.327 0 0 1-22.097-26.781 181.057 181.057 0 0 1-16.686-30.74c-9.436-22.31-14.225-46.013-14.225-70.452 0-24.438 4.789-48.143 14.225-70.453a181.059 181.059 0 0 1 16.686-30.74 182.327 182.327 0 0 1 22.097-26.78 182.318 182.318 0 0 1 26.782-22.097A181.008 181.008 0 0 1 142.81 46.51c22.311-9.438 46.014-14.227 70.452-14.227 24.439 0 48.144 4.789 70.454 14.227a180.96 180.96 0 0 1 30.738 16.685 182.265 182.265 0 0 1 26.783 22.096 182.225 182.225 0 0 1 22.095 26.782 180.977 180.977 0 0 1 16.687 30.74c9.436 22.31 14.226 46.014 14.226 70.452 0 24.44-4.79 48.142-14.226 70.452a180.975 180.975 0 0 1-16.687 30.74 182.226 182.226 0 0 1-22.095 26.781 182.353 182.353 0 0 1-26.783 22.097 180.867 180.867 0 0 1-30.738 16.685c-22.31 9.438-46.015 14.227-70.454 14.227-24.438 0-48.14-4.79-70.452-14.227m-.495-334.652a182.306 182.306 0 0 0-30.948 16.804A183.472 183.472 0 0 0 84.407 84.42a183.484 183.484 0 0 0-22.248 26.964 182.125 182.125 0 0 0-16.797 30.95c-9.5 22.457-14.322 46.323-14.322 70.93 0 24.613 4.825 48.485 14.33 70.948a182.304 182.304 0 0 0 16.8 30.948 183.555 183.555 0 0 0 22.25 26.962 183.453 183.453 0 0 0 26.965 22.246 182.171 182.171 0 0 0 30.949 16.8c22.458 9.498 46.323 14.32 70.93 14.32 24.614 0 48.486-4.824 70.948-14.328a182.357 182.357 0 0 0 30.95-16.802 183.624 183.624 0 0 0 26.96-22.25 183.45 183.45 0 0 0 22.246-26.964 182.137 182.137 0 0 0 16.8-30.95c9.5-22.458 14.321-46.324 14.321-70.93 0-24.614-4.825-48.486-14.328-70.947a182.185 182.185 0 0 0-16.804-30.95 183.525 183.525 0 0 0-22.248-26.962 183.445 183.445 0 0 0-26.964-22.244 182.278 182.278 0 0 0-30.95-16.801c-22.459-9.499-46.324-14.321-70.932-14.321-24.612 0-48.485 4.826-70.947 14.328" data-name="Path 972" transform="translate(-31.04 -31.04)"/></clipPath><clipPath id="V"><path d="M140.318 395.174a194.416 194.416 0 0 1-33.029-17.929 195.787 195.787 0 0 1-28.774-23.74 195.878 195.878 0 0 1-23.742-28.775 194.683 194.683 0 0 1-17.929-33.028c-10.139-23.972-15.282-49.438-15.282-75.692 0-26.254 5.143-51.721 15.282-75.692a194.622 194.622 0 0 1 17.929-33.028 195.887 195.887 0 0 1 23.742-28.775 195.958 195.958 0 0 1 28.774-23.742 194.588 194.588 0 0 1 33.029-17.927c23.97-10.14 49.438-15.283 75.69-15.283 26.256 0 51.722 5.144 75.692 15.283a194.48 194.48 0 0 1 33.028 17.927 195.904 195.904 0 0 1 28.775 23.742 195.887 195.887 0 0 1 23.742 28.775 194.359 194.359 0 0 1 17.927 33.028c10.14 23.97 15.284 49.438 15.284 75.692 0 26.254-5.143 51.72-15.284 75.692a194.42 194.42 0 0 1-17.927 33.028 195.878 195.878 0 0 1-23.742 28.774 195.733 195.733 0 0 1-28.775 23.741 194.308 194.308 0 0 1-33.028 17.929c-23.97 10.139-49.436 15.283-75.692 15.283-26.252 0-51.72-5.144-75.69-15.283m-.346-359.127a195.396 195.396 0 0 0-33.174 18.01 196.818 196.818 0 0 0-28.902 23.848 196.72 196.72 0 0 0-23.846 28.903 195.237 195.237 0 0 0-18.007 33.177c-10.183 24.074-15.349 49.653-15.349 76.025 0 26.376 5.168 51.96 15.353 76.037a195.403 195.403 0 0 0 18.01 33.174 196.737 196.737 0 0 0 23.848 28.902 196.664 196.664 0 0 0 28.905 23.846 195.256 195.256 0 0 0 33.174 18.008c24.073 10.182 49.653 15.348 76.024 15.348 26.377 0 51.962-5.167 76.038-15.353a195.192 195.192 0 0 0 33.175-18.01 196.635 196.635 0 0 0 28.901-23.848 196.593 196.593 0 0 0 23.847-28.904 195.304 195.304 0 0 0 18.008-33.174c10.182-24.074 15.348-49.655 15.348-76.026 0-26.376-5.168-51.96-15.354-76.038a195.319 195.319 0 0 0-18.01-33.174 196.587 196.587 0 0 0-23.848-28.902A196.588 196.588 0 0 0 325.21 54.05a195.271 195.271 0 0 0-33.176-18.008c-24.075-10.182-49.653-15.348-76.026-15.348-26.375 0-51.96 5.168-76.036 15.353" data-name="Path 973" transform="translate(-20.694 -20.694)"/></clipPath><clipPath id="X"><path d="M137.823 410.328a207.79 207.79 0 0 1-35.316-19.171 209.338 209.338 0 0 1-30.768-25.385 209.434 209.434 0 0 1-25.387-30.77 207.975 207.975 0 0 1-19.17-35.317c-10.841-25.63-16.34-52.86-16.34-80.93 0-28.07 5.499-55.3 16.34-80.93a207.918 207.918 0 0 1 19.17-35.317 209.37 209.37 0 0 1 25.387-30.77 209.35 209.35 0 0 1 30.768-25.385 207.885 207.885 0 0 1 35.316-19.171c25.632-10.841 52.861-16.34 80.93-16.34 28.072 0 55.3 5.499 80.933 16.34a207.933 207.933 0 0 1 35.316 19.17 209.36 209.36 0 0 1 30.77 25.387 209.436 209.436 0 0 1 25.385 30.77 207.743 207.743 0 0 1 19.17 35.315c10.842 25.632 16.34 52.861 16.34 80.93 0 28.072-5.498 55.301-16.34 80.931a207.8 207.8 0 0 1-19.17 35.318 209.501 209.501 0 0 1-25.386 30.77 209.347 209.347 0 0 1-30.77 25.384 207.838 207.838 0 0 1-35.315 19.17c-25.633 10.842-52.861 16.34-80.932 16.34-28.07 0-55.3-5.498-80.93-16.34m-.197-383.6a208.461 208.461 0 0 0-35.4 19.217A209.906 209.906 0 0 0 71.387 71.39a209.852 209.852 0 0 0-25.447 30.843 208.586 208.586 0 0 0-19.215 35.4c-10.866 25.69-16.378 52.984-16.378 81.12 0 28.14 5.513 55.437 16.382 81.129a208.5 208.5 0 0 0 19.215 35.4 209.932 209.932 0 0 0 25.448 30.841 209.764 209.764 0 0 0 30.843 25.445 208.409 208.409 0 0 0 35.4 19.217c25.69 10.866 52.983 16.378 81.12 16.378 28.139 0 55.436-5.513 81.128-16.38a208.435 208.435 0 0 0 35.4-19.218 209.83 209.83 0 0 0 30.841-25.447 209.852 209.852 0 0 0 25.447-30.843 208.405 208.405 0 0 0 19.216-35.4c10.865-25.69 16.376-52.985 16.376-81.121 0-28.138-5.512-55.435-16.379-81.127a208.56 208.56 0 0 0-19.217-35.4 209.764 209.764 0 0 0-25.447-30.841 209.94 209.94 0 0 0-30.843-25.448 208.584 208.584 0 0 0-35.4-19.215c-25.69-10.865-52.984-16.377-81.122-16.377-28.14 0-55.435 5.513-81.127 16.38" data-name="Path 974" transform="translate(-10.346 -10.347)"/></clipPath><clipPath id="Z"><path d="M135.33 425.48a221.267 221.267 0 0 1-37.605-20.41 223.135 223.135 0 0 1-32.764-27.031 223.155 223.155 0 0 1-27.032-32.764 221.44 221.44 0 0 1-20.41-37.605C5.975 280.377.121 251.387.121 221.5s5.854-58.877 17.398-86.17a221.381 221.381 0 0 1 20.41-37.604A223.025 223.025 0 0 1 64.96 64.962a222.974 222.974 0 0 1 32.764-27.03 221.364 221.364 0 0 1 37.605-20.413C162.623 5.976 191.615.123 221.499.123c29.886 0 58.878 5.853 86.171 17.396a221.307 221.307 0 0 1 37.604 20.412 222.845 222.845 0 0 1 32.764 27.031 222.858 222.858 0 0 1 27.03 32.764 221.304 221.304 0 0 1 20.412 37.604c11.543 27.293 17.397 56.283 17.397 86.17s-5.854 58.877-17.397 86.17a221.363 221.363 0 0 1-20.412 37.605 222.987 222.987 0 0 1-27.03 32.764 223.006 223.006 0 0 1-32.764 27.03 221.21 221.21 0 0 1-37.604 20.411c-27.293 11.545-56.285 17.398-86.171 17.398-29.884 0-58.876-5.853-86.17-17.398M221.5 0c-29.902 0-58.91 5.857-86.217 17.407a221.55 221.55 0 0 0-37.625 20.422 223.25 223.25 0 0 0-32.78 27.046 223.128 223.128 0 0 0-27.05 32.783 221.585 221.585 0 0 0-20.42 37.625C5.857 162.591 0 191.598 0 221.5s5.857 58.91 17.407 86.218a221.729 221.729 0 0 0 20.42 37.625 223.042 223.042 0 0 0 27.05 32.78 223.023 223.023 0 0 0 32.78 27.048c11.842 8 24.5 14.871 37.625 20.422C162.59 437.143 191.597 443 221.499 443c29.903 0 58.91-5.857 86.218-17.407a221.554 221.554 0 0 0 37.625-20.422 223.039 223.039 0 0 0 32.782-27.047 223.113 223.113 0 0 0 27.047-32.78 221.65 221.65 0 0 0 20.422-37.626C437.143 280.41 443 251.402 443 221.5s-5.857-58.91-17.407-86.217a221.507 221.507 0 0 0-20.422-37.625 223.199 223.199 0 0 0-27.047-32.783 223.266 223.266 0 0 0-32.782-27.046 221.55 221.55 0 0 0-37.625-20.422C280.409 5.857 251.402 0 221.499 0Z" data-name="Path 975"/></clipPath><clipPath id="a"><path d="M20 0h1141.5A140.5 140.5 0 0 1 1302 140.5 140.5 140.5 0 0 1 1161.5 281H20a20 20 0 0 1-20-20V20A20 20 0 0 1 20 0z" data-name="Rectangle 355" transform="translate(-67 3829)"/></clipPath></defs></svg>