<svg xmlns="http://www.w3.org/2000/svg" width="295.12" height="283.269" viewBox="1174.073 3190.477 295.12 283.269"><g data-name="Group 475"><g data-name="Group 177"><g data-name="Group 176" transform="translate(1235 3241.313)" clip-path="url(&quot;#a&quot;)"><path d="M29.309 25.937c-4.246 1.39-8.529 2.796-12.767 4.335a92.508 92.508 0 0 0-8.683 11.284c7.559-3.523 15.693-6.19 23.68-8.804 2.827-.925 5.648-1.85 8.437-2.805C54.32 25.03 74.057 16.66 84.186.001a91.626 91.626 0 0 0-9.03.499C69.598 7.505 59.217 15.77 37.65 23.163c-2.758.947-5.546 1.859-8.342 2.774" fill-rule="evenodd" fill="url(&quot;#b&quot;)" transform="translate(5.946)" data-name="Path 164"/><path d="M107.752 6.065C103.778 14.06 95.078 25.86 65.529 35.99a618.523 618.523 0 0 1-8.342 2.772c-15.09 4.938-30.691 10.043-42.84 20.809C-3.392 75.29-.714 94.158 1.877 112.403c.175 1.237.351 2.479.522 3.724a91.979 91.979 0 0 0 7.574 18.565c.24-7.832-.856-15.598-1.93-23.164-2.576-18.136-4.8-33.798 10.435-47.297 11.183-9.909 26.16-14.81 40.647-19.549a657.143 657.143 0 0 0 8.425-2.8c15.189-5.21 36.463-14.302 45.778-33.045 1.007-2.023 1.823-4.089 2.514-6.181a90.499 90.499 0 0 0-6.048-1.509 40.876 40.876 0 0 1-2.041 4.918" fill-rule="evenodd" fill="url(&quot;#c&quot;)" transform="translate(0 .868)" data-name="Path 165"/><path d="M95.175.122c-3.954 7.956-12.621 19.702-42.088 29.806-2.76.945-5.549 1.858-8.343 2.774C32.1 36.84 19.103 41.108 8.056 48.712A91.539 91.539 0 0 0 1.95 63.007a40.936 40.936 0 0 1 4.32-4.437c11.143-9.876 26.095-14.768 40.557-19.5 2.826-.926 5.646-1.848 8.433-2.803 15.23-5.223 36.56-14.341 45.914-33.161.372-.748.713-1.504 1.04-2.263A91.31 91.31 0 0 0 95.18.11l-.005.012" fill-rule="evenodd" fill="url(&quot;#d&quot;)" transform="translate(1.475 .083)" data-name="Path 166"/><path d="M120.366 15.829c-4.01 8.068-12.777 19.972-42.491 30.16-2.763.947-5.556 1.86-8.356 2.777-15.04 4.922-30.593 10.011-42.668 20.71C9.3 85.03 11.963 103.769 14.536 121.892c1.344 9.47 2.735 19.263 1.303 28.694-.052.346-.117.676-.173 1.017a90.472 90.472 0 0 0 4.531 4.291c.334-1.45.63-2.95.866-4.516 1.55-10.199.102-20.382-1.296-30.23-2.594-18.27-4.836-34.049 10.59-47.716 11.253-9.973 26.277-14.887 40.806-19.642a639.503 639.503 0 0 0 8.426-2.802c15.112-5.182 36.27-14.22 45.51-32.806 1.524-3.069 2.64-6.23 3.465-9.452a92.535 92.535 0 0 0-4.767-2.7c-.764 3.367-1.86 6.64-3.43 9.8" fill-rule="evenodd" fill="url(&quot;#e&quot;)" transform="translate(9.585 4.561)" data-name="Path 167"/><path d="M114.059 11.303c-3.993 8.031-12.725 19.883-42.356 30.04-2.762.95-5.555 1.863-8.353 2.778C48.286 49.05 32.71 54.148 20.6 64.878 2.954 80.515 5.624 99.318 8.206 117.502c1.105 7.787 2.238 15.793 1.807 23.624a91.323 91.323 0 0 0 5.043 6.707c.046-.283.1-.555.145-.84 1.554-10.234.105-20.434-1.297-30.3C11.318 98.49 9.088 82.77 24.417 69.186c11.218-9.94 26.217-14.848 40.723-19.596a623.397 623.397 0 0 0 8.428-2.802c15.152-5.194 36.368-14.26 45.645-32.925 1.39-2.795 2.436-5.668 3.24-8.591a90.771 90.771 0 0 0-5.37-2.154c-.734 2.8-1.707 5.535-3.024 8.184" fill-rule="evenodd" fill="url(&quot;#f&quot;)" transform="translate(4.793 2.36)" data-name="Path 168"/><path d="M126.675 19.593c-4.03 8.105-12.832 20.062-42.627 30.278-2.761.947-5.554 1.86-8.352 2.778-15.02 4.915-30.55 9.996-42.59 20.662-17.457 15.469-14.805 34.145-12.24 52.204 1.347 9.489 2.74 19.3 1.305 28.764a56.927 56.927 0 0 1-.671 3.58 91.599 91.599 0 0 0 4.239 2.965c.474-1.846.88-3.777 1.189-5.823 1.542-10.164.1-20.33-1.297-30.162-2.496-17.573-4.853-34.173 10.666-47.925C47.59 66.908 62.64 61.984 77.192 57.22c2.82-.922 5.635-1.843 8.418-2.796 15.071-5.168 36.175-14.18 45.376-32.69 1.389-2.797 2.432-5.676 3.232-8.606a91.758 91.758 0 0 0-4.137-3.181c-.766 3.31-1.859 6.531-3.406 9.645" fill-rule="evenodd" fill="url(&quot;#g&quot;)" transform="translate(14.378 7.526)" data-name="Path 169"/><path d="M132.982 22.485c-4.047 8.142-12.884 20.153-42.762 30.396-2.763.949-5.558 1.862-8.36 2.779-14.994 4.906-30.5 9.98-42.502 20.615-17.362 15.384-14.718 33.997-12.162 51.996 1.349 9.504 2.745 19.332 1.303 28.831a54.37 54.37 0 0 1-.759 3.965 92.603 92.603 0 0 0 3.984 2.04 58.899 58.899 0 0 0 1.067-5.353c1.538-10.13.096-20.28-1.297-30.094-2.505-17.64-4.87-34.3 10.743-48.135 11.327-10.037 26.4-14.97 40.974-19.739 2.821-.924 5.635-1.844 8.418-2.798 15.033-5.154 36.078-14.139 45.24-32.57a45.626 45.626 0 0 0 2.39-5.838 92.107 92.107 0 0 0-3.428-3.562c-.718 2.547-1.642 5.04-2.849 7.467" fill-rule="evenodd" fill="url(&quot;#h&quot;)" transform="translate(19.17 11.362)" data-name="Path 170"/><path d="M23.904 22.824C35.717 18.774 51.178 12.382 61.96.955c-17.515 3.394-34.025 11.86-47.148 24.889l.65-.213c2.83-.925 5.65-1.85 8.442-2.807" fill-rule="evenodd" fill="url(&quot;#i&quot;)" transform="translate(11.206 .723)" data-name="Path 171"/><path d="M118.901 63.772c-14.858 4.862-30.221 9.89-42.003 20.328-16.793 14.88-14.32 32.299-11.7 50.737.07.485.138.974.207 1.46.492-.125.982-.253 1.47-.386l-.18-1.286c-2.562-18.026-4.979-35.053 11.205-49.393C89.447 75 104.66 70.022 119.37 65.207c2.816-.92 5.623-1.84 8.4-2.791a182.05 182.05 0 0 0 5.773-2.082c.082-.578.161-1.154.231-1.732a158.89 158.89 0 0 1-6.492 2.384c-2.772.95-5.572 1.867-8.38 2.786" fill-rule="evenodd" fill="url(&quot;#j&quot;)" transform="translate(47.905 44.337)" data-name="Path 172"/><path d="M100.369 59.823c-14.926 4.885-30.36 9.935-42.253 20.473-17.075 15.131-14.46 33.55-11.93 51.364 1.105 7.782 2.24 15.778 1.837 23.665.971.095 1.945.17 2.918.235.43-8.18-.73-16.355-1.859-24.31-2.533-17.834-4.925-34.676 10.975-48.763 11.437-10.136 26.58-15.091 41.222-19.883 2.817-.922 5.63-1.843 8.409-2.795 11.098-3.806 25.493-9.712 35.862-19.98a94.302 94.302 0 0 0-.922-3.161c-6.236 6.554-16.81 13.831-35.889 20.373a614.691 614.691 0 0 1-8.37 2.782" fill-rule="evenodd" fill="url(&quot;#k&quot;)" transform="translate(33.549 27.742)" data-name="Path 173"/><path d="M106.561 60.816c-14.903 4.876-30.315 9.92-42.168 20.424C47.41 96.288 49.9 113.828 52.538 132.397c.817 5.752 1.646 11.621 1.863 17.481.819-.02 1.638-.05 2.454-.093-.221-5.97-1.06-11.911-1.888-17.734-2.542-17.896-4.941-34.802 11.052-48.974 11.474-10.167 26.639-15.13 41.306-19.93 2.816-.92 5.627-1.84 8.405-2.793 8.383-2.874 18.654-6.949 27.633-13.2a85.123 85.123 0 0 0-.377-2.746c-6.41 4.585-15.35 9.27-28.053 13.624-2.767.95-5.567 1.865-8.372 2.784" fill-rule="evenodd" fill="url(&quot;#l&quot;)" transform="translate(38.32 33.598)" data-name="Path 174"/><path d="M102.567 56.172c-2.765.948-5.561 1.863-8.363 2.78-14.952 4.892-30.412 9.951-42.339 20.52-17.172 15.216-14.548 33.7-12.01 51.575 1.327 9.337 2.69 18.984 1.385 28.362a87.76 87.76 0 0 0 3.334.7c1.424-9.924.016-19.894-1.355-29.54-2.522-17.767-4.906-34.55 10.898-48.553C65.52 71.912 80.638 66.966 95.26 62.181c2.817-.922 5.63-1.843 8.409-2.795 13.436-4.607 31.69-12.289 41.848-27.053a90.455 90.455 0 0 0-1.695-3.564c-4.846 7.968-14.943 18.38-41.255 27.403" fill-rule="evenodd" fill="url(&quot;#m&quot;)" transform="translate(28.756 21.766)" data-name="Path 175"/><path d="M139.29 24.424c-4.067 8.178-12.936 20.24-42.896 30.515-2.765.947-5.56 1.862-8.362 2.779-14.974 4.899-30.457 9.967-42.42 20.568-17.268 15.3-14.633 33.847-12.086 51.784 1.352 9.522 2.75 19.366 1.303 28.9a58.215 58.215 0 0 1-.444 2.532c1.22.46 2.447.894 3.68 1.298.218-1.056.42-2.13.59-3.248 1.532-10.097.093-20.229-1.298-30.025-2.516-17.705-4.89-34.426 10.82-48.347 11.364-10.068 26.46-15.008 41.057-19.784 2.82-.924 5.633-1.844 8.414-2.798 14.994-5.142 35.983-14.098 45.105-32.451.176-.353.325-.711.49-1.066a89.672 89.672 0 0 0-2.596-3.733 41.247 41.247 0 0 1-1.358 3.076" fill-rule="evenodd" fill="url(&quot;#n&quot;)" transform="translate(23.963 16.151)" data-name="Path 176"/><path d="M112.738 62.122c-14.884 4.87-30.273 9.905-42.093 20.378-16.888 14.964-14.404 32.442-11.776 50.946.469 3.313.943 6.666 1.303 10.033.656-.09 1.31-.193 1.962-.298-.361-3.366-.834-6.708-1.303-10.013-2.55-17.962-4.96-34.927 11.128-49.184 11.513-10.2 26.703-15.171 41.395-19.977 2.814-.922 5.621-1.84 8.397-2.791 5.335-1.83 11.435-4.15 17.48-7.204.01-.763.012-1.521.003-2.282-5 2.591-10.961 5.154-18.126 7.61a614.696 614.696 0 0 1-8.37 2.782" fill-rule="evenodd" fill="url(&quot;#o&quot;)" transform="translate(43.113 39.138)" data-name="Path 177"/><path d="M70.425 128.276c.334-.127.668-.253 1.001-.383-1.739-14.941-1.301-28.985 12.414-41.14 11.583-10.263 26.82-15.25 41.554-20.071l1.126-.371c.107-.399.217-.797.32-1.198l-1.77.581c-14.836 4.856-30.176 9.874-41.919 20.282-14.184 12.568-14.539 26.983-12.726 42.3" fill-rule="evenodd" fill="url(&quot;#p&quot;)" transform="translate(52.699 49.263)" data-name="Path 178"/><path d="M75.991 118.483a58 58 0 0 0 .57-.302c.062-10.808 2.919-20.979 13.217-30.104 8.063-7.142 17.877-11.732 28.06-15.488.097-.233.19-.47.286-.706-10.406 3.807-20.462 8.453-28.722 15.77-10.569 9.365-13.41 19.776-13.411 30.83" fill-rule="evenodd" fill="url(&quot;#q&quot;)" transform="translate(57.493 54.385)" data-name="Path 179"/><path d="M85.429 99.154a35.432 35.432 0 0 0-1.639 3.699c.05-.037.098-.074.146-.112.464-1.21.983-2.393 1.577-3.543 2.157-4.18 5.133-7.917 9.097-11.429 2.883-2.556 5.99-4.783 9.254-6.764l.127-.19c-3.334 2.011-6.505 4.277-9.445 6.882-3.972 3.519-6.955 7.267-9.117 11.457" fill-rule="evenodd" fill="url(&quot;#r&quot;)" transform="translate(63.393 61.143)" data-name="Path 180"/></g></g><g data-name="Group 179"><g data-name="Group 178" transform="translate(1248.807 3241.313)" clip-path="url(&quot;#s&quot;)"><path d="M0 0h76.366v86.654H0V0z" fill-rule="evenodd" fill="url(&quot;#t&quot;)" transform="rotate(-57.078 17.442 32.072)" data-name="Rectangle 181"/></g></g><g data-name="Group 181"><g data-name="Group 180" transform="translate(1235 3243.326)" clip-path="url(&quot;#u&quot;)"><path d="M0 0h175.06v169.821H0V0z" fill-rule="evenodd" fill="url(&quot;#v&quot;)" transform="rotate(-57.078 56.05 103.065)" data-name="Rectangle 182"/></g></g><g data-name="Group 183"><g data-name="Group 182" transform="translate(1238.425 3241.504)" clip-path="url(&quot;#w&quot;)"><path d="M0 0h107.29v118.347H0V0z" fill-rule="evenodd" fill="url(&quot;#x&quot;)" transform="rotate(-57.078 26.398 48.541)" data-name="Rectangle 183"/></g></g><g data-name="Group 185"><g data-name="Group 184" transform="translate(1257.255 3251.903)" clip-path="url(&quot;#y&quot;)"><path d="M0 0h190.617v181.562H0V0z" fill-rule="evenodd" fill="url(&quot;#z&quot;)" transform="rotate(-57.078 61.214 118.755)" data-name="Rectangle 184"/></g></g><g data-name="Group 187"><g data-name="Group 186" transform="translate(1246.128 3246.79)" clip-path="url(&quot;#A&quot;)"><path d="M0 0h186.422v178.962H0V0z" fill-rule="evenodd" fill="url(&quot;#B&quot;)" transform="rotate(-57.078 59.046 114.792)" data-name="Rectangle 185"/></g></g><g data-name="Group 189"><g data-name="Group 188" transform="translate(1268.383 3258.785)" clip-path="url(&quot;#C&quot;)"><path d="M0 0h191.09v181.529H0V0z" fill-rule="evenodd" fill="url(&quot;#D&quot;)" transform="rotate(-57.077 61.647 119.524)" data-name="Rectangle 186"/></g></g><g data-name="Group 191"><g data-name="Group 190" transform="translate(1279.51 3267.693)" clip-path="url(&quot;#E&quot;)"><path d="M0 0h188.04v178.92H0V0z" fill-rule="evenodd" fill="url(&quot;#F&quot;)" transform="rotate(-57.077 60.483 117.362)" data-name="Rectangle 187"/></g></g><g data-name="Group 193"><g data-name="Group 192" transform="translate(1261.018 3242.992)" clip-path="url(&quot;#G&quot;)"><path d="M0 0h46.516v53.103H0V0z" fill-rule="evenodd" fill="url(&quot;#H&quot;)" transform="rotate(-57.078 10.445 19.207)" data-name="Rectangle 188"/></g></g><g data-name="Group 195"><g data-name="Group 194" transform="translate(1346.223 3344.251)" clip-path="url(&quot;#I&quot;)"><path d="M0 0h105.258v104.065H0V0z" fill-rule="evenodd" fill="url(&quot;#J&quot;)" transform="rotate(-57.077 31.004 62.915)" data-name="Rectangle 189"/></g></g><g data-name="Group 197"><g data-name="Group 196" transform="translate(1312.892 3305.72)" clip-path="url(&quot;#K&quot;)"><path d="M0 0h156.601v152.345H0V0z" fill-rule="evenodd" fill="url(&quot;#L&quot;)" transform="rotate(-57.077 48.249 94.793)" data-name="Rectangle 190"/></g></g><g data-name="Group 199"><g data-name="Group 198" transform="translate(1323.968 3319.317)" clip-path="url(&quot;#M&quot;)"><path d="M0 0h140.686v137.87H0V0z" fill-rule="evenodd" fill="url(&quot;#N&quot;)" transform="rotate(-57.077 42.648 84.376)" data-name="Rectangle 191"/></g></g><g data-name="Group 201"><g data-name="Group 200" transform="translate(1301.765 3291.846)" clip-path="url(&quot;#O&quot;)"><path d="M0 0h170.48v164.41H0V0z" fill-rule="evenodd" fill="url(&quot;#P&quot;)" transform="rotate(-57.077 53.466 104.41)" data-name="Rectangle 192"/></g></g><g data-name="Group 203"><g data-name="Group 202" transform="translate(1290.637 3278.812)" clip-path="url(&quot;#Q&quot;)"><path d="M0 0h181.185v173.328H0V0z" fill-rule="evenodd" fill="url(&quot;#R&quot;)" transform="rotate(-57.077 57.704 112.229)" data-name="Rectangle 193"/></g></g><g data-name="Group 205"><g data-name="Group 204" transform="translate(1335.096 3332.18)" clip-path="url(&quot;#S&quot;)"><path d="M0 0h123.473v121.62H0V0z" fill-rule="evenodd" fill="url(&quot;#T&quot;)" transform="rotate(-57.077 36.894 73.771)" data-name="Rectangle 194"/></g></g><g data-name="Group 207"><g data-name="Group 206" transform="translate(1357.353 3355.688)" clip-path="url(&quot;#U&quot;)"><path d="M0 0h84.666v83.205H0V0z" fill-rule="evenodd" fill="url(&quot;#V&quot;)" transform="rotate(-57.077 25.989 49.704)" data-name="Rectangle 195"/></g></g><g data-name="Group 209"><g data-name="Group 208" transform="translate(1368.484 3367.58)" clip-path="url(&quot;#W&quot;)"><path d="M0 0h62.016v60.694H0V0z" fill-rule="evenodd" fill="url(&quot;#X&quot;)" transform="rotate(-57.077 19.558 35.964)" data-name="Rectangle 196"/></g></g><g data-name="Group 211"><g data-name="Group 210" transform="translate(1382.185 3383.27)" clip-path="url(&quot;#Y&quot;)"><path d="M0 0h29.476v28.932H0V0z" fill-rule="evenodd" fill="url(&quot;#Z&quot;)" transform="rotate(-57.078 9.249 17.007)" data-name="Rectangle 197"/></g></g></g><defs><linearGradient x1="2.031" y1="1.433" x2=".5" y2="4.667" id="b"><stop stop-color="#ff5800" offset="0"/><stop stop-color="#c00" offset="1"/></linearGradient><linearGradient x1="2.031" y1="1.433" x2=".5" y2="4.667" id="c"><stop stop-color="#ff5800" offset="0"/><stop stop-color="#c00" offset="1"/></linearGradient><linearGradient x1="2.031" y1="1.433" x2=".5" y2="4.667" id="d"><stop stop-color="#ff5800" offset="0"/><stop stop-color="#c00" offset="1"/></linearGradient><linearGradient x1="2.031" y1="1.433" x2=".5" y2="4.667" id="e"><stop stop-color="#ff5800" offset="0"/><stop stop-color="#c00" offset="1"/></linearGradient><linearGradient x1="2.031" y1="1.433" x2=".5" y2="4.667" id="f"><stop stop-color="#ff5800" offset="0"/><stop stop-color="#c00" offset="1"/></linearGradient><linearGradient x1="2.031" y1="1.433" x2=".5" y2="4.667" id="g"><stop stop-color="#ff5800" offset="0"/><stop stop-color="#c00" offset="1"/></linearGradient><linearGradient x1="2.031" y1="1.433" x2=".5" y2="4.667" id="h"><stop stop-color="#ff5800" offset="0"/><stop stop-color="#c00" offset="1"/></linearGradient><linearGradient x1="2.031" y1="1.433" x2=".5" y2="4.667" id="i"><stop stop-color="#ff5800" offset="0"/><stop stop-color="#c00" offset="1"/></linearGradient><linearGradient x1="2.031" y1="1.433" x2=".5" y2="4.667" id="j"><stop stop-color="#ff5800" offset="0"/><stop stop-color="#c00" offset="1"/></linearGradient><linearGradient x1="2.031" y1="1.433" x2=".5" y2="4.667" id="k"><stop stop-color="#ff5800" offset="0"/><stop stop-color="#c00" offset="1"/></linearGradient><linearGradient x1="2.031" y1="1.433" x2=".5" y2="4.667" id="l"><stop stop-color="#ff5800" offset="0"/><stop stop-color="#c00" offset="1"/></linearGradient><linearGradient x1="2.031" y1="1.433" x2=".5" y2="4.667" id="m"><stop stop-color="#ff5800" offset="0"/><stop stop-color="#c00" offset="1"/></linearGradient><linearGradient x1="2.031" y1="1.433" x2=".5" y2="4.667" id="n"><stop stop-color="#ff5800" offset="0"/><stop stop-color="#c00" offset="1"/></linearGradient><linearGradient x1="2.031" y1="1.433" x2=".5" y2="4.667" id="o"><stop stop-color="#ff5800" offset="0"/><stop stop-color="#c00" offset="1"/></linearGradient><linearGradient x1="2.031" y1="1.433" x2=".5" y2="4.667" id="p"><stop stop-color="#ff5800" offset="0"/><stop stop-color="#c00" offset="1"/></linearGradient><linearGradient x1="2.031" y1="1.433" x2=".5" y2="4.667" id="q"><stop stop-color="#ff5800" offset="0"/><stop stop-color="#c00" offset="1"/></linearGradient><linearGradient x1="2.031" y1="1.433" x2=".5" y2="4.667" id="r"><stop stop-color="#ff5800" offset="0"/><stop stop-color="#c00" offset="1"/></linearGradient><linearGradient x1="2.031" y1="1.433" x2=".5" y2="4.667" id="t"><stop stop-color="#ff5800" offset="0"/><stop stop-color="#c00" offset="1"/></linearGradient><linearGradient x1="2.031" y1="1.433" x2=".5" y2="4.667" id="v"><stop stop-color="#ff5800" offset="0"/><stop stop-color="#c00" offset="1"/></linearGradient><linearGradient x1="2.031" y1="1.433" x2=".5" y2="4.667" id="x"><stop stop-color="#ff5800" offset="0"/><stop stop-color="#c00" offset="1"/></linearGradient><linearGradient x1="2.031" y1="1.433" x2=".5" y2="4.667" id="z"><stop stop-color="#ff5800" offset="0"/><stop stop-color="#c00" offset="1"/></linearGradient><linearGradient x1="2.031" y1="1.433" x2=".5" y2="4.667" id="B"><stop stop-color="#ff5800" offset="0"/><stop stop-color="#c00" offset="1"/></linearGradient><linearGradient x1="2.031" y1="1.433" x2=".5" y2="4.667" id="D"><stop stop-color="#ff5800" offset="0"/><stop stop-color="#c00" offset="1"/></linearGradient><linearGradient x1="2.031" y1="1.433" x2=".5" y2="4.667" id="F"><stop stop-color="#ff5800" offset="0"/><stop stop-color="#c00" offset="1"/></linearGradient><linearGradient x1="2.031" y1="1.433" x2=".5" y2="4.667" id="H"><stop stop-color="#ff5800" offset="0"/><stop stop-color="#c00" offset="1"/></linearGradient><linearGradient x1="2.031" y1="1.433" x2=".5" y2="4.667" id="J"><stop stop-color="#ff5800" offset="0"/><stop stop-color="#c00" offset="1"/></linearGradient><linearGradient x1="2.031" y1="1.433" x2=".5" y2="4.667" id="L"><stop stop-color="#ff5800" offset="0"/><stop stop-color="#c00" offset="1"/></linearGradient><linearGradient x1="2.031" y1="1.433" x2=".5" y2="4.667" id="N"><stop stop-color="#ff5800" offset="0"/><stop stop-color="#c00" offset="1"/></linearGradient><linearGradient x1="2.031" y1="1.433" x2=".5" y2="4.667" id="P"><stop stop-color="#ff5800" offset="0"/><stop stop-color="#c00" offset="1"/></linearGradient><linearGradient x1="2.031" y1="1.433" x2=".5" y2="4.667" id="R"><stop stop-color="#ff5800" offset="0"/><stop stop-color="#c00" offset="1"/></linearGradient><linearGradient x1="2.031" y1="1.433" x2=".5" y2="4.667" id="T"><stop stop-color="#ff5800" offset="0"/><stop stop-color="#c00" offset="1"/></linearGradient><linearGradient x1="2.031" y1="1.433" x2=".5" y2="4.667" id="V"><stop stop-color="#ff5800" offset="0"/><stop stop-color="#c00" offset="1"/></linearGradient><linearGradient x1="2.031" y1="1.433" x2=".5" y2="4.667" id="X"><stop stop-color="#ff5800" offset="0"/><stop stop-color="#c00" offset="1"/></linearGradient><linearGradient x1="2.031" y1="1.433" x2=".5" y2="4.667" id="Z"><stop stop-color="#ff5800" offset="0"/><stop stop-color="#c00" offset="1"/></linearGradient><clipPath id="a"><path d="M0 0h182.352v183.476H0V0z" data-name="Rectangle 180"/></clipPath><clipPath id="s"><path d="M75.156.499c-5.558 7.005-15.939 15.27-37.506 22.665a579.961 579.961 0 0 1-8.342 2.772c-4.244 1.39-8.528 2.798-12.767 4.335A92.34 92.34 0 0 0 7.86 41.557c7.557-3.524 15.691-6.19 23.679-8.804 2.828-.927 5.649-1.85 8.438-2.807C54.32 25.03 74.057 16.661 84.185 0c-3.02.018-6.034.186-9.029.499" data-name="Path 181" transform="translate(-7.86)"/></clipPath><clipPath id="u"><path d="M107.752 6.066c-3.973 7.993-12.674 19.792-42.223 29.923-2.758.947-5.545 1.86-8.34 2.774-15.09 4.938-30.693 10.042-42.843 20.808C3.023 69.605.018 80.921 0 92.54v.218c.01 6.513.949 13.12 1.876 19.647.176 1.237.351 2.479.522 3.724a91.918 91.918 0 0 0 7.574 18.565c.242-7.834-.857-15.598-1.93-23.166-2.576-18.134-4.8-33.796 10.434-47.295 11.184-9.91 26.162-14.81 40.649-19.551a622.4 622.4 0 0 0 8.422-2.798c15.191-5.21 36.465-14.304 45.78-33.045 1.007-2.024 1.824-4.091 2.514-6.181a90.782 90.782 0 0 0-6.048-1.511 40.779 40.779 0 0 1-2.041 4.92" data-name="Path 182" transform="translate(0 -1.146)"/></clipPath><clipPath id="w"><path d="M95.175.123c-3.954 7.956-12.62 19.702-42.086 29.804-2.76.947-5.549 1.86-8.345 2.775C32.1 36.84 19.103 41.107 8.056 48.713A91.538 91.538 0 0 0 1.95 63.007a40.94 40.94 0 0 1 4.32-4.437c11.143-9.878 26.095-14.768 40.557-19.502a649.465 649.465 0 0 0 8.433-2.802c15.232-5.222 36.56-14.34 45.915-33.162.371-.748.714-1.504 1.039-2.263A92.192 92.192 0 0 0 95.18.11l-.005.014" data-name="Path 183" transform="translate(-1.95 -.109)"/></clipPath><clipPath id="y"><path d="M120.366 15.829c-4.009 8.068-12.777 19.972-42.492 30.16-2.763.947-5.556 1.86-8.356 2.777-15.04 4.922-30.592 10.011-42.665 20.709C9.3 85.029 11.963 103.767 14.536 121.89c1.345 9.47 2.735 19.263 1.305 28.694-.053.346-.118.676-.176 1.018a90.514 90.514 0 0 0 4.534 4.29c.334-1.45.627-2.947.866-4.516 1.548-10.199.102-20.382-1.298-30.23-2.595-18.27-4.834-34.047 10.59-47.716 11.255-9.973 26.277-14.887 40.806-19.642a622.8 622.8 0 0 0 8.426-2.802C94.7 45.807 115.86 36.766 125.1 18.18c1.523-3.069 2.64-6.23 3.464-9.454a92.456 92.456 0 0 0-4.766-2.698c-.766 3.367-1.86 6.64-3.432 9.8" data-name="Path 184" transform="translate(-12.67 -6.029)"/></clipPath><clipPath id="A"><path d="M114.059 11.302c-3.991 8.031-12.725 19.883-42.358 30.043-2.76.946-5.551 1.86-8.351 2.777C48.286 49.05 32.71 54.147 20.6 64.879 2.954 80.516 5.624 99.32 8.206 117.503c1.106 7.785 2.238 15.791 1.807 23.624a91.89 91.89 0 0 0 5.042 6.705c.049-.281.102-.554.146-.84 1.554-10.234.105-20.434-1.297-30.3-2.584-18.2-4.816-33.922 10.512-47.506 11.219-9.938 26.218-14.848 40.724-19.594a640.213 640.213 0 0 0 8.428-2.802c15.152-5.196 36.368-14.26 45.645-32.925 1.39-2.797 2.436-5.669 3.24-8.593a92.497 92.497 0 0 0-5.37-2.154c-.734 2.802-1.707 5.535-3.024 8.184" data-name="Path 185" transform="translate(-6.335 -3.118)"/></clipPath><clipPath id="C"><path d="M126.675 19.592c-4.028 8.107-12.832 20.064-42.627 30.28-2.762.945-5.555 1.859-8.355 2.776-15.017 4.916-30.548 9.996-42.588 20.662-17.455 15.47-14.804 34.146-12.238 52.206 1.346 9.487 2.739 19.3 1.302 28.764a57.132 57.132 0 0 1-.668 3.578 92.86 92.86 0 0 0 4.235 2.967 58.437 58.437 0 0 0 1.191-5.823c1.544-10.166.099-20.331-1.298-30.163-2.494-17.572-4.851-34.172 10.668-47.926 11.291-10.006 26.34-14.93 40.895-19.691 2.82-.924 5.633-1.843 8.416-2.798 15.073-5.168 36.174-14.18 45.375-32.689 1.392-2.798 2.433-5.675 3.234-8.607a90.848 90.848 0 0 0-4.138-3.181c-.766 3.311-1.857 6.533-3.404 9.645" data-name="Path 186" transform="translate(-19.005 -9.947)"/></clipPath><clipPath id="E"><path d="M132.982 22.485C128.935 30.63 120.1 42.638 90.22 52.881a589.732 589.732 0 0 1-8.36 2.777c-14.994 4.91-30.499 9.983-42.502 20.617C21.996 91.66 24.64 110.272 27.196 128.27c1.35 9.505 2.745 19.333 1.305 28.832a55.378 55.378 0 0 1-.759 3.966 95.576 95.576 0 0 0 3.982 2.04 58.343 58.343 0 0 0 1.067-5.356c1.538-10.128.096-20.278-1.299-30.092-2.503-17.638-4.87-34.299 10.745-48.135 11.327-10.037 26.4-14.97 40.974-19.739 2.821-.924 5.635-1.844 8.418-2.8 15.033-5.154 36.078-14.137 45.24-32.569a45.572 45.572 0 0 0 2.391-5.835 90.973 90.973 0 0 0-3.429-3.564c-.718 2.547-1.642 5.04-2.849 7.467" data-name="Path 187" transform="translate(-25.339 -15.018)"/></clipPath><clipPath id="G"><path d="M14.812 25.843c.218-.07.434-.142.65-.212 2.83-.928 5.653-1.85 8.442-2.807C35.717 18.773 51.18 12.38 61.96.956 44.445 4.348 27.935 12.815 14.812 25.843" data-name="Path 188" transform="translate(-14.812 -.956)"/></clipPath><clipPath id="I"><path d="M127.282 60.986c-2.772.95-5.572 1.865-8.38 2.786C104.045 68.636 88.68 73.662 76.9 84.1c-16.793 14.88-14.322 32.297-11.7 50.737.066.485.136.974.206 1.462.49-.125.98-.255 1.47-.388l-.182-1.286c-2.561-18.024-4.978-35.053 11.205-49.393C89.447 75 104.661 70.022 119.372 65.207c2.814-.919 5.62-1.84 8.4-2.791 1.842-.633 3.78-1.323 5.772-2.082.08-.578.16-1.154.23-1.732-2.052.805-4.205 1.6-6.492 2.384" data-name="Path 189" transform="translate(-63.318 -58.602)"/></clipPath><clipPath id="K"><path d="M108.74 57.042c-2.766.95-5.564 1.865-8.371 2.782-14.926 4.885-30.36 9.935-42.251 20.473-17.077 15.133-14.462 33.55-11.932 51.366 1.104 7.78 2.241 15.775 1.837 23.662.973.095 1.945.17 2.918.236.43-8.18-.73-16.356-1.859-24.31-2.533-17.832-4.923-34.676 10.975-48.765 11.44-10.136 26.58-15.09 41.224-19.881 2.815-.923 5.628-1.843 8.408-2.795 11.098-3.807 25.492-9.712 35.86-19.981a90.22 90.22 0 0 0-.92-3.162c-6.237 6.557-16.812 13.833-35.888 20.375" data-name="Path 190" transform="translate(-44.343 -36.667)"/></clipPath><clipPath id="M"><path d="M114.935 58.035c-2.769.948-5.567 1.863-8.372 2.782-14.905 4.876-30.317 9.92-42.17 20.424C47.41 96.289 49.9 113.827 52.539 132.397c.815 5.751 1.646 11.622 1.864 17.482.817-.02 1.635-.053 2.454-.093-.223-5.97-1.061-11.912-1.89-17.733-2.54-17.898-4.941-34.803 11.054-48.975 11.472-10.167 26.638-15.131 41.304-19.93 2.816-.922 5.626-1.841 8.407-2.793 8.38-2.874 18.651-6.95 27.633-13.2a97.245 97.245 0 0 0-.378-2.748c-6.411 4.585-15.349 9.27-28.052 13.628" data-name="Path 191" transform="translate(-50.649 -44.407)"/></clipPath><clipPath id="O"><path d="M102.567 56.172c-2.765.949-5.561 1.862-8.363 2.78-14.952 4.891-30.412 9.95-42.34 20.52-17.17 15.215-14.547 33.7-12.008 51.576 1.326 9.336 2.689 18.983 1.384 28.364 1.108.253 2.22.484 3.336.695 1.422-9.923.015-19.891-1.357-29.537-2.522-17.767-4.906-34.551 10.898-48.555C65.52 71.913 80.638 66.965 95.26 62.182a637.372 637.372 0 0 0 8.41-2.797c13.435-4.606 31.689-12.287 41.847-27.051a91.774 91.774 0 0 0-1.695-3.566c-4.846 7.968-14.943 18.38-41.255 27.404" data-name="Path 192" transform="translate(-38.008 -28.768)"/></clipPath><clipPath id="Q"><path d="M139.29 24.424c-4.066 8.18-12.935 20.243-42.895 30.515-2.765.947-5.56 1.862-8.363 2.779-14.973 4.9-30.455 9.967-42.421 20.568-17.267 15.3-14.632 33.849-12.084 51.785 1.351 9.52 2.75 19.365 1.302 28.9-.132.865-.28 1.705-.444 2.53 1.222.46 2.448.897 3.68 1.3.22-1.057.421-2.132.59-3.25 1.532-10.096.093-20.228-1.298-30.024-2.514-17.703-4.889-34.426 10.822-48.345 11.363-10.068 26.46-15.01 41.056-19.788 2.82-.922 5.632-1.84 8.413-2.796 14.996-5.14 35.983-14.098 45.105-32.451.176-.353.327-.71.49-1.066a89.63 89.63 0 0 0-2.594-3.733 41.662 41.662 0 0 1-1.358 3.076" data-name="Path 193" transform="translate(-31.674 -21.348)"/></clipPath><clipPath id="S"><path d="M121.108 59.34a622.724 622.724 0 0 1-8.37 2.782c-14.884 4.87-30.273 9.905-42.093 20.378-16.886 14.964-14.404 32.44-11.778 50.946.473 3.313.945 6.664 1.305 10.032.656-.092 1.31-.192 1.964-.299-.363-3.364-.836-6.706-1.305-10.01-2.552-17.963-4.96-34.928 11.128-49.183 11.513-10.202 26.703-15.173 41.395-19.981 2.814-.92 5.62-1.837 8.397-2.791 5.335-1.827 11.435-4.15 17.478-7.202.01-.763.012-1.523.005-2.282-5 2.59-10.961 5.154-18.126 7.61" data-name="Path 194" transform="translate(-56.984 -51.73)"/></clipPath><clipPath id="U"><path d="M125.069 65.694c-14.835 4.854-30.175 9.876-41.92 20.28-14.182 12.568-14.537 26.985-12.724 42.302.334-.127.668-.253 1.001-.385-1.739-14.941-1.303-28.985 12.412-41.139 11.585-10.263 26.82-15.249 41.554-20.07l1.128-.371c.107-.399.217-.797.32-1.198-.59.193-1.18.386-1.771.581" data-name="Path 195" transform="translate(-69.654 -65.113)"/></clipPath><clipPath id="W"><path d="M89.4 87.654c-10.567 9.364-13.407 19.775-13.409 30.83a58 58 0 0 0 .57-.303c.064-10.806 2.919-20.977 13.217-30.104 8.063-7.142 17.877-11.732 28.06-15.486.097-.235.19-.473.286-.708-10.407 3.807-20.464 8.453-28.723 15.77" data-name="Path 196" transform="translate(-75.991 -71.883)"/></clipPath><clipPath id="Y"><path d="M94.547 87.696c-3.972 3.518-6.957 7.266-9.119 11.456a35.065 35.065 0 0 0-1.637 3.7c.047-.038.097-.075.146-.113.462-1.21.983-2.39 1.577-3.541 2.156-4.18 5.131-7.919 9.096-11.43 2.882-2.556 5.99-4.782 9.255-6.765l.125-.188c-3.334 2.01-6.503 4.276-9.443 6.88" data-name="Path 197" transform="translate(-83.791 -80.815)"/></clipPath></defs></svg>