<svg xmlns="http://www.w3.org/2000/svg" width="64.329" height="64.329" viewBox="483.459 3757.959 64.329 64.329"><g data-name="Group 477"><g data-name="Group 310" transform="rotate(128 -649.314 2026.713)" clip-path="url(&quot;#a&quot;)"><path d="M43.467 23.415h2.862c-.002 12.656-10.258 22.912-22.914 22.914C10.758 46.327.502 36.071.5 23.415.502 10.758 10.758.502 23.415.5 36.07.502 46.327 10.758 46.329 23.415h-5.724c-.017-9.493-7.697-17.174-17.19-17.19-9.493.016-17.174 7.697-17.19 17.19.016 9.493 7.697 17.173 17.19 17.19 9.493-.017 17.173-7.697 17.19-17.19h2.862Z" fill-rule="evenodd" fill="url(&quot;#b&quot;)" transform="translate(-.35 -.35)" data-name="Path 978"/></g></g><defs><linearGradient x1="1" y1="0" x2=".003" y2="1.003" id="b"><stop stop-color="#ffc76e" offset="0"/><stop stop-color="#c00" offset="1"/></linearGradient><clipPath id="a"><path d="M0 0h46.13v46.13H0V0z" data-name="Rectangle 247"/></clipPath></defs></svg>